<svg width="88" height="88" viewBox="0 0 88 88" fill="none" xmlns="http://www.w3.org/2000/svg">
<path d="M71.2743 88H16.7257C7.50756 88 0 80.54 0 71.2743V16.7257C0 7.50756 7.50756 0 16.7257 0H71.2743C80.54 0 88 7.50756 88 16.7257V71.2743C88 80.54 80.54 88 71.2743 88Z" fill="#B6FFB6"/>
<path d="M73.8886 23.3779H16.8691V19.9567C16.8691 17.9136 18.5322 16.2505 20.5754 16.2505H70.1823C72.2255 16.2505 73.8886 17.9136 73.8886 19.9567V23.3779Z" fill="#00CA75"/>
<path d="M30.8857 21.4773C31.8042 21.4773 32.5488 20.7327 32.5488 19.8142C32.5488 18.8957 31.8042 18.1511 30.8857 18.1511C29.9672 18.1511 29.2227 18.8957 29.2227 19.8142C29.2227 20.7327 29.9672 21.4773 30.8857 21.4773Z" fill="#B6FFB6"/>
<path d="M60.8213 21.4773C61.7398 21.4773 62.4843 20.7327 62.4843 19.8142C62.4843 18.8957 61.7398 18.1511 60.8213 18.1511C59.9028 18.1511 59.1582 18.8957 59.1582 19.8142C59.1582 20.7327 59.9028 21.4773 60.8213 21.4773Z" fill="#B6FFB6"/>
<path d="M70.1348 73.2699H20.5754C18.5322 73.2699 16.8691 71.6069 16.8691 69.5637V25.2786H73.8886V69.5637C73.8886 71.6069 72.2255 73.2699 70.1348 73.2699Z" fill="#00CA75"/>
<path d="M32.1211 43.4298L33.214 37.1101H43.525L39.7237 58.6825H32.6438L35.3047 43.4298H32.1211Z" fill="#B6FFB6"/>
<path d="M60.9627 42.337H52.1247L51.6495 44.9029C52.1247 44.5227 52.6948 44.2376 53.3126 44.0476C53.9303 43.8575 54.6905 43.7625 55.4508 43.7625C57.2089 43.7625 58.4918 44.2852 59.3471 45.283C60.2024 46.2808 60.6301 47.6113 60.6301 49.2268C60.6301 49.702 60.5825 50.2722 60.4875 50.9849C60.0599 53.4083 59.062 55.3089 57.4465 56.6869C55.8309 58.0173 53.8352 58.7301 51.4594 58.7301C49.1311 58.7301 47.373 58.2074 46.0901 57.2096C44.8072 56.1642 44.1895 54.8337 44.1895 53.1232C44.1895 52.6955 44.237 52.2204 44.332 51.6502H50.8892L50.8417 51.9353C50.8417 52.2204 50.9368 52.4579 51.1268 52.6955C51.3169 52.8856 51.602 53.0281 52.0771 53.0281C52.5998 53.0281 52.9799 52.8381 53.3126 52.4579C53.5977 52.0778 53.8352 51.6026 53.9303 50.9849C53.9778 50.7474 53.9778 50.5573 53.9778 50.4623C53.9778 50.0346 53.8828 49.702 53.6452 49.5119C53.4076 49.3219 53.075 49.1793 52.6473 49.1793C52.2197 49.1793 51.8871 49.2743 51.6495 49.4644C51.4119 49.6545 51.2218 49.8921 51.1743 50.1772H44.6646L47.0404 36.3975H61.9605L60.9627 42.337Z" fill="#B6FFB6"/>
</svg>
