<svg width="37" height="36" viewBox="0 0 37 36" fill="none" xmlns="http://www.w3.org/2000/svg">
<g clip-path="url(#clip0_2_238)">
<path d="M1.80382 9.1033C1.5941 8.52439 1.51079 7.907 1.55952 7.29296C1.60825 6.67891 1.78788 6.08255 2.08627 5.54425C2.38491 5.02416 2.79182 4.57485 3.27925 4.22698C3.76669 3.8791 4.32316 3.64087 4.91069 3.52851C5.25707 3.45984 5.60897 3.42293 5.96201 3.41826C6.2565 3.42173 6.55027 3.44806 6.84072 3.497V1.9222C6.08753 1.82768 5.32392 1.85961 4.58118 2.01669C3.78087 2.17229 3.02331 2.49895 2.35997 2.97448C1.69663 3.45001 1.14304 4.06327 0.736817 4.77259C0.325718 5.50135 0.0764216 6.31067 0.00600548 7.14513C-0.0644106 7.97959 0.0457197 8.81948 0.328846 9.60725C0.900954 11.2669 2.05555 12.6608 3.57694 13.5285C4.66894 14.1658 5.90709 14.5077 7.17024 14.5206H7.38991C7.23425 14.0034 7.1085 13.4776 7.01332 12.9458C5.86324 12.8958 4.75393 12.5038 3.82634 11.8197C2.89875 11.1355 2.19476 10.19 1.80382 9.1033Z" fill="#00CA75"/>
<path d="M36.2464 4.77259C35.8426 4.06128 35.2897 3.44644 34.626 2.97061C33.9622 2.49478 33.2034 2.16932 32.402 2.01669C31.6593 1.85961 30.8956 1.82768 30.1425 1.9222V3.497C30.7804 3.37889 31.4345 3.37889 32.0725 3.497C32.66 3.60936 33.2165 3.8476 33.7039 4.19547C34.1913 4.54334 34.5983 4.99266 34.8969 5.51275C35.1993 6.0496 35.3812 6.64622 35.43 7.26095C35.4788 7.87568 35.3932 8.49368 35.1793 9.0718C34.7927 10.1626 34.0903 11.1126 33.1621 11.8C32.234 12.4874 31.1224 12.881 29.9698 12.9301C29.8747 13.4619 29.7489 13.9877 29.5933 14.5049H29.8129C31.0761 14.4919 32.3142 14.1501 33.4062 13.5128C34.9131 12.6644 36.0659 11.3006 36.6543 9.67023C36.947 8.87354 37.0621 8.02214 36.9916 7.17598C36.9212 6.32982 36.6668 5.50946 36.2464 4.77259Z" fill="#00CA75"/>
<path d="M7.61035 -0.00108037V10.9281C7.61081 11.5992 7.67385 12.2688 7.79865 12.9281C7.88734 13.4627 8.01851 13.9893 8.19093 14.5029C8.84799 16.4047 10.0114 18.0896 11.5548 19.3749C13.0983 20.6603 14.963 21.4969 16.9467 21.7942V30.8651H13.8084V32.9595H10.8584V36.1091H26.2202V32.9595H23.2232V30.8651H20.0849V21.7942C22.0773 21.4914 23.9466 20.639 25.4844 19.3321C27.0222 18.0251 28.1678 16.315 28.7936 14.3926C28.966 13.879 29.0972 13.3524 29.1858 12.8178C29.3106 12.1585 29.3737 11.4889 29.3741 10.8178V-0.111328L7.61035 -0.00108037ZM23.8665 8.23513L20.9165 10.3926L22.3444 14.8178L18.5942 12.0934L14.844 14.8178L16.2719 10.3926L13.1337 8.07767L12.5531 7.65246H17.2605L18.6884 3.22727L20.132 7.65246H24.6668L23.8665 8.23513Z" fill="#00CA75"/>
</g>
<defs>
<clipPath id="clip0_2_238">
<rect width="37" height="36" fill="white"/>
</clipPath>
</defs>
</svg>
