<svg width="144" height="196" viewBox="0 0 144 196" fill="none" xmlns="http://www.w3.org/2000/svg">
<path d="M73.1208 179.665H9.32272C3.53052 179.665 0.634428 175.005 0.0887863 169.8C-0.163048 167.449 0.130759 165.056 0.84429 162.747L8.10552 138.944L73.1208 179.665Z" fill="#C18A65"/>
<path d="M30.5613 157.373H9.70097C9.44914 157.373 9.28125 157.205 9.28125 156.953C9.28125 156.702 9.44914 156.534 9.70097 156.534H30.5193C30.7711 156.534 30.939 156.702 30.939 156.953C30.939 157.205 30.7711 157.373 30.5613 157.373Z" fill="#AF6C4B"/>
<path d="M69.8887 179.665H133.687C139.479 179.665 142.375 175.005 142.921 169.8C143.172 167.449 142.879 165.056 142.165 162.747L134.904 138.944L69.8887 179.665Z" fill="#C18A65"/>
<path d="M133.308 157.373H112.49C112.238 157.373 112.07 157.205 112.07 156.953C112.07 156.702 112.238 156.534 112.49 156.534H133.308C133.56 156.534 133.728 156.702 133.728 156.953C133.728 157.205 133.518 157.373 133.308 157.373Z" fill="#AF6C4B"/>
<path d="M125.04 125.72V150.741L120.591 150.615L115.387 150.489L110.308 150.363L110.434 152.168L110.686 155.946L113.288 194.652H29.763L32.3653 155.946L32.6171 152.168L32.743 150.363L27.6644 150.489L21.9142 150.615L17.9688 150.699V125.678C22.166 113 28.7976 103.009 37.1501 95.8719C37.2341 95.8299 37.2761 95.7879 37.36 95.704C46.9297 87.6017 58.682 83.2777 71.4836 82.8579H71.5255C84.3271 83.2777 96.0794 87.6017 105.649 95.704C105.733 95.746 105.775 95.8299 105.859 95.8719C114.211 103.051 120.843 113.042 125.04 125.72Z" fill="white"/>
<path d="M113.498 194.862H29.5531L32.5331 150.573L17.8008 150.95V125.678C21.9141 113.252 28.3778 103.177 37.0661 95.7879C37.1501 95.7459 37.192 95.662 37.234 95.62L37.318 95.578C46.8037 87.5597 58.6399 83.1517 71.5255 82.7319H71.5674C84.453 83.1517 96.2892 87.5597 105.775 95.578L105.859 95.62C105.901 95.662 105.985 95.7459 106.027 95.7879C114.715 103.177 121.179 113.252 125.292 125.678V125.762V150.992L110.56 150.615L110.938 155.946L113.498 194.862ZM29.9728 194.442H113.036L110.056 150.153L124.83 150.531V125.762C120.759 113.42 114.337 103.428 105.733 96.0818C105.691 96.0398 105.649 95.9978 105.607 95.9558L105.565 95.9139C96.1633 87.9375 84.369 83.5296 71.5674 83.1098C58.7239 83.5296 46.9716 87.9375 37.5278 95.9139L37.4858 95.9558C37.4439 95.9978 37.4019 96.0398 37.3599 96.0818C28.7136 103.428 22.2499 113.42 18.1785 125.762V150.531L32.9528 150.153L32.5751 155.946L29.9728 194.442Z" fill="#00CC75"/>
<path d="M78.2827 138.944C78.8854 138.944 79.374 138.455 79.374 137.852C79.374 137.25 78.8854 136.761 78.2827 136.761C77.68 136.761 77.1914 137.25 77.1914 137.852C77.1914 138.455 77.68 138.944 78.2827 138.944Z" fill="white"/>
<path d="M78.8296 151.119C79.4323 151.119 79.9208 150.63 79.9208 150.027C79.9208 149.424 79.4323 148.936 78.8296 148.936C78.2269 148.936 77.7383 149.424 77.7383 150.027C77.7383 150.63 78.2269 151.119 78.8296 151.119Z" fill="white"/>
<path d="M104.641 95.6201C104.641 95.6201 113.749 96.2498 122.353 107.291C132.091 119.885 138.89 146.039 138.89 146.039L107.495 157.038L104.641 95.6201Z" fill="white"/>
<path d="M110.727 156.114L110.601 155.736L138.597 145.913C138.303 144.779 136.666 138.734 134.064 131.472C131.419 124.083 127.18 113.924 122.185 107.459C115.428 98.7267 108.376 96.5437 105.648 95.9979C105.522 95.9559 105.438 95.9559 105.312 95.9559L105.396 95.5361C105.48 95.5361 105.606 95.5781 105.732 95.5781C108.502 96.1239 115.68 98.3488 122.521 107.207C132.175 119.675 139.016 145.745 139.1 145.997L139.142 146.165L110.727 156.114Z" fill="#00CC75"/>
<path d="M110.435 155.988C108.966 147.55 103.384 120.304 103.342 120.01L103.762 119.927C103.803 120.22 109.386 147.466 110.855 155.904L110.435 155.988Z" fill="#00CC75"/>
<path d="M108.851 124.534L107.162 139.214L107.579 139.262L109.268 124.582L108.851 124.534Z" fill="#00CC75"/>
<path d="M107.287 116.022H106.868C107.035 111.069 105.65 95.8718 105.65 95.7458L106.07 95.7039C106.07 95.8298 107.413 111.027 107.287 116.022Z" fill="#00CC75"/>
<path d="M137.981 142.704L109.92 152.098L110.053 152.496L138.114 143.102L137.981 142.704Z" fill="#00CC75"/>
<path d="M64.726 138.944C65.3287 138.944 65.8173 138.455 65.8173 137.852C65.8173 137.25 65.3287 136.761 64.726 136.761C64.1233 136.761 63.6348 137.25 63.6348 137.852C63.6348 138.455 64.1233 138.944 64.726 138.944Z" fill="white"/>
<path d="M64.1811 151.119C64.7838 151.119 65.2724 150.63 65.2724 150.027C65.2724 149.424 64.7838 148.936 64.1811 148.936C63.5784 148.936 63.0898 149.424 63.0898 150.027C63.0898 150.63 63.5784 151.119 64.1811 151.119Z" fill="white"/>
<path d="M38.3667 95.6201C38.3667 95.6201 29.2587 96.2498 20.6543 107.291C10.9167 119.885 4.11719 146.039 4.11719 146.039L35.5126 157.038L38.3667 95.6201Z" fill="white"/>
<path d="M32.2815 156.114L3.9082 146.165L3.95018 145.997C4.03412 145.745 10.8337 119.675 20.5293 107.207C27.3708 98.3488 34.5481 96.1239 37.3182 95.5781C37.4442 95.5361 37.5281 95.5361 37.654 95.5361L37.738 95.9559C37.654 95.9559 37.5281 95.9979 37.4022 95.9979C34.674 96.5437 27.6226 98.7267 20.8651 107.459C15.8284 113.924 11.6311 124.125 8.98686 131.472C6.38457 138.734 4.74765 144.779 4.45384 145.913L32.4494 155.736L32.2815 156.114Z" fill="#00CC75"/>
<path d="M32.576 155.988L32.1562 155.904C33.6253 147.466 39.2076 120.22 39.2496 119.927L39.6693 120.01C39.6273 120.304 34.045 147.55 32.576 155.988Z" fill="#00CC75"/>
<path d="M34.1631 124.529L33.7461 124.577L35.4331 139.257L35.8501 139.21L34.1631 124.529Z" fill="#00CC75"/>
<path d="M35.7661 116.022C35.5982 111.027 36.9833 95.8295 36.9833 95.6616L37.403 95.7036C37.403 95.8715 36.0179 111.027 36.1858 115.98L35.7661 116.022Z" fill="#00CC75"/>
<path d="M5.00639 142.693L4.87305 143.091L32.9308 152.493L33.0642 152.095L5.00639 142.693Z" fill="#00CC75"/>
<path d="M54.8637 78.8694C54.8637 78.8694 46.889 87.4334 46.3014 92.8069C45.7977 97.7607 58.8091 118.331 58.8091 118.331C58.8091 118.331 66.0704 110.187 70.9811 110.061C75.8919 109.935 85.2518 118.331 85.2518 118.331C85.2518 118.331 94.1079 101.035 94.4857 92.723C94.8634 84.4108 86.3011 79.667 86.3011 79.667L54.8637 78.8694Z" fill="#00CC75"/>
<path d="M56.8342 57.2915L53.2246 88.735C53.2246 88.735 60.8216 103.092 71.1888 110.313C71.1888 110.313 84.7459 103.932 88.7752 92.7231L85.5853 55.4863L56.8342 57.2915Z" fill="#C18A65"/>
<g opacity="0.41">
<path opacity="0.41" d="M87.5173 78.1139L85.5866 55.4863L56.8355 57.2915L55.8281 66.1494C58.0946 71.313 63.8868 81.1365 75.723 82.4379C81.0955 83.0256 84.873 81.0105 87.5173 78.1139Z" fill="#AF6C4B"/>
</g>
<path d="M48.1463 19.7612C47.3488 21.3145 46.5514 22.9098 45.7539 24.4631C45.3761 25.2187 44.9984 25.9744 44.8725 26.814C44.7046 28.4092 45.586 30.1304 44.8305 31.5578C44.5367 32.1455 43.9491 32.6073 43.5293 33.1531C42.564 34.3285 42.2702 35.9658 42.564 37.4351C42.8578 38.9044 43.6972 40.2478 44.7885 41.2973C45.7959 42.2628 47.2649 43.0605 48.5241 42.4308C49.1956 42.0949 49.6153 41.4652 49.9931 40.8355C52.3855 36.8054 54.1903 32.3974 55.2816 27.8215C55.8273 25.6385 56.4149 24.3791 54.4422 22.9937C52.5114 21.6084 50.4128 20.5169 48.1463 19.7612Z" fill="#28180D"/>
<path d="M98.514 29.8362C98.2202 29.1225 97.7166 28.4928 97.4228 27.7791C96.7932 26.4357 96.7932 24.9244 96.7932 23.4551C96.7932 21.9858 96.8352 20.4745 96.3315 19.1311C95.8698 17.9137 94.8624 16.8222 93.7292 16.6962C93.3095 16.4863 93.0157 16.4443 93.0157 16.4443L92.47 16.9901C92.3861 17.0321 92.3021 17.074 92.2182 17.116C90.4553 18.3754 88.8604 20.0127 87.4753 21.6919C87.3074 21.8598 87.1815 22.0697 87.0975 22.2796L86.8457 22.5315L87.0136 23.2452V23.2872C87.3074 26.6036 88.2728 29.8362 88.6086 33.1526C88.8184 34.9998 88.8184 36.8889 89.0702 38.736C89.3641 40.5832 89.9517 42.4303 91.1689 43.8577C91.4627 44.1935 91.7985 44.5294 92.2182 44.6553C92.6379 44.7813 93.0576 44.6973 93.4774 44.5294C94.7365 44.0256 95.7858 42.9341 96.1216 41.6327C96.5413 40.1214 96.1636 38.4842 96.5833 37.0148C97.003 35.5455 98.1783 34.412 98.64 32.9427C98.9338 31.8512 98.8918 30.7597 98.514 29.8362Z" fill="#28180D"/>
<path d="M49.8265 39.8277C48.7772 37.8546 48.2315 35.6296 48.1896 33.4047C46.2169 33.0688 44.5799 31.1797 44.538 29.1646C44.496 27.1495 46.007 25.2184 47.9797 24.7566C45.6292 22.6996 44.7898 19.0893 46.007 16.2346C46.6786 14.5973 48.0217 13.2959 49.5747 12.4983C51.5054 11.5327 53.0584 9.85352 53.7719 7.79647C54.2756 6.36913 55.199 5.10971 56.4162 4.22812C57.6753 3.34653 59.2703 2.92672 60.8233 2.9687C62.9638 3.05266 65.1464 2.59088 66.9512 1.41542C68.4622 0.407882 70.351 -0.137866 72.1558 0.0300569C73.9186 0.197979 75.5975 0.953631 76.8987 2.12909C78.4517 3.51445 80.3824 4.43802 82.439 4.56396C83.5723 4.64793 84.7056 5.02575 85.629 5.73942C86.4684 6.41111 87.14 7.29271 87.5177 8.30024C88.1473 10.0214 89.5324 11.4488 91.2952 11.9945C93.0161 12.4983 94.5691 13.7157 95.3246 15.353C96.6257 18.0817 95.6604 21.6921 93.142 23.4133C94.9888 24.6307 96.248 26.7717 96.3739 28.9547C96.4998 31.1797 95.5764 33.4466 93.8975 34.874C92.5964 36.0075 90.9175 36.6372 89.5744 37.6867C88.2312 38.7362 87.1819 40.5833 87.8535 42.1786" fill="#28180D"/>
<path d="M92.8894 31.7254C92.8894 31.7254 96.0793 72.6985 69.9725 74.5037C45.2927 76.1829 49.1961 24.4208 49.1961 24.4208C49.1961 23.2453 54.023 6.95684 70.8119 8.38418C81.9346 9.30775 93.0153 17.3261 92.8894 31.7254Z" fill="#C18A65"/>
<path d="M61.7886 38.2327C61.285 38.2327 60.8652 38.6525 60.8652 39.1562C60.8652 39.66 61.285 40.0798 61.7886 40.0798C62.2923 40.0798 62.712 39.66 62.712 39.1562C62.712 38.6525 62.2923 38.2327 61.7886 38.2327Z" fill="#19201C"/>
<path d="M92.8049 43.5221C93.0987 42.3886 94.4418 41.6749 95.617 41.9268C96.7922 42.1787 97.6737 43.1862 98.0094 44.3197C98.3452 45.4532 98.2193 46.7126 97.8415 47.8461C97.3798 49.2734 96.5404 50.6588 95.2393 51.3724C93.9381 52.0861 92.0913 52.0021 91.084 50.9106" fill="#C18A65"/>
<path d="M92.3867 48.7275C92.1768 48.7275 92.0089 48.6016 91.9669 48.3917C91.925 48.1818 92.0509 47.9299 92.3027 47.8879C92.5965 47.846 92.9323 47.762 93.2261 47.636C93.4779 47.5101 93.6878 47.3422 93.8137 47.1323C93.9396 46.9224 93.9396 46.5865 93.7717 46.3766C93.6458 46.1667 93.352 45.9988 93.1002 46.0408C92.8484 46.0408 92.6805 45.8729 92.6805 45.621C92.6805 45.3691 92.8484 45.2012 93.1002 45.2012C93.6458 45.2012 94.1915 45.4531 94.4853 45.9568C94.7791 46.4186 94.8211 47.0483 94.5692 47.5521C94.3594 47.9299 94.0236 48.2238 93.6039 48.4337C93.2261 48.6016 92.8484 48.6856 92.5126 48.7275C92.4286 48.7275 92.4286 48.7275 92.3867 48.7275Z" fill="#AF6C4B"/>
<path d="M79.7515 38.2327C79.2478 38.2327 78.8281 38.6525 78.8281 39.1562C78.8281 39.66 79.2478 40.0798 79.7515 40.0798C80.2552 40.0798 80.6749 39.66 80.6749 39.1562C80.6329 38.6525 80.2552 38.2327 79.7515 38.2327Z" fill="#19201C"/>
<path d="M49.5732 43.5221C49.2794 42.3886 47.9362 41.6749 46.761 41.9268C45.5858 42.1787 44.7044 43.1862 44.3686 44.3197C44.0328 45.4532 44.1587 46.7126 44.5365 47.8461C44.9982 49.2734 45.8376 50.6588 47.1388 51.3724C48.4399 52.0861 50.2867 52.0021 51.294 50.9106" fill="#C18A65"/>
<path d="M49.8255 48.6436C49.6156 48.6436 49.3638 48.6436 49.1119 48.5596C48.6502 48.4337 48.2725 48.1818 48.0206 47.846C47.6849 47.3002 47.7688 46.5446 48.2305 46.0828C48.6502 45.663 49.3218 45.4951 49.9094 45.663C50.1193 45.7469 50.2452 45.9568 50.1612 46.2087C50.0773 46.4186 49.8674 46.5446 49.6156 46.4606C49.3218 46.3767 48.986 46.4606 48.8181 46.6285C48.6502 46.8384 48.6083 47.1323 48.7342 47.3422C48.8181 47.5101 49.028 47.6361 49.2798 47.6781C49.5316 47.72 49.8674 47.72 50.1612 47.72C50.4131 47.72 50.581 47.888 50.581 48.1398C50.581 48.3917 50.4131 48.5596 50.1612 48.5596C50.1193 48.6016 49.9514 48.6436 49.8255 48.6436Z" fill="#AF6C4B"/>
<path d="M79.7515 40.0798C80.2615 40.0798 80.6749 39.6663 80.6749 39.1562C80.6749 38.6462 80.2615 38.2327 79.7515 38.2327C79.2415 38.2327 78.8281 38.6462 78.8281 39.1562C78.8281 39.6663 79.2415 40.0798 79.7515 40.0798Z" fill="#0B0C0C"/>
<path d="M61.7886 40.0798C62.2986 40.0798 62.712 39.6663 62.712 39.1562C62.712 38.6462 62.2986 38.2327 61.7886 38.2327C61.2787 38.2327 60.8652 38.6462 60.8652 39.1562C60.8652 39.6663 61.2787 40.0798 61.7886 40.0798Z" fill="#0B0C0C"/>
<path d="M71.3159 54.2269C71.19 54.2269 71.106 54.2269 70.9801 54.2269L68.5457 53.933C68.3359 53.891 68.168 53.6811 68.168 53.4712C68.168 53.2613 68.4198 53.0934 68.6297 53.0934L71.0641 53.3873C72.0294 53.5132 72.9109 52.9255 73.1207 52.0859C73.1627 51.876 73.2047 51.6241 73.1627 51.4142L71.5258 45.7468V45.7048L70.8542 41.1289C70.8122 40.919 70.9801 40.6671 71.19 40.6671C71.3998 40.6251 71.6517 40.7931 71.6517 41.003L72.3232 45.5369L73.9602 51.2462V51.2882C74.0021 51.6241 74.0021 52.0019 73.9182 52.3377C73.6244 53.4292 72.5331 54.2269 71.3159 54.2269Z" fill="#AF6C4B"/>
<path d="M58.7655 31.7255C58.3457 31.9354 57.884 32.2293 57.5483 32.5651C57.2125 32.9429 56.9607 33.4047 57.0026 33.9085C57.0026 34.0764 57.0446 34.2443 57.1285 34.4123C57.2964 34.6641 57.6322 34.7901 57.968 34.7901C58.3038 34.7901 58.5976 34.6641 58.8914 34.5382C60.0666 34.0344 61.2838 33.4887 62.585 33.4887C63.2146 33.4887 63.9281 33.5726 64.3058 33.0689C64.5996 32.733 64.5577 32.1453 64.3058 31.8095C63.1306 30.0883 60.1925 31.0118 58.7655 31.7255Z" fill="#28180D"/>
<path d="M84.2006 31.9773C84.5783 32.2712 84.9981 32.565 85.2499 32.9849C85.5437 33.4047 85.6696 33.9084 85.5857 34.3702C85.5437 34.5381 85.5017 34.7061 85.3758 34.832C85.1659 35.0839 84.7882 35.1259 84.4944 35.0839C84.1586 35.0419 83.9068 34.832 83.613 34.6641C82.5217 33.9924 81.3884 33.2787 80.1292 33.0688C79.5416 32.9848 78.7861 32.9429 78.4923 32.3971C78.2405 32.0193 78.3664 31.4735 78.7022 31.1377C80.1293 29.7104 82.9414 31.0537 84.2006 31.9773Z" fill="#28180D"/>
<path d="M53.8144 29.7523C53.7724 30.508 54.0242 31.2216 54.0662 31.9773C54.1921 34.1183 52.7651 36.0494 51.296 37.6447C50.7924 38.1904 50.2887 38.7362 50.0788 39.4498C49.869 40.2055 50.0369 41.0031 49.9949 41.8008C49.9529 42.5984 49.5332 43.48 48.6937 43.6059C48.1901 42.2206 48.0642 40.7093 47.8963 39.2399C47.6444 36.2173 47.3926 33.1528 47.8963 30.1721C48.232 28.0731 49.1974 23.1614 52.2614 23.3713C53.4366 23.4552 54.318 24.2529 54.6118 25.3024C55.0735 26.8976 53.8983 28.241 53.8144 29.7523Z" fill="#28180D"/>
<path d="M87.4755 23.1612C86.9718 23.8749 86.72 24.8404 87.0138 25.68C87.5594 27.1913 89.4902 27.821 90.0358 29.3323C90.5395 30.7177 89.6581 32.145 89.5741 33.6144C89.5321 34.5799 89.8679 35.5875 90.4975 36.3011C90.9592 36.8469 91.6308 37.2667 91.9665 37.9384C92.9739 39.7855 91.1691 42.2624 92.1344 44.1095C92.1764 44.1935 92.2184 44.2774 92.3023 44.3194C92.5961 44.4873 92.8899 44.1095 93.0159 43.8157C94.1491 40.877 95.0305 37.7704 95.2824 34.6219C95.5342 31.4734 95.1564 28.1989 93.8133 25.3442C93.1837 23.9588 92.3023 22.6154 91.0012 21.7758C89.7 20.8942 88.231 22.0697 87.4755 23.1612Z" fill="#28180D"/>
<path d="M47.1808 29.6684C49.1955 30.2142 51.2102 29.0387 52.973 27.9053C54.7778 26.7298 56.6246 25.5543 58.4294 24.3789C59.2689 23.8331 60.1083 23.2874 61.1157 23.1195C64.7673 22.4898 67.6633 27.1916 71.3569 26.7718C72.7 26.6039 73.8753 25.7223 75.1764 25.3025C77.6108 24.5048 80.2551 25.3864 82.7734 25.8482C85.2918 26.31 88.3557 26.1841 89.8668 24.127C90.5383 23.2034 91.2099 22.07 91.2099 20.9365C91.2099 18.7955 89.9087 16.7384 88.5656 15.0592C87.2225 13.38 85.4596 12.1206 83.6129 11.071C80.423 9.26587 76.8973 8.09041 73.2877 7.6706C68.7127 7.08288 63.9698 7.6706 59.6046 9.26587C56.7925 10.2734 54.1063 11.6588 51.9237 13.6738C50.6645 14.8493 49.5313 16.1927 48.44 17.4941C46.845 19.4252 44.1168 21.986 43.4033 24.4209C42.8157 26.352 45.334 29.1647 47.1808 29.6684Z" fill="#28180D"/>
<path d="M74.2114 59.2648C74.2114 59.2648 73.6657 61.3638 71.735 62.6652C70.6017 63.4209 69.0068 63.8827 67.0761 63.3369C65.4391 62.8751 64.18 61.9516 63.2146 60.8601C61.0321 58.4252 60.6543 55.4446 60.6543 55.4446C64.5997 57.6276 69.2167 58.9709 74.2114 59.2648Z" fill="#AF6C4B"/>
<path d="M92.9738 41.087C92.9738 41.087 98.8919 40.0375 98.6401 47.0482C98.3882 54.059 91.2109 52.7576 91.2109 52.7576C91.2109 52.7576 91.3788 47.6359 92.9738 41.087Z" fill="#00CC75"/>
<path d="M92.5125 47.1318C92.5125 47.1318 92.4706 47.2998 92.4286 47.6356C92.0089 49.6507 90.1621 57.3331 86.8882 59.6421L84.9575 61.0274C84.9575 61.0274 84.7476 60.3557 83.4885 60.2298C82.2293 60.1039 78.074 62.8746 78.0321 63.3783C77.9901 63.8821 79.585 65.5193 79.585 65.5193C79.585 65.5193 90.33 63.4203 94.0236 48.1394L92.5125 47.1318Z" fill="#00CC75"/>
<path d="M116.94 195.072H25.5657C23.551 195.072 21.9141 193.434 21.9141 191.419V134.578C21.9141 132.563 23.551 130.925 25.5657 130.925H116.94C118.954 130.925 120.591 132.563 120.591 134.578V191.419C120.591 193.392 118.954 195.072 116.94 195.072Z" fill="#E4F7F2"/>
<path d="M71.8187 168.75C74.8554 168.75 77.3171 166.288 77.3171 163.25C77.3171 160.213 74.8554 157.751 71.8187 157.751C68.782 157.751 66.3203 160.213 66.3203 163.25C66.3203 166.288 68.782 168.75 71.8187 168.75Z" fill="white"/>
</svg>
