<svg width="36" height="36" viewBox="0 0 36 36" fill="none" xmlns="http://www.w3.org/2000/svg">
<path d="M17.9462 0L14.852 2.23319L11.1121 1.43947L9.01343 4.64125L5.27352 5.34081L4.56052 9.10763L1.37218 11.1928L2.13901 14.9193L0 18.0673L2.13901 21.2422L1.37218 24.9686L4.56052 27.0538L5.27352 30.8206L9.01343 31.5202L11.1121 34.722L14.852 33.9283L18 36.0807L21.148 33.9283L24.8879 34.722L26.9865 31.5202L30.7264 30.8206L31.426 27.0538L34.6278 24.9686L33.861 21.2422L36 18.0673L33.861 14.9193L34.6278 11.1928L31.3991 9.04036L30.6996 5.27354L26.9597 4.574L24.861 1.3722L21.121 2.16592L17.9462 0ZM17.9462 5.0852C20.5058 5.0852 23.0079 5.84422 25.1362 7.26627C27.2644 8.68832 28.9232 10.7095 29.9028 13.0743C30.8823 15.4391 31.1386 18.0413 30.6392 20.5517C30.1399 23.0622 28.9073 25.3682 27.0973 27.1781C25.2874 28.988 22.9814 30.2206 20.471 30.7199C17.9605 31.2193 15.3584 30.963 12.9936 29.9835C10.6288 29.004 8.60759 27.3452 7.18553 25.2169C5.76348 23.0887 5.00449 20.5865 5.00449 18.0269C5.00449 14.5946 6.36797 11.3028 8.79501 8.87575C11.2221 6.44871 14.5138 5.0852 17.9462 5.0852ZM17.9462 6.20179C15.6068 6.19913 13.3193 6.8904 11.3729 8.18814C9.42646 9.48588 7.9087 11.3318 7.01163 13.4923C6.11455 15.6528 5.87844 18.0309 6.33319 20.3256C6.78794 22.6203 7.91312 24.7286 9.56636 26.3838C11.2196 28.0389 13.3266 29.1665 15.6208 29.6238C17.915 30.0812 20.2933 29.8478 22.4549 28.9532C24.6164 28.0585 26.464 26.5429 27.764 24.598C29.064 22.6531 29.7578 20.3663 29.7578 18.0269C29.7472 14.9025 28.4976 11.9099 26.2832 9.70564C24.0689 7.50138 21.0706 6.26548 17.9462 6.26906V6.20179ZM24.1345 12.3094L26.5291 14.704L25.3318 15.8744L17.5023 23.7579L16.3856 24.8744L15.2018 23.8386L10.695 19.8969L9.43051 18.7937L11.6502 16.2511L12.9148 17.3543L16.2377 20.2601L22.9641 13.5336L24.1345 12.3094Z" fill="#03CB75"/>
</svg>
