<svg width="55" height="34" viewBox="0 0 55 34" fill="none" xmlns="http://www.w3.org/2000/svg">
<g clip-path="url(#clip0_12350_32172)">
<path d="M52.0774 3.29756e-06H5.6736C4.94789 -0.000814403 4.24782 0.27587 3.70963 0.776258C3.17144 1.27665 2.83364 1.96494 2.7619 2.7072L0.0168002 30.6931C-0.0243571 31.1116 0.020285 31.5343 0.147849 31.934C0.275413 32.3337 0.483162 32.7014 0.75751 33.0136C1.03186 33.3257 1.3667 33.5753 1.74065 33.7461C2.1146 33.917 2.51925 34.0054 2.92849 34.0057H49.3379C50.0626 34.0051 50.7613 33.7278 51.2983 33.2275C51.8353 32.7272 52.1724 32.0398 52.244 31.2985L54.9891 3.31261C55.0312 2.89393 54.9871 2.47084 54.8598 2.07077C54.7326 1.6707 54.525 1.30255 54.2504 0.990227C53.9759 0.677906 53.6407 0.42838 53.2663 0.25779C52.892 0.0872005 52.4869 -0.000620271 52.0774 3.29756e-06ZM25.1164 23.9479C24.3261 24.2683 23.4821 24.4255 22.6326 24.4105C21.3374 24.4906 20.0578 24.0847 19.0317 23.2683C18.6008 22.8769 18.2598 22.3921 18.033 21.8489C17.8062 21.3057 17.6995 20.7177 17.7204 20.127H21.5489C21.5111 20.3093 21.5139 20.4981 21.5572 20.6791C21.6005 20.8601 21.6833 21.0287 21.7991 21.1722C22.0283 21.3746 22.3164 21.4929 22.6182 21.5084C22.92 21.5239 23.2184 21.4358 23.4661 21.2578C23.6718 21.0899 23.8053 20.846 23.8383 20.5782C23.8492 20.5101 23.8492 20.4407 23.8383 20.3726C23.8418 20.1945 23.8007 20.0186 23.719 19.8615C23.6372 19.7045 23.5175 19.5717 23.3715 19.4759C22.8838 19.1641 22.3707 18.8966 21.8379 18.6763C21.2533 18.4405 20.6867 18.1599 20.1431 17.8367C19.6821 17.5501 19.2908 17.1595 18.9985 16.6944C18.6653 16.1627 18.4984 15.5388 18.5206 14.9068C18.5255 14.5907 18.5553 14.2755 18.6096 13.9644C18.6992 13.4641 18.895 12.9903 19.1831 12.5766C19.4713 12.163 19.8447 11.8197 20.2766 11.5713C21.2731 10.9729 22.4123 10.6723 23.5661 10.7032C25.1664 10.7032 26.3648 11.0668 27.1612 11.794C27.5669 12.1804 27.8878 12.6513 28.1024 13.1753C28.3171 13.6992 28.4206 14.2642 28.4059 14.8325H24.5162C24.5412 14.6705 24.534 14.5049 24.4948 14.3458C24.4556 14.1868 24.3854 14.0376 24.2885 13.9073C24.1901 13.8037 24.0712 13.7231 23.9398 13.6709C23.8085 13.6187 23.6677 13.596 23.5271 13.6045C23.2542 13.5944 22.9872 13.6879 22.7771 13.8673C22.6733 13.9685 22.5929 14.0924 22.542 14.2298C22.491 14.3672 22.4707 14.5146 22.4825 14.6612C22.4824 14.8273 22.5237 14.9906 22.6025 15.1356C22.6813 15.2806 22.7949 15.4024 22.9325 15.4893C23.3928 15.784 23.8806 16.0307 24.3884 16.2261C24.9781 16.4625 25.5517 16.7392 26.1055 17.0543C26.5641 17.3314 26.9568 17.7099 27.2556 18.1623C27.5982 18.6986 27.7693 19.3316 27.7447 19.9728C27.7375 20.289 27.7059 20.6041 27.6501 20.9152C27.5404 21.5659 27.2577 22.1727 26.8333 22.6686C26.3698 23.2312 25.7808 23.6701 25.1164 23.9479ZM29.9729 25.5985H27.2835L33.9515 8.84125H36.6243L29.9729 25.5985Z" fill="#00CA75"/>
</g>
<defs>
<clipPath id="clip0_12350_32172">
<rect width="55" height="34" fill="white"/>
</clipPath>
</defs>
</svg>
