<svg width="87" height="88" viewBox="0 0 87 88" fill="none" xmlns="http://www.w3.org/2000/svg">
<path d="M87 16.7378V70.6665C87 79.8269 79.5778 87.2021 70.4644 87.2021H16.5356C7.42225 87.2021 0 79.8269 0 70.6665V16.7378C0 7.62439 7.42225 0.202148 16.5356 0.202148H70.4644C79.6247 0.202148 87 7.62439 87 16.7378Z" fill="#B6FFB6"/>
<path d="M61.8224 35.8569C54.9639 46.7084 43.5017 54.6944 36.5962 65.5459C34.2004 69.304 32.3683 73.4379 31.4758 78.1825C27.6707 75.5049 23.8656 72.8742 20.0605 70.1965C20.9531 65.264 22.8321 60.9422 25.3219 56.9962C31.7576 46.8024 42.1394 39.0983 48.5751 28.9044C51.0649 24.9584 52.9909 20.6836 53.8365 15.7041C58.2052 18.1938 62.5271 20.7306 66.8959 23.2203C66.0503 27.9649 64.2182 32.0988 61.8224 35.8569Z" fill="#00CA75"/>
<path d="M49.6543 21.3407L49.9831 20.4951L51.6273 20.683L60.3179 26.1792L59.4254 27.4946L49.6543 21.3407Z" fill="#B6FFB6"/>
<path d="M34.0566 40.3662L34.3385 39.4736L35.9827 39.7085L44.7202 45.1578L43.7807 46.4731L34.0566 40.3662Z" fill="#B6FFB6"/>
<path d="M19.873 61.2705L20.2019 60.3779L21.8461 60.6128L30.5836 66.109L29.6441 67.4244L19.873 61.2705Z" fill="#B6FFB6"/>
<path d="M42.1855 23.9248L42.5144 23.0322L44.1585 23.2671L52.8961 28.7164L51.9566 30.0317L42.1855 23.9248Z" fill="#B6FFB6"/>
<path d="M38.7539 28.4335L39.0827 27.5879L40.6799 27.8228L49.4175 33.272L48.478 34.5874L38.7539 28.4335Z" fill="#B6FFB6"/>
<path d="M35.2305 33.6483L35.5593 32.8027L37.2035 32.9906L45.9411 38.4869L45.0015 39.8022L35.2305 33.6483Z" fill="#B6FFB6"/>
<path d="M25.5566 42.2919L25.8385 41.4463L27.4827 41.6342L36.2202 47.1304L35.2807 48.4457L25.5566 42.2919Z" fill="#B6FFB6"/>
<path d="M22.2695 47.4121L22.5984 46.5195L24.2425 46.7544L32.9801 52.2037L32.0406 53.566L22.2695 47.4121Z" fill="#B6FFB6"/>
<path d="M18.6504 52.7685L18.9792 51.876L20.6234 52.1109L29.361 57.6071L28.4215 58.9224L18.6504 52.7685Z" fill="#B6FFB6"/>
</svg>
