<svg width="50" height="50" viewBox="0 0 50 50" fill="none" xmlns="http://www.w3.org/2000/svg">
<g clip-path="url(#clip0_12350_32153)">
<path d="M43.6084 30.2236C43.3752 31.1143 42.9262 31.9321 42.3019 32.6032C41.6776 33.2743 40.8977 33.7774 40.0328 34.0671H39.9657C39.6187 34.1879 39.2575 34.2623 38.8914 34.2882C38.761 34.3083 38.629 34.3164 38.4971 34.3125C38.4178 34.3352 38.3352 34.3439 38.2529 34.3383C38.1779 34.3383 38.1029 34.3125 38.0342 34.3125C37.5945 34.2861 37.1589 34.2119 36.7349 34.0913C36.6343 34.0671 36.5401 34.0413 36.4412 34.0154C35.9198 33.8552 35.4306 33.6027 34.9965 33.2697C34.2852 32.7472 33.7061 32.062 33.3066 31.27C32.9071 30.478 32.6985 29.6017 32.6979 28.7126C32.7023 27.8554 32.8942 27.0097 33.2598 26.2363H26.4916V34.0413C26.4941 34.398 26.3991 34.7485 26.2172 35.0541C26.0352 35.3598 25.7733 35.6087 25.4604 35.7734C25.0549 35.9666 24.5978 36.0199 24.1594 35.9251C23.7645 35.9134 23.3817 35.7837 23.0596 35.5522C22.4977 35.1277 21.7602 35.0082 21.0786 35.0582C20.2859 35.1877 19.5736 35.6228 19.0913 36.2722C18.4783 37.0874 18.3283 38.1302 18.6475 39.1778C18.807 39.6549 19.0795 40.0852 19.4412 40.4313C19.8029 40.7774 20.2428 41.0287 20.7227 41.1634C20.8969 41.2149 21.0775 41.2404 21.259 41.2392C21.9008 41.2542 22.5295 41.0538 23.0468 40.6694C23.3482 40.4233 23.7108 40.2659 24.0948 40.2144C24.4788 40.1628 24.8694 40.2191 25.2239 40.3772C25.5783 40.5352 25.8829 40.7889 26.1043 41.1104C26.3256 41.4318 26.4552 41.8087 26.4788 42.1997V50.0046H45.0977C45.7376 50.0049 46.3712 49.8776 46.9623 49.6301C47.5535 49.3826 48.0907 49.0197 48.5431 48.5621C48.9955 48.1046 49.3544 47.5614 49.5991 46.9636C49.8439 46.3657 49.9698 45.725 49.9696 45.078V26.2444H43.2397C43.8372 27.4813 43.9683 28.896 43.6084 30.2236Z" fill="#009175"/>
<path d="M26.5059 6.61684C27.2996 6.33489 28.1431 6.22489 28.9817 6.29399C29.4758 6.28877 29.9688 6.34296 30.4502 6.45541C31.318 6.69335 32.1155 7.14134 32.7738 7.76071C33.4321 8.38008 33.9314 9.15219 34.2286 10.0104C34.5257 10.8685 34.6118 11.787 34.4795 12.6863C34.3471 13.5857 34.0002 14.4389 33.4688 15.1724C32.8778 15.9604 32.0969 16.5819 31.2006 16.9776C30.3044 17.3732 29.3227 17.5298 28.3496 17.4324C27.7253 17.4339 27.1049 17.3336 26.5122 17.1353V23.7538H34.2318C34.588 23.7521 34.9375 23.8509 35.2412 24.0391C35.5449 24.2272 35.7907 24.4972 35.951 24.8188C36.1114 25.1404 36.1799 25.5008 36.1489 25.8596C36.1178 26.2184 35.9885 26.5614 35.7754 26.8499C35.3689 27.3911 35.1531 28.0542 35.1624 28.7338C35.1617 29.2274 35.2771 29.7141 35.4992 30.1536C35.7212 30.5932 36.0435 30.973 36.4395 31.2617C36.8436 31.5603 37.3125 31.7569 37.8071 31.835C38.3016 31.9131 38.8075 31.8704 39.2824 31.7105C39.7343 31.5406 40.1417 31.2682 40.4731 30.9142C40.8045 30.5601 41.0512 30.1339 41.1941 29.6683C41.3371 29.2027 41.3725 28.7101 41.2976 28.2285C41.2227 27.7469 41.0395 27.2891 40.7622 26.8903C40.7432 26.86 40.7348 26.8242 40.7382 26.7886C40.613 26.5996 40.5217 26.3898 40.4684 26.1687C40.4405 26.0897 40.4239 26.0071 40.419 25.9233C40.3973 25.6817 40.414 25.4381 40.4684 25.2018C40.494 25.1517 40.4684 25.1017 40.494 25.0759C40.494 25.0258 40.5435 25 40.569 24.9499C40.5735 24.8961 40.5904 24.8442 40.6185 24.7982C40.7016 24.6271 40.8091 24.4694 40.9377 24.3301C40.9872 24.3043 41.0128 24.28 41.0623 24.2542C41.2591 24.0708 41.4942 23.9345 41.7502 23.8555V23.8232C41.8079 23.8298 41.8663 23.8209 41.9195 23.7974C42.0148 23.7681 42.1135 23.7513 42.2132 23.7473H50.0062V4.9267C50.0062 3.62005 49.4929 2.36694 48.5792 1.443C47.6656 0.519061 46.4264 0 45.1343 0H26.5059V6.61684Z" fill="#00CA75"/>
<path d="M6.4186 19.7691C6.65053 18.882 7.09614 18.0668 7.71564 17.3964C8.33513 16.7259 9.10921 16.2212 9.96871 15.9271C10.4641 15.7856 10.9741 15.7027 11.4884 15.6802C11.7652 15.6625 12.0431 15.6712 12.3184 15.706H12.6121C13.9583 15.8641 15.2002 16.5164 16.1023 17.5391C17.0044 18.5618 17.504 19.8837 17.5063 21.2542C17.5009 22.123 17.3 22.9792 16.9189 23.7579H23.4811V15.9513C23.4875 15.5933 23.589 15.2436 23.7749 14.9389C23.9608 14.6342 24.2243 14.3856 24.5379 14.2192C24.9512 14.0214 25.4202 13.9768 25.8628 14.0933C26.3233 14.047 26.7849 14.1709 27.1621 14.442C27.6506 14.8149 28.2875 14.9263 28.95 14.9263C29.7336 14.7897 30.4359 14.3554 30.9134 13.7124C31.5247 12.8713 31.6684 11.8544 31.3571 10.8067C31.1937 10.3321 30.9199 9.9041 30.5588 9.55884C30.1976 9.21358 29.7597 8.96114 29.282 8.82277C29.1215 8.78409 28.9581 8.75872 28.7935 8.74691C28.2042 8.7773 27.6352 8.97416 27.151 9.31513C26.7669 9.59114 26.2923 9.70678 25.8261 9.63798C25.3968 9.75415 24.9399 9.69984 24.549 9.48623C24.2317 9.33155 23.9641 9.08928 23.7771 8.78736C23.5901 8.48544 23.4914 8.13621 23.4923 7.77997V-0.0136719H4.87182C3.57973 -0.0136719 2.34057 0.505389 1.42692 1.42933C0.513279 2.35326 0 3.6064 0 4.91304V23.7579H6.78734C6.17716 22.5212 6.04566 21.0987 6.4186 19.7691Z" fill="#A4FCA4"/>
<path d="M21.0183 43.6997C20.5888 43.677 20.1618 43.6198 19.7413 43.5285C18.873 43.2913 18.075 42.8436 17.4163 42.2244C16.7575 41.6051 16.2579 40.8328 15.9607 39.9744C15.6634 39.116 15.5775 38.1972 15.7102 37.2977C15.843 36.3981 16.1906 35.5448 16.7227 34.8115C17.8976 33.1747 19.9281 32.3579 21.8659 32.5516C22.4889 32.5753 23.1028 32.7103 23.6793 32.9503V26.2447H15.9996C15.9246 26.2447 15.8496 26.2189 15.8049 26.2189H15.5862C15.4872 26.193 15.3931 26.193 15.2925 26.1688C14.9907 26.0884 14.7137 25.9328 14.4867 25.7162C14.2597 25.4997 14.09 25.229 13.9931 24.9291C13.8883 24.623 13.8602 24.2953 13.9115 23.9755C13.9627 23.6557 14.0917 23.3538 14.2868 23.0969C14.6662 22.5719 14.8718 21.9391 14.8743 21.2889C14.8732 20.7894 14.7547 20.2973 14.5285 19.8533C14.3023 19.4093 13.9749 19.026 13.5733 18.7352C13.1803 18.4534 12.7261 18.2714 12.2489 18.2045C11.7718 18.1377 11.2857 18.1878 10.8318 18.3509C10.3778 18.5139 9.96935 18.785 9.64081 19.1413C9.31227 19.4976 9.07331 19.9286 8.94412 20.3979C8.8186 20.8647 8.7995 21.3542 8.88826 21.8296C8.97701 22.3049 9.17132 22.7537 9.45652 23.1421C9.66376 23.4378 9.78877 23.7842 9.81853 24.1454C9.84829 24.5065 9.78171 24.8691 9.62573 25.1954C9.46224 25.5115 9.21603 25.776 8.91398 25.9602C8.61192 26.1444 8.26564 26.2411 7.91293 26.2398H0.19336V45.0669C0.19315 45.714 0.319021 46.3547 0.563779 46.9525C0.808536 47.5504 1.16738 48.0936 1.61982 48.5511C2.07225 49.0086 2.60939 49.3715 3.20057 49.619C3.79174 49.8666 4.42534 49.9939 5.06518 49.9936H23.6809V43.3074C22.8398 43.6615 21.9243 43.7964 21.0183 43.6997Z" fill="#056857"/>
</g>
<defs>
<clipPath id="clip0_12350_32153">
<rect width="50" height="50" fill="white"/>
</clipPath>
</defs>
</svg>
