<svg width="40" height="39" viewBox="0 0 40 39" fill="none" xmlns="http://www.w3.org/2000/svg">
<g clip-path="url(#clip0_11125_29476)">
<path d="M7.54297 24.3626C10.2645 24.3626 12.4707 22.1325 12.4707 19.3815C12.4707 16.6305 10.2645 14.4004 7.54297 14.4004C4.82146 14.4004 2.61523 16.6305 2.61523 19.3815C2.61523 22.1325 4.82146 24.3626 7.54297 24.3626Z" fill="#00CA75"/>
<path d="M9.40173 25.6846H5.74034C4.45884 25.6804 3.22113 26.1556 2.26558 27.0187C1.31002 27.8819 0.704206 29.0719 0.564845 30.3596L0.0142687 34.6589C-0.0192881 34.9284 0.0483291 35.2008 0.20378 35.4223C0.359231 35.6439 0.591216 35.7984 0.853912 35.8555C3.05387 36.3198 5.29614 36.5484 7.54352 36.5373C8.52081 36.5373 9.44304 36.5373 10.2964 36.3981L10.7644 32.5719C10.9888 30.6602 11.9358 28.9103 13.4072 27.6882C12.9349 27.0676 12.3284 26.5644 11.6342 26.2171C10.94 25.8699 10.1763 25.6877 9.40173 25.6846Z" fill="#00CA75"/>
<path d="M32.457 24.3626C35.1785 24.3626 37.3848 22.1325 37.3848 19.3815C37.3848 16.6305 35.1785 14.4004 32.457 14.4004C29.7355 14.4004 27.5293 16.6305 27.5293 19.3815C27.5293 22.1325 29.7355 24.3626 32.457 24.3626Z" fill="#00CA75"/>
<path d="M39.4897 30.3597C39.3388 29.0768 38.7296 27.8938 37.7765 27.033C36.8235 26.1721 35.5923 25.6927 34.3142 25.6848H30.6528C29.8589 25.6781 29.074 25.8552 28.3583 26.2025C27.6425 26.5498 27.0149 27.058 26.5234 27.6883C28.0218 28.8833 28.9917 30.6289 29.2213 32.5442L29.6755 36.3704C30.5702 36.4539 31.5338 36.5096 32.4285 36.5096C34.675 36.5028 36.9154 36.2745 39.1181 35.8278C39.3788 35.7653 39.6086 35.61 39.7653 35.3903C39.9221 35.1705 39.9952 34.9011 39.9715 34.6312L39.4897 30.3597Z" fill="#00CA75"/>
<path d="M21.8172 28.1885H18.1558C16.8786 28.1835 15.6444 28.6548 14.6895 29.5123C13.7345 30.3697 13.126 31.553 12.9803 32.8357L12.416 37.1211C12.3756 37.3916 12.4406 37.6674 12.5971 37.8905C12.7537 38.1136 12.9897 38.2667 13.2556 38.3177C15.4545 38.7889 17.6975 39.0175 19.9452 38.9994C22.1921 38.9996 24.4332 38.7712 26.6348 38.3177C26.8956 38.2552 27.1254 38.0999 27.2821 37.8801C27.4388 37.6604 27.512 37.3909 27.4883 37.1211L26.9789 32.8357C26.8138 31.5637 26.2015 30.3942 25.2537 29.541C24.306 28.6877 23.0862 28.2077 21.8172 28.1885Z" fill="#00CA75"/>
<path d="M20 26.8811C22.7215 26.8811 24.9277 24.651 24.9277 21.9C24.9277 19.1491 22.7215 16.9189 20 16.9189C17.2785 16.9189 15.0723 19.1491 15.0723 21.9C15.0723 24.651 17.2785 26.8811 20 26.8811Z" fill="#00CA75"/>
<path d="M15.4176 8.89083C15.5628 9.02295 15.6701 9.19216 15.7282 9.38068C15.7863 9.56921 15.7931 9.77008 15.7479 9.96218L14.9496 13.2736C14.9051 13.4814 14.922 13.6978 14.9981 13.896C15.0742 14.0942 15.2062 14.2654 15.3777 14.3884C15.5492 14.5114 15.7527 14.5807 15.9629 14.5879C16.1731 14.595 16.3807 14.5396 16.56 14.4285L19.4644 12.6336C19.6277 12.5313 19.816 12.4772 20.0081 12.4772C20.2002 12.4772 20.3885 12.5313 20.5518 12.6336L23.4286 14.3728C23.6077 14.4796 23.8136 14.5315 24.0213 14.5222C24.229 14.5129 24.4296 14.4429 24.5987 14.3206C24.7678 14.1983 24.8981 14.029 24.9738 13.8333C25.0496 13.6375 25.0674 13.4238 25.0253 13.218L24.2269 9.90653C24.1833 9.71318 24.1923 9.51152 24.2529 9.32291C24.3135 9.1343 24.4234 8.96577 24.571 8.83517L27.1313 6.6229C27.2905 6.48788 27.4063 6.30799 27.464 6.10616C27.5216 5.90433 27.5185 5.68971 27.455 5.48968C27.3915 5.28965 27.2705 5.11327 27.1074 4.98304C26.9444 4.85281 26.7466 4.77463 26.5394 4.75847L23.1808 4.45237C22.9894 4.43395 22.806 4.36516 22.6491 4.25288C22.4921 4.14059 22.367 3.9887 22.2861 3.81234L20.9923 0.667855C20.9107 0.470078 20.7731 0.301119 20.5967 0.18227C20.4204 0.0634204 20.2132 0 20.0012 0C19.7892 0 19.582 0.0634204 19.4056 0.18227C19.2293 0.301119 19.0917 0.470078 19.0101 0.667855L17.7025 3.7706C17.6331 3.9523 17.5128 4.10961 17.3564 4.22328C17.1999 4.33695 17.0141 4.40206 16.8216 4.41063L13.4492 4.71673C13.2432 4.73532 13.0472 4.81526 12.886 4.94644C12.7249 5.07762 12.6059 5.25416 12.544 5.45372C12.4821 5.65328 12.4802 5.86691 12.5384 6.0676C12.5966 6.26828 12.7124 6.447 12.8711 6.58116L15.4176 8.89083Z" fill="#00CA75"/>
</g>
<defs>
<clipPath id="clip0_11125_29476">
<rect width="40" height="39" fill="white"/>
</clipPath>
</defs>
</svg>
