<svg width="16" height="19" viewBox="0 0 16 19" fill="none" xmlns="http://www.w3.org/2000/svg">
<g clip-path="url(#clip0_16999_42917)">
<path d="M10.254 7.34102C9.07293 7.34102 8.11678 6.37475 8.11678 5.18122V0H1.70846C0.765246 0 0 0.773341 0 1.72816V17.2718C0 18.2267 0.765246 19 1.70846 19H13.6725C14.6157 19 15.381 18.2267 15.381 17.2718V7.34102H10.254ZM12.3912 15.5453H2.99142C2.75521 15.5453 2.5643 15.3524 2.5643 15.1137C2.5643 14.875 2.75521 14.682 2.99142 14.682H12.3912C12.6274 14.682 12.8183 14.875 12.8183 15.1137C12.8183 15.3524 12.6274 15.5453 12.3912 15.5453ZM12.3912 12.9539H2.99142C2.75521 12.9539 2.5643 12.761 2.5643 12.5222C2.5643 12.2835 2.75521 12.0906 2.99142 12.0906H12.3912C12.6274 12.0906 12.8183 12.2835 12.8183 12.5222C12.8183 12.761 12.6274 12.9539 12.3912 12.9539ZM12.3912 10.3624H2.99142C2.75521 10.3624 2.5643 10.1695 2.5643 9.93082C2.5643 9.69211 2.75521 9.49918 2.99142 9.49918H12.3912C12.6274 9.49918 12.8183 9.69211 12.8183 9.93082C12.8183 10.1695 12.6274 10.3624 12.3912 10.3624Z" fill="#00CA75"/>
<path d="M10.2537 6.47779L14.5992 6.47452L8.9707 0.788086V5.18125C8.97232 5.8941 9.54828 6.47452 10.2537 6.47779Z" fill="#00CA75"/>
</g>
<defs>
<clipPath id="clip0_16999_42917">
<rect width="15.381" height="19" fill="white"/>
</clipPath>
</defs>
</svg>
