<svg width="88" height="88" viewBox="0 0 88 88" fill="none" xmlns="http://www.w3.org/2000/svg">
<path d="M71.2743 88H16.7257C7.50756 88 0 80.54 0 71.2743V16.7257C0 7.50756 7.50756 0 16.7257 0H71.2743C80.54 0 88 7.50756 88 16.7257V71.2743C88 80.54 80.54 88 71.2743 88Z" fill="#B6FFB6"/>
<path d="M43.8101 35.7321C43.43 36.2073 42.9073 36.5399 42.2421 36.825C41.5769 37.1101 40.8641 37.2051 40.0088 37.2051C38.6309 37.2051 37.538 36.8725 36.7777 36.2073C36.0175 35.5421 35.5898 34.6393 35.5898 33.4513H39.011C38.9635 33.879 39.0585 34.1641 39.2486 34.3542C39.4387 34.5442 39.7238 34.6393 40.0564 34.6393C40.3415 34.6393 40.579 34.5917 40.7216 34.4492C40.9117 34.3066 41.0067 34.1166 41.0542 33.879C41.0542 33.8315 41.0542 33.784 41.0542 33.6889C41.0542 33.3563 40.9117 33.1187 40.6266 32.9287C40.3415 32.7386 39.8663 32.501 39.2486 32.2159C38.6309 31.9783 38.1082 31.7408 37.7281 31.5032C37.3479 31.2656 36.9678 30.933 36.6827 30.5053C36.3976 30.0777 36.2551 29.555 36.2551 28.9373C36.2551 28.6997 36.3026 28.4621 36.3501 28.1295C36.4927 27.2267 37.0153 26.5615 37.8231 26.0388C38.6309 25.5161 39.6287 25.2786 40.7691 25.2786C42.1946 25.2786 43.2875 25.6112 44.0002 26.2289C44.713 26.8466 45.0931 27.7494 45.1406 28.8898H41.6719C41.6719 28.5097 41.6244 28.2721 41.4819 28.082C41.3393 27.892 41.1017 27.7969 40.8166 27.7969C40.5315 27.7969 40.2939 27.892 40.1514 28.0345C39.9613 28.1771 39.8663 28.4146 39.8663 28.7472C39.8663 29.0323 40.0088 29.2699 40.2464 29.46C40.5315 29.6501 40.9592 29.8401 41.5769 30.1252C42.1946 30.3628 42.7173 30.6004 43.0974 30.838C43.4775 31.0755 43.8577 31.4082 44.1428 31.7883C44.4279 32.2159 44.5704 32.7386 44.5704 33.3563C44.5704 33.5939 44.5229 33.8315 44.4754 34.1641C44.4279 34.7818 44.1903 35.257 43.8101 35.7321Z" fill="#00CA75"/>
<path d="M52.1245 24.1855L45.4722 40.2935H43.334L50.0338 24.1855H52.1245Z" fill="#00CA75"/>
<path d="M45.4722 40.2937H43.334V53.0756H45.4722V40.2937Z" fill="#00CA75"/>
<path d="M36.3494 48.5139C38.5827 49.5593 41.1485 49.4167 43.2392 48.1813C42.5265 44.1424 38.6777 41.434 34.6388 42.0992C33.7835 42.2418 32.9282 42.5744 32.168 43.002C32.5956 45.4253 34.1637 47.4685 36.3494 48.5139Z" fill="#00CA75"/>
<path d="M49.7498 42.7169C47.564 43.7623 45.996 45.8055 45.5684 48.1813C49.1321 50.272 53.6936 49.0366 55.7368 45.5204C56.1645 44.7601 56.4971 43.9048 56.6396 43.0495C54.5014 41.8141 51.9355 41.7191 49.7498 42.7169Z" fill="#00CA75"/>
<path d="M62.7212 61.6284C62.3885 61.6284 62.0559 61.4384 61.8659 61.1533C55.1661 51.5075 41.9091 49.0842 32.2633 55.784C29.1747 57.9222 26.7039 60.8207 25.1358 64.2418C24.9458 64.6695 24.5181 64.9071 24.043 64.8596C23.7104 64.812 23.3777 64.812 23.0926 64.812C18.4836 64.812 15.1574 67.3779 14.6348 71.2267H74.1726C73.6499 65.7148 68.9933 61.7235 62.7212 61.6284Z" fill="#00CA75"/>
</svg>
