<svg width="241" height="132" viewBox="0 0 241 132" fill="none" xmlns="http://www.w3.org/2000/svg">
<g clip-path="url(#clip0)">
<path d="M231.269 132H140.731C135.341 132 131 127.667 131 122.333V9.71428C131 4.33333 135.341 0 140.731 0H231.317C236.659 0 241.048 4.33333 241.048 9.71428V122.333C241 127.667 236.659 132 231.269 132Z" fill="#EDFFF9"/>
<path d="M190.532 97.7622H162.913C162.388 97.7622 161.959 97.3336 161.959 96.8098C161.959 96.286 162.388 95.8574 162.913 95.8574H190.532C191.057 95.8574 191.486 96.286 191.486 96.8098C191.486 97.3336 191.057 97.7622 190.532 97.7622Z" fill="#00CC75"/>
<path d="M209.088 106H162.913C162.388 106 161.959 105.571 161.959 105.048C161.959 104.524 162.388 104.095 162.913 104.095H209.088C209.613 104.095 210.042 104.524 210.042 105.048C210.042 105.571 209.613 106 209.088 106Z" fill="#00CC75"/>
<path d="M171.689 51H200.835V75.4286C200.835 76.0476 200.31 76.5714 199.69 76.5714H172.834C172.166 76.5714 171.689 76.0476 171.689 75.4286V51Z" fill="#B6FFB6"/>
<path d="M203.84 47.8096H168.207V50.5239H203.84V47.8096Z" fill="#B6FFB6"/>
<path d="M203.84 47.8096H168.207V50.5239H203.84V47.8096Z" fill="#00CA75"/>
<path d="M200.835 51V75.4286C200.835 76.0476 200.31 76.5714 199.69 76.5714H172.834C172.166 76.5714 171.689 76.0476 171.689 75.4286V51H200.835Z" fill="#00CA75"/>
<path d="M185.38 57.8571V76.619H175.172V57.8571C175.172 57.381 175.553 57 176.031 57H184.474C184.998 57 185.38 57.381 185.38 57.8571Z" fill="#B6FFB6"/>
<path d="M196.494 66.9524H189.959C189.1 66.9524 188.385 66.2381 188.385 65.381V58.5714C188.385 57.7143 189.1 57 189.959 57H196.494C197.353 57 198.068 57.7143 198.068 58.5714V65.3333C198.068 66.2381 197.353 66.9524 196.494 66.9524Z" fill="#B6FFB6"/>
</g>
<g clip-path="url(#clip1)">
<path d="M100.269 132H9.73114C4.34085 132 0 127.667 0 122.333V9.71428C0 4.33333 4.34085 0 9.73114 0H100.317C105.659 0 110.048 4.33333 110.048 9.71428V122.333C110 127.667 105.659 132 100.269 132Z" fill="#EDFFF9"/>
<path d="M59.5323 106H31.913C31.3883 106 30.959 105.571 30.959 105.048C30.959 104.524 31.3883 104.095 31.913 104.095H59.5323C60.057 104.095 60.4863 104.524 60.4863 105.048C60.4863 105.571 60.057 106 59.5323 106Z" fill="#00CC75"/>
<path d="M78.0882 97.7622H31.913C31.3883 97.7622 30.959 97.3336 30.959 96.8098C30.959 96.286 31.3883 95.8574 31.913 95.8574H78.0882C78.6129 95.8574 79.0422 96.286 79.0422 96.8098C79.0422 97.3336 78.6129 97.7622 78.0882 97.7622Z" fill="#00CC75"/>
<path d="M65.732 72.0001L60.3417 79.8573H51.1353L44.457 71.6192L48.7025 66.2382L50.4674 64.0001L52.1847 61.4287L56.1439 61.7144L59.8647 64.0478L61.5819 66.3811L65.732 72.0001Z" fill="white"/>
<path d="M44.6473 79.8571H38.0645C38.5415 77.2381 39.1139 74.3333 39.5432 72C40.7357 66.1428 42.6915 66.0952 42.7392 66.0952V66.1428L44.218 76.7619L44.6473 79.8571Z" fill="#B3FFB3"/>
<path d="M45.7455 66.5714L46.7949 64.8095L50.6111 63.1429L59.1497 63L64.0152 65.0952L63.6813 77.5238H45.5547L45.7455 66.5714Z" fill="#D3966C"/>
<path d="M59.5296 63.7144C58.4324 68.0477 55.1887 72.7144 55.1887 72.7144C52.3266 69.9049 50.6094 63.143 50.6094 63.143L51.1818 56.0001C51.7065 56.4287 51.8973 56.7144 52.3743 57.0001C54.0916 58.0477 56.2382 57.9525 57.86 56.8573C58.3847 56.5239 58.4324 56.0477 58.9572 55.5239L59.5296 63.7144Z" fill="#D3966C"/>
<path d="M59.5296 63.7144C58.4324 68.0477 55.1887 72.7144 55.1887 72.7144C52.3266 69.9049 50.6094 63.143 50.6094 63.143L51.1341 56.9049L51.1818 56.0477C51.7065 56.4763 51.8973 56.762 52.3743 57.0477C54.0916 58.0954 56.2382 58.0001 57.86 56.9049C58.3847 56.5715 58.4324 56.0954 58.9572 55.5239L59.2911 60.2858L59.5296 63.7144Z" fill="#D3966C"/>
<g opacity="0.03">
<g opacity="0.03">
<path opacity="0.03" d="M45.5548 76.1904L45.0301 79.8571H43.4082L44.2191 76.7619L44.887 74.1904L45.5548 76.1904Z" fill="#1B3F31"/>
</g>
</g>
<path d="M71.9319 79.8572H65.4922L65.8738 77.1906L67.3526 66.5239C67.3526 66.5239 67.5911 66.5239 67.925 66.762C68.5928 67.1906 69.7376 68.5239 70.5486 72.4287C70.9302 74.6192 71.4549 77.3334 71.9319 79.8572Z" fill="#B3FFB3"/>
<g opacity="0.03">
<g opacity="0.03">
<path opacity="0.03" d="M66.5425 79.8572H64.9684L64.5391 76.6191L65.2069 74.6191L65.827 77.1906L66.5425 79.8572Z" fill="#1B3F31"/>
</g>
</g>
<path d="M69.6898 73L67.7817 79.8096H43.1677L41.832 73.6191L42.7384 66.0953V66.0477L48.0332 63.9524C48.0332 63.9524 48.0332 64.0477 48.081 64.1905C48.1764 64.5715 48.3672 65.2858 48.6534 66.1905C49.7028 69.4762 52.1356 75.1429 55.9517 74.9048C58.9569 74.5239 60.7219 69.4762 61.5328 66.2858C61.7713 65.3334 61.9144 64.6191 62.0098 64.1905C62.0575 63.9524 62.0575 63.8096 62.0575 63.8096L67.8294 66.6191V66.6667L69.6898 73Z" fill="#B3FFB3"/>
<path d="M62.6775 37.3811C62.9637 38.3811 62.916 39.4763 63.4884 40.3335C63.9177 40.9049 64.6332 41.2382 65.1579 41.7621C66.2551 42.8097 66.4936 44.524 66.2551 46.0002C66.0643 47.0954 65.7304 48.3811 66.4459 49.2859C66.6367 49.5716 66.9229 49.7621 67.2091 49.9525C68.2108 50.8097 68.7833 52.143 68.9741 53.4763C69.2126 54.8097 69.1172 56.143 69.0218 57.4763C69.0218 57.6192 69.0218 57.8097 68.9264 57.9525C68.7833 58.2383 68.4017 58.3335 68.0677 58.3811C65.1579 58.7144 61.9142 60.4763 58.9567 60.2383C58.8136 60.2383 58.5274 57.7621 58.4797 57.524C57.7165 54.8097 57.8119 52.0002 57.5734 49.1906C57.3826 46.7144 56.9056 44.2859 56.8102 41.8573C56.7148 39.8573 56.8579 37.8573 57.478 35.9525C57.7165 35.1906 57.9073 34.6192 58.7659 34.5716C59.5768 34.524 60.3878 34.8097 61.0556 35.2382C61.7711 35.7621 62.3912 36.4763 62.6775 37.3811Z" fill="#351809"/>
<g opacity="0.41">
<g opacity="0.41">
<path opacity="0.41" d="M59.2906 60.2382C57.9073 61.0953 56.1423 61.143 54.759 60.2858C54.3774 60.0477 53.948 59.8096 53.471 59.4287C52.7078 58.8573 51.8969 58.0477 51.0859 56.9049L51.1336 56.0477C51.6584 56.4763 51.8492 56.762 52.3262 57.0477C54.0434 58.0954 56.19 58.0001 57.8119 56.9049C58.3366 56.5715 58.3843 56.0954 58.909 55.5239L59.2906 60.2382Z" fill="#AF6C4B"/>
</g>
</g>
<path d="M62.6775 37.3811C62.9637 38.3811 62.916 39.4763 63.4884 40.3335C63.9177 40.9049 64.6332 41.2382 65.1579 41.7621C66.2551 42.8097 66.4936 44.524 66.2551 46.0002C66.0643 47.0954 65.7304 48.3811 66.4459 49.2859C66.6367 49.5716 66.9229 49.7621 67.2091 49.9525C68.2108 50.8097 68.7833 52.143 68.9741 53.4763C69.2126 54.8097 69.1172 56.143 69.0218 57.4763C69.0218 57.6192 69.0218 57.8097 68.9264 57.9525C68.7833 58.2383 68.4017 58.3335 68.0677 58.3811C65.1579 58.7144 61.9142 60.4763 58.9567 60.2383C58.8136 60.2383 58.5274 57.7621 58.4797 57.524C57.7165 54.8097 57.8119 52.0002 57.5734 49.1906C57.3826 46.7144 56.9056 44.2859 56.8102 41.8573C56.7148 39.8573 56.8579 37.8573 57.478 35.9525C57.7165 35.1906 57.9073 34.6192 58.7659 34.5716C59.5768 34.524 60.3878 34.8097 61.0556 35.2382C61.7711 35.7621 62.3912 36.4763 62.6775 37.3811Z" fill="#351809"/>
<path d="M46.9854 37.3808C46.6992 38.3808 46.7469 39.4761 46.1744 40.3332C45.7451 40.9047 45.0296 41.238 44.5049 41.7618C43.4077 42.8094 43.1692 44.5237 43.4077 45.9999C43.5986 47.0951 43.9325 48.3809 43.2169 49.2856C43.0261 49.5713 42.7399 49.7618 42.4537 49.9523C41.452 50.8094 40.8796 52.1428 40.6888 53.4761C40.4502 54.8094 40.5456 56.1428 40.6411 57.4761C40.6411 57.6189 40.6411 57.8094 40.7365 57.9523C40.8796 58.238 41.2612 58.3332 41.5951 58.3809C44.5049 58.7142 47.8917 59.857 50.8015 59.6189C50.9446 59.6189 51.0877 57.8094 51.1831 57.5713C51.9463 54.857 51.8509 52.0475 52.0894 49.238C52.2802 46.7618 52.7573 44.3332 52.8527 41.9047C52.9481 39.9047 52.805 37.9047 52.1848 35.9999C51.9463 35.238 51.7555 34.6666 50.8969 34.6189C50.086 34.5713 49.275 34.857 48.6072 35.2856C47.844 35.7618 47.2239 36.4761 46.9854 37.3808Z" fill="#351809"/>
<path d="M46.9355 49.0477C47.8418 53.8096 49.7976 56.0477 51.4195 57.2858C51.8965 57.6191 52.3258 57.9048 52.7074 58.1429C54.1385 59.0001 55.9988 58.9524 57.3822 58.0001C57.8115 57.7143 58.2885 57.3334 58.7655 56.8572C60.1489 55.4286 61.5799 53.0953 62.5339 49.2858L63.3926 45.2382C63.3926 45.2382 63.2018 38.381 58.4793 36.9524C53.7568 35.5239 50.5608 37.0477 50.5608 37.0477C50.5608 37.0477 45.3614 40.8096 46.9355 49.0477Z" fill="#D3966C"/>
<path d="M50.991 47.0002C51.2017 47.0002 51.3726 46.8296 51.3726 46.6192C51.3726 46.4088 51.2017 46.2383 50.991 46.2383C50.7802 46.2383 50.6094 46.4088 50.6094 46.6192C50.6094 46.8296 50.7802 47.0002 50.991 47.0002Z" fill="#0B0C0C"/>
<path d="M58.4812 47.0002C58.692 47.0002 58.8628 46.8296 58.8628 46.6192C58.8628 46.4088 58.692 46.2383 58.4812 46.2383C58.2705 46.2383 58.0996 46.4088 58.0996 46.6192C58.0996 46.8296 58.2705 47.0002 58.4812 47.0002Z" fill="#0B0C0C"/>
<g opacity="0.57">
<g opacity="0.57">
<path opacity="0.57" d="M53.377 54.4288C53.377 54.4288 53.6632 55.3812 55.3804 55.1907C57.0977 55.0003 58.0994 52.9526 58.0994 52.9526L53.377 54.4288Z" fill="#AF6C4B"/>
</g>
</g>
<path d="M53.9495 54.619C53.3294 54.619 52.9478 54.5237 52.9001 54.5237C52.8524 54.5237 52.8047 54.4285 52.8047 54.3809C52.8047 54.3332 52.9001 54.2856 52.9478 54.2856C52.9955 54.2856 55.6191 54.9523 58.3858 52.6666C58.4335 52.619 58.4812 52.619 58.5289 52.6666C58.5766 52.7142 58.5766 52.7618 58.5289 52.8094C56.7639 54.3332 54.999 54.619 53.9495 54.619Z" fill="#AF6C4B"/>
<path d="M58.7677 53.0954C58.72 53.0954 58.6723 53.0478 58.6723 53.0002C58.6246 52.8097 58.3384 52.5716 58.243 52.524C58.1953 52.4764 58.1953 52.4287 58.1953 52.3811C58.243 52.3335 58.2907 52.3335 58.3384 52.3335C58.3384 52.3335 58.7677 52.6192 58.8631 52.9049C58.8631 53.0002 58.8154 53.0954 58.7677 53.0954Z" fill="#CE875F"/>
<path d="M57.7179 44.1427C57.5271 44.2379 57.2885 44.3808 57.3362 44.5236C57.3362 44.6189 57.4794 44.6665 57.6225 44.6665C57.7656 44.6665 57.861 44.6189 58.0041 44.6189C59.0058 44.4284 59.9598 44.6665 60.7708 45.1903C60.8185 45.2379 60.8662 45.2379 60.9139 45.2379C60.9616 45.2379 60.9616 45.1903 60.9616 45.1427C60.8662 44.0475 58.5765 43.5713 57.7179 44.1427Z" fill="#351809"/>
<path d="M51.898 44.1427C52.0888 44.2379 52.3273 44.3808 52.2796 44.5236C52.2796 44.6189 52.1365 44.6665 51.9934 44.6665C51.8503 44.6665 51.7549 44.6189 51.6118 44.6189C50.6101 44.4284 49.656 44.6665 48.8451 45.1903C48.7974 45.2379 48.7497 45.2379 48.702 45.2379C48.6543 45.2379 48.6543 45.1903 48.6543 45.1427C48.7497 44.0475 51.0394 43.5713 51.898 44.1427Z" fill="#351809"/>
<path d="M58.9575 39.5715C58.9575 39.5715 57.6218 41.7144 55.4753 40.9048C53.3287 40.0953 52.1839 42.5715 50.9913 42.381C49.8465 42.2382 48.0338 41.7144 48.0338 44.0477C48.0338 46.381 47.3183 46.6191 47.3183 46.6191L46.2211 46.1906C46.2211 46.1906 45.3148 37.3334 49.9896 34.8096C49.608 34.762 53.5195 32.381 58.2897 34.5715C63.0598 36.762 61.915 38.9048 61.915 38.9048L58.9575 39.5715Z" fill="#351809"/>
<path d="M59.1001 38.905L58.957 39.5716C58.957 39.5716 58.957 40.7145 60.1019 41.905C61.2467 43.0478 61.5806 42.3812 61.7714 43.5716C61.9145 44.7145 62.4392 46.7145 63.2025 46.7621C63.9657 46.8097 64.2519 46.1907 64.2519 46.1907L63.5841 43.2383L62.5824 39.9526L61.4375 38.1431L59.1001 38.905Z" fill="#351809"/>
<path d="M62.631 48.8095C63.1557 48.8571 63.2988 48.3809 63.585 47.5238C63.8712 46.6666 63.2988 46.3333 62.6787 46.3809C62.0586 46.4761 62.0586 47.3333 62.0586 47.3333L62.631 48.8095Z" fill="#D3966C"/>
<path d="M62.5826 48.1432C62.4872 48.1432 62.4395 48.0956 62.3918 48.048C62.3441 47.9527 62.3918 47.8099 62.4872 47.7622C62.5349 47.7146 62.6303 47.7146 62.678 47.667C62.7257 47.6194 62.7257 47.6194 62.7257 47.5718V47.5241H62.678C62.5826 47.5718 62.4395 47.4765 62.4395 47.3813C62.3918 47.2861 62.4872 47.1432 62.5826 47.1432C62.7257 47.0956 62.9165 47.1432 63.0596 47.2384C63.2027 47.3337 63.2504 47.5241 63.2027 47.7146C63.155 47.8099 63.1073 47.9527 63.0119 48.048C62.9165 48.0956 62.8211 48.1432 62.7734 48.1908C62.6303 48.0956 62.6303 48.1432 62.5826 48.1432Z" fill="#AF6C4B"/>
<path d="M54.2354 51.0476H54.1877C54.0923 51.0476 53.4722 50.8095 53.2337 50.3333C53.1383 50.1429 53.1383 49.9048 53.2337 49.6667C53.3291 49.3333 53.5676 49.1905 53.7584 49.0476C54.0923 48.7619 54.5216 48.4762 54.6647 47.1905C54.6647 47.0952 54.8078 47 54.9032 47C54.9986 47 55.094 47.0952 55.094 47.2381C54.9032 48.7143 54.4262 49.0952 53.9969 49.3809C53.8061 49.5238 53.663 49.619 53.6153 49.8095C53.5676 49.9048 53.5676 50.0476 53.6153 50.1429C53.7584 50.381 54.14 50.5714 54.3308 50.619C54.4262 50.6667 54.5216 50.7619 54.4739 50.8571C54.4262 51 54.3308 51.0476 54.2354 51.0476Z" fill="#AF6C4B"/>
<path d="M47.3191 47.2859C47.3191 47.2859 47.3191 46.4288 46.699 46.3336C46.0788 46.2383 45.5064 46.5716 45.7926 47.4764C46.0788 48.3812 46.2219 48.8097 46.7467 48.7621L47.0329 48.7145L47.3191 47.2859Z" fill="#D3966C"/>
<path d="M46.7946 48.1429C46.7469 48.1429 46.7469 48.1429 46.6992 48.1429C46.6038 48.0953 46.5083 48.0477 46.4606 48.0001C46.3652 47.9049 46.2698 47.8096 46.2698 47.6668C46.2221 47.5239 46.2698 47.3334 46.4129 47.1906C46.5561 47.0953 46.6992 47.0477 46.89 47.0953C46.9854 47.143 47.0808 47.2382 47.0331 47.3334C46.9854 47.4287 46.89 47.5239 46.7946 47.4763H46.7469V47.5239C46.7469 47.5715 46.7946 47.5715 46.7946 47.6191C46.8423 47.6668 46.89 47.6668 46.9854 47.7144C47.0808 47.762 47.1285 47.9049 47.0808 48.0001C46.9377 48.0953 46.89 48.1429 46.7946 48.1429Z" fill="#AF6C4B"/>
</g>
<defs>
<clipPath id="clip0">
<rect width="110" height="132" fill="white" transform="translate(131)"/>
</clipPath>
<clipPath id="clip1">
<rect width="110" height="132" fill="white"/>
</clipPath>
</defs>
</svg>
