<?xml version="1.0" standalone="no"?>
<!DOCTYPE svg PUBLIC "-//W3C//DTD SVG 1.1//EN" "http://www.w3.org/Graphics/SVG/1.1/DTD/svg11.dtd" >
<svg xmlns="http://www.w3.org/2000/svg">
<metadata>Generated by IcoMoon</metadata>
<defs>
<font id="icomoon" horiz-adv-x="1024">
<font-face units-per-em="1024" ascent="960" descent="-64" />
<missing-glyph horiz-adv-x="1024" />
<glyph unicode="&#x20;" horiz-adv-x="512" d="" />
<glyph unicode="&#xe900;" glyph-name="account-box-outline" d="M810.656 149.344h-597.344v597.344h597.344zM810.656 832h-597.344c-47.136 0-85.344-38.208-85.344-85.344v0-597.344c0-47.136 38.208-85.344 85.344-85.344v0h597.344c47.136 0 85.344 38.208 85.344 85.344v0 597.344c0 47.36-38.4 85.344-85.344 85.344zM704 266.656c0 64-128 96-192 96s-192-32-192-96v-32h384zM512 437.344c53.024 0 96 42.976 96 96v0c0 53.024-42.976 96-96 96v0c-53.024 0-96-42.976-96-96v0c0-53.024 42.976-96 96-96v0z" />
<glyph unicode="&#xe901;" glyph-name="account-card-details-outline" d="M938.656 832h-853.344c-46.496-1.696-83.616-38.816-85.344-85.344v-597.344c1.696-46.496 38.816-83.616 85.344-85.344h853.344c46.496 1.696 83.616 38.816 85.344 85.344v597.344c-1.696 46.496-38.816 83.616-85.344 85.344zM938.656 149.344h-853.344v597.344h853.344v-597.344zM597.344 234.656v53.344c0 70.816-142.496 106.656-213.344 106.656s-213.344-35.84-213.344-106.656v-53.344h426.656zM384 661.344c-58.912 0-106.656-47.744-106.656-106.656v0c0-58.912 47.744-106.656 106.656-106.656v0c58.912 0 106.656 47.744 106.656 106.656v0c0 58.912-47.744 106.656-106.656 106.656v0zM597.344 661.344v-42.656h256v42.656h-256zM597.344 576v-42.656h256v42.656h-256zM597.344 490.656v-42.656h170.656v42.656h-170.656z" />
<glyph unicode="&#xe902;" glyph-name="account-heart" d="M640 362.656c-115.2 0-341.344-55.456-341.344-170.656v-85.344h682.656v85.344c0 115.2-226.144 170.656-341.344 170.656zM640 448c94.272 0 170.656 76.416 170.656 170.656v0c0 94.272-76.416 170.656-170.656 170.656v0c-94.272 0-170.656-76.416-170.656-170.656v0c0-94.272 76.416-170.656 170.656-170.656v0zM213.344 320l-25.6 21.344c-85.344 81.056-145.056 132.256-145.056 196.256 0 51.2 42.656 93.856 93.856 93.856 29.856 0 59.744-12.8 76.8-34.144 17.056 21.344 46.944 34.144 76.8 34.144 51.2 0 93.856-38.4 93.856-93.856 0-64-59.744-115.2-145.056-196.256l-25.6-21.344z" />
<glyph unicode="&#xe903;" glyph-name="account" d="M512 789.344c94.272 0 170.656-76.416 170.656-170.656v0c0-94.272-76.416-170.656-170.656-170.656v0c-94.272 0-170.656 76.416-170.656 170.656v0c0 94.272 76.416 170.656 170.656 170.656v0zM512 362.656c188.576 0 341.344-76.384 341.344-170.656v-85.344h-682.656v85.344c0 94.304 152.736 170.656 341.344 170.656z" />
<glyph unicode="&#xe904;" glyph-name="add_ic_call" d="M896 704v-86.016h-128v-128h-86.016v128h-128v86.016h128v128h86.016v-128h128zM854.016 297.984q18.016 0 29.984-12t12-29.984v-150.016q0-18.016-12-29.984t-29.984-12q-300 0-512.992 212.992t-212.992 512.992q0 18.016 12 29.984t29.984 12h150.016q18.016 0 29.984-12t12-29.984v-2.016q0-82.016 24.032-150.016 4-8.032 4-13.984 0-20-13.984-29.984l-93.984-93.984q40.032-76 123.008-159.008t159.008-123.008l93.984 93.984q13.984 13.984 29.984 13.984 6.016 0 13.984-4 72.032-24.032 152.032-24.032z" />
<glyph unicode="&#xe905;" glyph-name="alert-decagram-outline" d="M981.344 448l-104.096-118.624 14.496-157.024-154.016-34.976-80.64-135.68-145.056 62.304-145.056-62.72-80.64 135.68-154.016 34.976 14.496 157.44-104.096 118.624 104.096 119.040-14.496 157.024 154.016 34.56 80.64 135.68 145.056-62.304 145.056 62.304 80.64-135.68 154.016-34.976-14.496-157.024 104.096-118.624zM867.424 448l-78.080 90.016 10.24 119.040-116.896 25.6-60.576 103.68-110.080-47.36-110.080 47.36-60.576-103.68-116.896-25.184 10.24-119.040-78.080-90.464 78.080-89.6-10.24-119.456 116.896-25.6 60.576-103.68 110.080 47.776 110.080-47.36 60.576 103.264 116.896 26.016-10.24 119.040 78.080 89.6zM469.344 320h85.344v-85.344h-85.344v85.344zM469.344 661.344h85.344v-256h-85.344v256z" />
<glyph unicode="&#xe906;" glyph-name="bug" d="M514.4 960c-281.024-2.336-507.936-230.688-507.936-512.032 0-279.648 224.192-506.944 502.656-511.968h0.48c280.608-1.312 516.192 226.816 513.664 510.336 4.352 279.936-225.984 512.416-508.832 513.664zM754.176 114.336c-66.912-48.96-150.816-78.336-241.6-78.336-4.32 0-8.608 0.064-12.896 0.192h0.64c-180.704-2.176-353.472 132.32-392.864 330.784-5.664 25.248-8.928 54.208-8.928 83.968 0 89.824 29.6 172.704 79.584 239.456l-0.736-1.056c7.936 11.072 12 12.672 22.304 2.368q277.76-278.976 556.384-556.64c9.44-9.088 8.8-13.152-1.888-20.704zM845.664 203.936c-7.008-9.44-11.904-9.44-19.936-1.024q-59.552 60.672-120.128 120.224c-6.24 5.248-10.176 13.024-10.176 21.76 0 4.608 1.088 8.96 3.040 12.8l-0.064-0.16c5.568 11.808 17.568 4.448 27.328 3.392 19.264-3.456 42.56-6.112 66.24-7.392l1.536-0.064c18.912 0 26.656 11.072 29.952 27.136 0.544 1.984 0.832 4.256 0.832 6.592 0 12.64-8.928 23.168-20.8 25.696l-0.16 0.032c-20.48 6.272-44.192 10.368-68.672 11.424l-0.576 0.032c-30.816 2.464-44.8 24.384-32.704 52.352 3.392 8.032 10.208 8.416 17.472 9.44 24.096 2.944 48.192 5.856 72.096 9.44s35.712 17.952 32.608 37.792c-2.656 16.832-23.168 29.76-43.648 27.040-23.264-3.040-46.496-6.528-69.76-9.44-3.040-0.48-8.128-2.464-8.896-1.312-11.712 16.736-11.168 37.792-21.536 55.84-5.376 9.44 5.376 13.312 11.424 17.472 18.432 12.288 36.576 24.192 55.488 36.576 15.968 10.88 22.784 35.456 12.48 48.768-12.48 15.392-27.584 17.216-44.128 6.624-21.632-13.888-43.392-27.872-64.928-41.952-9.44-5.856-15.968-8.416-26.56 0.48-62.080 51.52-178.528 52.064-236.256-11.904-7.648-8.512-12.768-8.128-20.704 0q-49.152 50.56-99.904 100c-8.128 8.032-8.8 13.056 1.056 20.032 59.776 44.96 134.048 73.632 214.816 78.208l1.056 0.064c7.84 1.152 16.928 1.824 26.144 1.824s18.272-0.672 27.136-1.92l-1.024 0.128c205.376-7.552 380.768-182.88 388.256-388.256 1.12-7.84 1.76-16.928 1.76-26.144s-0.64-18.272-1.888-27.168l0.128 1.024c-5.216-81.568-33.824-155.584-79.104-216.48l0.768 1.088zM328.512 421.312c-3.584 4.736-9.216 7.776-15.584 7.776-0.384 0-0.736 0-1.12-0.032h0.064c-29.472-4.064-59.264-6.912-88.256-12.96-14.368-2.304-25.216-14.592-25.216-29.408 0-2.976 0.448-5.888 1.248-8.608l-0.064 0.224c3.392-19.936 17.12-27.488 35.904-25.6 22.592 2.272 45.184 5.088 67.584 9.44 14.752 2.656 22.976-1.504 23.712-16.928 1.184-17.44 5.856-33.536 13.376-47.936l-0.32 0.672c1.984-2.464 3.2-5.6 3.2-9.056 0-6.24-3.968-11.584-9.504-13.6l-0.096-0.032c-18.912-12-37.792-25.408-56.704-38.56-20.896-14.656-25.504-30.528-14.176-47.264s29.664-20.224 51.424-6.144 40.448 27.232 60.288 41.312c2.88 2.976 6.88 4.8 11.328 4.8s8.48-1.856 11.328-4.8v0c46.208-37.792 98.848-48.864 158.4-34.688-1.216 3.296-1.312 5.088-2.368 6.048q-111.808 112.544-224.448 225.312z" />
<glyph unicode="&#xe907;" glyph-name="calendar" d="M385.536 417.248c-5.696-8.224-12.64-28.832-20.864-33.888-8.224-5.024-17.504-8.544-27.808-10.496-10.336-1.984-21.024-2.848-32.064-2.528v-48.864h78.944v-193.472h63.712v319.872h-50.688c-1.792-12.192-5.536-22.4-11.232-30.624zM736 704h64c17.696 0 32 14.336 32 32v192c0 17.664-14.304 32-32 32h-64c-17.696 0-32-14.336-32-32v-192c0-17.664 14.304-32 32-32zM224 704h64c17.664 0 32 14.336 32 32v192c0 17.664-14.336 32-32 32h-64c-17.664 0-32-14.336-32-32v-192c0-17.664 14.336-32 32-32zM960 832h-64v-160c0-17.664-14.304-32-32-32h-192c-17.696 0-32 14.336-32 32v160h-256v-160c0-17.664-14.336-32-32-32h-192c-17.664 0-32 14.336-32 32v160h-64c-35.328 0-64-28.672-64-64v-768c0-35.328 28.672-64 64-64h896c35.328 0 64 28.672 64 64v768c0 35.328-28.672 64-64 64zM960 32c0-17.696-14.304-32-32-32h-832c-17.664 0-32 14.304-32 32v512c0 17.664 14.336 32 32 32h832c17.696 0 32-14.336 32-32v-512zM511.52 384.576h158.976c-29.952-36.864-54.048-74.4-72.48-118.56-18.4-44.192-20.416-90.176-23.968-137.984h68.192c0.288 21.312-6.24 44.32-1.632 68.992 4.672 24.672 11.264 49.024 19.744 73.12 8.544 24.064 19.136 46.752 31.872 68.064 12.672 21.344 27.296 39.328 43.744 53.952v55.744h-224.48v-63.328z" />
<glyph unicode="&#xe908;" glyph-name="calendar1" d="M51.2 755.2c0 56.32 46.080 102.4 102.4 102.4h716.8c56.544 0 102.4-45.856 102.4-102.4v0-716.8c0-56.544-45.856-102.4-102.4-102.4v0h-716.8c-56.544 0-102.4 45.856-102.4 102.4v0 716.8zM153.6 652.8v-614.4h716.8v614.4h-716.8zM256 960h102.4v-102.4h-102.4v102.4zM665.6 960h102.4v-102.4h-102.4v102.4zM256 499.2h102.4v-102.4h-102.4v102.4zM256 294.4h102.4v-102.4h-102.4v102.4zM460.8 499.2h102.4v-102.4h-102.4v102.4zM460.8 294.4h102.4v-102.4h-102.4v102.4zM665.6 499.2h102.4v-102.4h-102.4v102.4zM665.6 294.4h102.4v-102.4h-102.4v102.4z" />
<glyph unicode="&#xe909;" glyph-name="camera" d="M170.656 789.344h128l85.344 85.344h256l85.344-85.344h128c47.136 0 85.344-38.208 85.344-85.344v0-512c0-47.136-38.208-85.344-85.344-85.344v0h-682.656c-47.136 0-85.344 38.208-85.344 85.344v0 512c0 47.136 38.208 85.344 85.344 85.344v0zM512 661.344c-117.824 0-213.344-95.52-213.344-213.344v0c0-117.824 95.52-213.344 213.344-213.344v0c117.824 0 213.344 95.52 213.344 213.344v0c0 117.824-95.52 213.344-213.344 213.344v0zM512 576c70.688 0 128-57.312 128-128v0c0-70.688-57.312-128-128-128v0c-70.688 0-128 57.312-128 128v0c0 70.688 57.312 128 128 128v0z" />
<glyph unicode="&#xe90a;" glyph-name="checkbox-marked-circle-outline" d="M853.344 448c0-188.512-152.832-341.344-341.344-341.344v0c-188.512 0-341.344 152.832-341.344 341.344v0c0 188.512 152.832 341.344 341.344 341.344v0c32.416 0 64-4.704 93.856-13.216l66.976 66.976c-49.504 20.48-103.68 31.584-160.864 31.584-235.648 0-426.656-191.040-426.656-426.656v0c0-235.648 191.040-426.656 426.656-426.656v0c235.648 0 426.656 191.040 426.656 426.656v0zM337.504 529.92l-60.16-60.576 192-192 426.656 426.656-60.16 60.576-366.496-366.496-131.84 131.84z" />
<glyph unicode="&#xe90b;" glyph-name="checkmark" d="M0 396.8l102.4 102.4 256-256 563.2 563.2 102.4-102.4-665.6-665.6z" />
<glyph unicode="&#xe90c;" glyph-name="chevron-down" d="M316.16 593.92l195.84-195.84 195.84 195.84 60.16-60.576-256-256-256 256 60.16 60.576z" />
<glyph unicode="&#xe90d;" glyph-name="chevron-left" d="M813.504 37.536c-2.24-12.352-8.192-23.040-16.64-31.136l-0.032-0.032c-19.168-18.72-38.048-37.728-56.896-56.768s-38.336-20.32-57.184-1.024c-154.624 157.12-314.080 309.248-464.896 470.176-23.392 25.152-11.84 44.768 7.904 65.984 121.28 130.048 250.432 252.352 374.048 379.456 26.464 26.912 53.536 53.248 79.872 80.32 20.032 20.32 39.776 20.928 60.128 0 17.696-16.832 35.552-33.632 52.224-51.2 29.248-29.248 29.248-43.872-1.024-73.152-113.504-115.424-226.752-231.264-341.568-345.536-21.952-21.792-20.768-33.216 0-54.432 113.952-113.376 226.144-228.352 339.104-342.752 12.608-9.728 21.568-23.552 24.928-39.488l0.064-0.448z" />
<glyph unicode="&#xe90e;" glyph-name="chevron-right" d="M204.8 857.6c1.472 11.712 7.328 23.392 16.096 30.72 20.48 19.008 39.488 38.048 58.528 57.056s38.048 20.48 57.056 0c155.072-156.512 314.528-308.672 465.184-469.568 23.392-24.864 11.712-45.344-7.328-65.824-121.408-130.208-250.144-251.616-374.496-378.88-26.336-26.336-54.112-52.672-80.448-80.448-20.48-20.48-39.488-20.48-59.968 0-17.568 17.568-35.104 33.632-52.672 51.2-29.248 29.248-29.248 43.872 1.472 73.152 114.112 115.552 226.752 231.136 342.304 345.248 21.952 21.952 20.48 33.632 0 54.112-115.552 114.112-226.752 228.192-340.832 342.304-11.712 10.24-21.952 24.864-24.864 40.96z" />
<glyph unicode="&#xe90f;" glyph-name="circle" d="M512.032-63.904c-281.28-3.488-512.704 229.152-512.032 512.992 4.672 279.424 232.288 504.128 512.352 504.128 281.152 0 509.408-226.432 512.384-506.848v-0.288c-0.672-280.256-230.016-513.76-512.704-509.952z" />
<glyph unicode="&#xe910;" glyph-name="close-circle-outline" d="M512 106.656c-188.16 0-341.344 153.184-341.344 341.344s153.184 341.344 341.344 341.344c188.16 0 341.344-153.184 341.344-341.344s-153.184-341.344-341.344-341.344zM512 874.656c-235.936 0-426.656-190.72-426.656-426.656s190.72-426.656 426.656-426.656c235.936 0 426.656 190.72 426.656 426.656s-190.72 426.656-426.656 426.656zM622.496 618.656l-110.496-110.496-110.496 110.496-60.16-60.16 110.496-110.496-110.496-110.496 60.16-60.16 110.496 110.496 110.496-110.496 60.16 60.16-110.496 110.496 110.496 110.496-60.16 60.16z" />
<glyph unicode="&#xe911;" glyph-name="close" d="M810.656 686.496l-60.16 60.16-238.496-238.496-238.496 238.496-60.16-60.16 238.496-238.496-238.496-238.496 60.16-60.16 238.496 238.496 238.496-238.496 60.16 60.16-238.496 238.496 238.496 238.496z" />
<glyph unicode="&#xe912;" glyph-name="cloud-download" d="M725.344 405.344l-213.344-213.344-213.344 213.344h128v170.656h170.656v-170.656zM825.6 532.064c-29.024 146.784-158.304 257.28-313.6 257.28-123.296 0-230.4-69.984-283.744-171.936-128.416-14.080-228.256-122.464-228.256-254.72 0-141.376 114.624-256 256-256v0h554.656c117.824 0 213.344 95.52 213.344 213.344v0c0 112.64-87.456 203.936-198.4 212.064z" />
<glyph unicode="&#xe913;" glyph-name="content-copy" d="M810.656 64h-469.344v597.344h469.344zM810.656 746.656h-469.344c-47.136 0-85.344-38.208-85.344-85.344v0-597.344c0-47.136 38.208-85.344 85.344-85.344v0h469.344c47.136 0 85.344 38.208 85.344 85.344v0 597.344c0 47.136-38.208 85.344-85.344 85.344v0zM682.656 917.344h-512c-47.136 0-85.344-38.208-85.344-85.344v0-597.344h85.344v597.344h512v85.344z" />
<glyph unicode="&#xe914;" glyph-name="content-save" d="M640 576h-426.656v170.656h426.656zM512 149.344c-70.688 0-128 57.312-128 128v0c0 70.688 57.312 128 128 128v0c70.688 0 128-57.312 128-128v0c0-70.688-57.312-128-128-128v0zM725.344 832h-512c-47.36 0-85.344-38.4-85.344-85.344v-597.344c0-47.136 38.208-85.344 85.344-85.344v0h597.344c47.136 0 85.344 38.208 85.344 85.344v0 512l-170.656 170.656z" />
<glyph unicode="&#xe915;" glyph-name="credit-card" d="M853.344 618.656h-682.656v85.344h682.656zM853.344 192h-682.656v256h682.656zM853.344 789.344h-682.656c-47.36 0-85.344-37.984-85.344-85.344v-512c0-47.136 38.208-85.344 85.344-85.344v0h682.656c47.136 0 85.344 38.208 85.344 85.344v0 512c0 47.36-38.4 85.344-85.344 85.344z" />
<glyph unicode="&#xe916;" glyph-name="dots-horizontal" d="M682.656 448c0 47.136 38.208 85.344 85.344 85.344v0c47.136 0 85.344-38.208 85.344-85.344v0c0-47.136-38.208-85.344-85.344-85.344v0c-47.136 0-85.344 38.208-85.344 85.344v0zM426.656 448c0 47.136 38.208 85.344 85.344 85.344v0c47.136 0 85.344-38.208 85.344-85.344v0c0-47.136-38.208-85.344-85.344-85.344v0c-47.136 0-85.344 38.208-85.344 85.344v0zM170.656 448c0 47.136 38.208 85.344 85.344 85.344v0c47.136 0 85.344-38.208 85.344-85.344v0c0-47.136-38.208-85.344-85.344-85.344v0c-47.136 0-85.344 38.208-85.344 85.344v0z" />
<glyph unicode="&#xe917;" glyph-name="email" d="M853.344 618.656l-341.344-213.344-341.344 213.344v85.344l341.344-213.344 341.344 213.344zM853.344 789.344h-682.656c-47.36 0-85.344-37.984-85.344-85.344v-512c0-47.136 38.208-85.344 85.344-85.344v0h682.656c47.136 0 85.344 38.208 85.344 85.344v0 512c0 47.36-38.4 85.344-85.344 85.344z" />
<glyph unicode="&#xe918;" glyph-name="exit-to-app" d="M810.656 832h-597.344c-47.36 0-85.344-37.984-85.344-85.344v-170.656h85.344v170.656h597.344v-597.344h-597.344v170.656h-85.344v-170.656c0-47.136 38.208-85.344 85.344-85.344v0h597.344c47.136 0 85.344 38.208 85.344 85.344v0 597.344c0 47.36-38.4 85.344-85.344 85.344zM430.080 295.264l60.576-60.576 213.344 213.344-213.344 213.344-60.576-60.16 110.496-110.496h-412.576v-85.344h412.576l-110.496-110.080z" />
<glyph unicode="&#xe919;" glyph-name="eye-off" d="M85.344 735.136l54.624 54.176 713.376-713.376-54.176-54.624-131.424 131.424c-49.056-16.224-101.12-24.736-155.744-24.736-213.344 0-395.52 132.704-469.344 320 29.44 75.104 76.384 141.216 136.096 193.696l-93.44 93.44zM512 576c70.688 0 128-57.312 128-128v0c0-14.944-2.56-29.44-7.264-42.656l-163.424 163.424c13.216 4.704 27.744 7.264 42.656 7.264zM512 768c213.344 0 395.52-132.704 469.344-320-34.976-88.736-94.304-165.536-170.656-221.44l-60.576 61.024c58.016 40.096 105.824 94.72 138.24 160.416-70.4 143.36-215.904 234.656-376.32 234.656-46.496 0-92.16-7.68-134.816-21.344l-65.696 65.28c61.44 26.464 129.28 41.376 200.544 41.376zM135.68 448c70.4-143.36 215.904-234.656 376.32-234.656 29.44 0 58.464 2.976 85.344 8.96l-97.28 97.696c-61.024 6.4-109.664 55.040-116.064 116.064l-145.056 145.504c-42.24-36.256-77.664-81.504-103.264-133.536z" />
<glyph unicode="&#xe91a;" glyph-name="eye" d="M512 576c70.688 0 128-57.312 128-128v0c0-70.688-57.312-128-128-128v0c-70.688 0-128 57.312-128 128v0c0 70.688 57.312 128 128 128v0zM512 768c213.344 0 395.52-132.704 469.344-320-73.824-187.296-256-320-469.344-320s-395.52 132.704-469.344 320c73.824 187.296 256 320 469.344 320zM135.68 448c70.4-143.36 215.904-234.656 376.32-234.656s305.92 91.296 376.32 234.656c-70.4 143.36-215.904 234.656-376.32 234.656s-305.92-91.296-376.32-234.656z" />
<glyph unicode="&#xe91b;" glyph-name="facebook" d="M725.344 874.656v0 0-170.656h-85.344c-29.44 0-42.656-34.56-42.656-64v-106.656h128v-170.656h-128v-341.344h-170.656v341.344h-128v170.656h128v170.656c0 94.272 76.416 170.656 170.656 170.656v0h128z" />
<glyph unicode="&#xe91c;" glyph-name="file-code-outline" d="M597.344 874.656h-341.344c-47.36 0-85.344-38.4-85.344-85.344v-682.656c0-47.36 37.984-85.344 85.344-85.344h512c47.36 0 85.344 37.984 85.344 85.344v512l-256 256zM768 106.656h-512v682.656h298.656v-213.344h213.344v-469.344zM407.040 292.256l89.184-89.184-54.624-53.76-142.944 142.944 142.944 142.944 54.624-53.76-89.184-89.184zM725.344 292.256l-142.944-142.944-54.176 53.76 89.184 89.184-89.184 89.184 54.176 53.76 142.944-142.944z" />
<glyph unicode="&#xe91d;" glyph-name="filter-variant" d="M256 405.344h512v85.344h-512zM128 704v-85.344h768v85.344zM426.656 192h170.656v85.344h-170.656v-85.344z" />
<glyph unicode="&#xe91e;" glyph-name="folder" d="M920.576 500.313c-23.775 0.623-54.851-10.062-69.365 4.452-16.028 15.894-4.452 47.327-5.12 71.992 0.138 1.828 0.217 3.96 0.217 6.109 0 47.653-38.63 86.283-86.283 86.283-2.003 0-3.99-0.068-5.959-0.203l0.266 0.015c-45.902 0.623-91.893 0-138.017 0-16.357-2.429-35.238-3.817-54.442-3.817-28.974 0-57.21 3.158-84.383 9.148l2.588-0.479c-38.422 15.538-65.848 58.858-97.013 91.002-9.482 10.479-23.132 17.035-38.313 17.035-0.963 0-1.919-0.026-2.868-0.078l0.132 0.006c-81.386-0.757-162.816 0-244.246-0.401-3.517 0.503-7.579 0.791-11.708 0.791-48.095 0-87.085-38.989-87.085-87.085 0-4.268 0.307-8.464 0.9-12.567l-0.056 0.468q-0.312-239.082 0-478.119c-0.556-3.696-0.874-7.962-0.874-12.302 0-48.071 38.969-87.040 87.040-87.040 4.076 0 8.087 0.28 12.014 0.822l-0.455-0.051c112.729-0.223 225.503 0 338.365 0s225.458 0.534 338.365-0.267c2.116-0.161 4.584-0.252 7.073-0.252 35.946 0 67.434 19.086 84.883 47.676l0.248 0.437c43.676 69.766 88.019 139.086 130.582 209.475 10.954 14.222 17.557 32.289 17.557 51.897 0 47.21-38.271 85.482-85.482 85.482-3.016 0-5.995-0.156-8.93-0.461l0.367 0.031zM83.567 274.944c0 137.35 0.401 265.171-0.356 393.038 0 23.418 8.504 30.898 31.165 30.542 65.759-1.024 131.473-0.757 197.231 0 0.47 0.018 1.022 0.028 1.576 0.028 13.582 0 25.756-6.027 33.993-15.553l0.048-0.057c25.333-26.223 52.358-50.888 77.023-77.735 11.041-12.347 27.018-20.083 44.802-20.083 1.641 0 3.266 0.066 4.873 0.195l-0.212-0.014c84.591 0.89 169.183-0.623 253.551 0.935 27.871 0.534 38.823-8.904 35.039-35.974-0.041-0.467-0.064-1.010-0.064-1.558s0.023-1.092 0.069-1.628l-0.005 0.070c0-46.792 0-46.792-45.457-46.792-142.959 0-285.919-0.623-428.878 0.356-2.647 0.239-5.725 0.376-8.835 0.376-40.617 0-75.799-23.274-92.936-57.213l-0.273-0.596c-30.141-54.717-64.601-106.897-102.222-168.337zM915.456 391.635c-37.843-60.995-76.399-121.633-114.109-182.539-5.517-11.604-17.145-19.483-30.613-19.483-0.476 0-0.95 0.010-1.421 0.029l0.067-0.002q-316.104 0.801-632.209 0.49c-3.523 0.709-6.623 1.693-9.567 2.967l0.307-0.118c42.919 70.879 84.591 139.175 125.462 208.095 5.807 9.946 16.429 16.523 28.587 16.523 1.822 0 3.609-0.148 5.351-0.432l-0.19 0.026q319.221-0.356 638.62 0c2.938-11.62-5.521-18.076-10.151-25.6z" />
<glyph unicode="&#xe91f;" glyph-name="launch" d="M597.344 832v-85.344h153.184l-419.424-419.424 60.16-60.16 419.424 419.424v-153.184h85.344v298.656zM810.656 149.344h-597.344v597.344h298.656v85.344h-298.656c-47.36 0-85.344-37.984-85.344-85.344v-597.344c0-47.136 38.208-85.344 85.344-85.344v0h597.344c47.136 0 85.344 38.208 85.344 85.344v0 298.656h-85.344v-298.656z" />
<glyph unicode="&#xe920;" glyph-name="linkedin" d="M896 64h-170.656v288c0 45.216-50.784 82.784-96 82.784s-74.656-37.536-74.656-82.784v-288h-170.656v512h170.656v-85.344c28.16 45.664 100.704 75.104 149.344 75.104 106.656 0 192-87.040 192-192.416v-309.344zM298.656 64h-170.656v512h170.656v-512zM213.344 832c47.136 0 85.344-38.208 85.344-85.344v0c0-47.136-38.208-85.344-85.344-85.344v0c-47.136 0-85.344 38.208-85.344 85.344v0c0 47.136 38.208 85.344 85.344 85.344v0z" />
<glyph unicode="&#xe921;" glyph-name="loader" horiz-adv-x="1027" d="M859.016 285.766c-37.18-74.152-94.521-133.527-164.853-172.197l-2.055-1.036c-51.474-28.386-112.83-45.089-178.087-45.089-94.471 0-180.767 35.005-246.624 92.752l0.427-0.367c-81.282 66.118-133.093 165.76-134.185 277.539l-0.001 0.184c-0.247 5.046-0.388 10.957-0.388 16.902 0 140.68 78.839 262.945 194.745 325.024l1.974 0.965c52.247 29.944 114.851 47.603 181.579 47.603 16.738 0 33.216-1.111 49.365-3.263l-1.891 0.206c-5.774 20.073-34.097 21.173-35.747 47.020-0.825 38.221 3.025 70.118 43.171 85.792-15.267 1.469-33.008 2.307-50.945 2.307-40.374 0-79.757-4.245-117.726-12.312l3.687 0.656c-231.624-55.789-401.050-261.205-401.050-506.192 0-21.037 1.249-41.783 3.678-62.167l-0.239 2.464c33.272-253.25 274.973-475.429 554.346-444.907 180.092 14.747 332.336 121.239 411.124 272.162l1.336 2.811c-47.843 5.717-88.214 33.365-111.26 72.447l-0.379 0.696zM1023.175 520.043c-34.422 232.977-221.277 413.361-454.525 437.572l-2.205 0.185c-19.424-3.106-35.854-13.94-46.318-29.188l-0.152-0.235c-5.966-10.217-9.489-22.492-9.489-35.591 0-31.369 20.203-58.019 48.307-67.649l0.503-0.15c0.909-0.181 1.955-0.284 3.025-0.284s2.115 0.104 3.127 0.301l-0.102-0.017c155.085-16.223 297.246-160.584 319.794-318.144 2.653-17.819 4.168-38.385 4.168-59.305 0-56.168-10.921-109.785-30.757-158.844l1.016 2.844c-0.138-0.661-0.217-1.421-0.217-2.2s0.079-1.538 0.229-2.272l-0.012 0.073c1.375-45.371 62.419-84.417 111.364-72.318 35.859 68.593 56.897 149.825 56.897 235.97 0 24.421-1.691 48.447-4.961 71.967l0.31-2.718z" />
<glyph unicode="&#xe923;" glyph-name="loading" d="M512 789.344v85.344c-235.648 0-426.656-191.040-426.656-426.656v0h85.344c0 188.512 152.832 341.344 341.344 341.344v0z" />
<glyph unicode="&#xe924;" glyph-name="map2" d="M672 768l-320 128-352-128v-768l352 128 320-128 352 128v768l-352-128zM384 814.272l256-102.4v-630.144l-256 102.4v630.144zM64 723.168l256 93.088v-631.808l-256-93.088v631.808zM960 172.832l-256-93.088v631.808l256 93.088v-631.808z" />
<glyph unicode="&#xe925;" glyph-name="menu" d="M128 704h768v-85.344h-768v85.344zM128 490.656h768v-85.344h-768v85.344zM128 277.344h768v-85.344h-768v85.344z" />
<glyph unicode="&#xe926;" glyph-name="minus" d="M810.656 405.344h-597.344v85.344h597.344v-85.344z" />
<glyph unicode="&#xe927;" glyph-name="msg-empty" d="M1008.928 109.504l-943.104 736.32c-6.848 6.816-16.128 11.232-26.464 11.776h-0.096c-14.848-1.472-22.976-15.296-31.968-27.2-11.712-15.808-9.504-29.248 5.792-41.248 46.016-36 92.16-71.68 138.176-107.68q187.104-145.696 374.048-292 218.048-170.496 435.936-341.152c21.504-16.832 31.904-13.376 54.496 16.032 13.152 16.736 11.040 31.168-6.816 45.12zM595.968 226.88c-67.296-14.176-134.592-14.624-199.68 8.704-33.792 11.936-59.904 9.056-87.776-14.624-21.952-18.944-49.664-30.656-81.408-39.488 16.32 25.088 24.512 50.24 36.576 73.152 13.376 25.152 8.256 41.696-11.936 61.728-62.752 63.264-90.848 137.376-59.552 226.080 0.736 1.312 1.152 2.88 1.152 4.576 0 3.392-1.76 6.368-4.416 8.064l-0.032 0.032c-18.368 13.824-36.576 27.872-55.872 42.56-19.232-35.968-30.528-78.656-30.528-124 0-19.968 2.176-39.424 6.336-58.144l-0.32 1.76c12.032-53.024 36.8-99.040 70.944-136.352l-0.192 0.224c4.544-5.12 8.64-9.056 4.672-17.344-17.76-36.576-37.216-72.64-65.824-102.4-13.024-13.824-20.64-29.248-12.512-47.904s23.616-24.512 43.296-23.776c75.712 3.008 145.248 27.136 203.552 66.56l-1.376-0.864c6.592 4.256 12.064 8.768 21.952 5.984 42.080-13.024 90.464-20.544 140.576-20.544 22.304 0 44.256 1.472 65.792 4.352l-2.528-0.288c38.176 5.056 72.736 14.208 105.376 27.168l-2.976-1.056c-24.8 19.904-47.040 37.664-69.344 55.36-4.32 3.232-9.152 1.472-13.984 0.448zM387.072 709.792c134.496 38.112 261.056 23.488 371.872-66.208 62.016-50.4 95.072-116.224 82.784-199.328-4.096-26.304-12.704-49.952-25.088-71.104l0.512 0.96c-3.648-6.592-7.328-12.64 0.8-18.944 15.52-11.776 30.88-23.84 46.144-35.84 5.92-4.672 9.568-2.496 13.088 3.136 28.16 41.728 44.96 93.12 44.96 148.48 0 14.048-1.088 27.84-3.168 41.312l0.192-1.504c-17.472 114.176-86.88 191.136-185.792 242.528-114.752 59.68-236.032 67.744-359.936 33.344-26.624-6.656-50.080-16.704-71.36-29.888l1.088 0.608c18.592-14.624 36.064-27.808 52.672-41.824 5.28-4.896 12.384-7.904 20.192-7.904 3.968 0 7.776 0.768 11.264 2.208l-0.192-0.064z" />
<glyph unicode="&#xe928;" glyph-name="msg-text" d="M877.728 771.2c-105.408 86.592-229.12 122.976-364.064 124.8-0.288 0-0.64 0-1.024 0-25.44 0-50.464-1.664-75.008-4.896l2.88 0.32c-153.056-19.488-283.968-80.448-374.848-208.928-41.12-54.944-65.824-124.256-65.824-199.296 0-33.216 4.832-65.344 13.856-95.616l-0.608 2.368c16.48-57.76 44.576-107.712 81.792-149.312l-0.32 0.352c5.664-6.496 13.344-11.168 7.488-23.040-22.304-45.728-46.432-90.88-82.272-128-16.448-17.376-25.696-36.576-15.712-59.872s30.080-31.168 54.592-30.080c95.456 3.808 183.072 34.368 256.416 84.288l-1.696-1.088c4.832 4.352 11.264 7.040 18.336 7.040 3.264 0 6.368-0.576 9.28-1.6l-0.192 0.064c32-10.048 69.344-17.344 107.872-20.448l1.856-0.128c161.376-16.448 308.384 22.048 434.208 126.080 79.264 65.28 130.208 150.048 138.528 253.792 11.232 133.312-44.352 240-145.472 323.2zM822.848 268.896c-143.552-116.576-306.656-134.496-479.648-80-24.768 7.776-42.24 6.112-62.176-9.696-35.296-27.968-76.736-50.112-121.76-64.096l-2.688-0.736c20.544 34.176 39.488 73.824 54.592 115.264l1.536 4.864c1.568 2.944 2.496 6.432 2.496 10.144 0 7.008-3.328 13.28-8.48 17.248l-0.064 0.032c-33.088 33.632-65.184 68.192-85.408 111.808-44.992 97.472-26.88 203.712 49.728 287.552 71.68 78.272 163.648 117.664 266.336 132.576 129.92 18.848 251.616-6.112 360.032-82.272 65.632-46.272 112.352-107.168 125.984-188.256 18.272-104.768-21.568-190.176-100.576-254.432zM730.688 624.64c-145.28 0.544-290.56 0-435.744 0-13.344 0-27.424-3.008-33.088-16.192-4.416-9.632-6.976-20.896-6.976-32.736 0-11.296 2.336-22.048 6.528-31.776l-0.192 0.512c7.584-18.272 26.528-17.824 43.52-17.728h406.112c51.2 0 58.592 7.328 57.792 57.408-0.64 27.616-10.88 40.416-37.952 40.512zM530.272 432.928c-37.952 0-75.968 0-113.92 0s-75.968 0-114.016 0c-35.488 0-45.728-10.784-45.728-46.272 0-40.96 9.152-51.744 44.992-51.84q115.104 0 230.208 0c35.488 0 44.896 10.976 44.896 49.632s-9.888 48.288-46.432 48.448z" />
<glyph unicode="&#xe929;" glyph-name="notification" d="M577.97 196.569c0-36.44-29.54-65.98-65.98-65.98s-65.98 29.54-65.98 65.98c0 36.44 29.54 65.98 65.98 65.98s65.98-29.54 65.98-65.98zM512.011 321.215c-33.937 0-61.448 27.511-61.448 61.448v0 325.010c0.639 33.444 27.901 60.31 61.437 60.31s60.798-26.866 61.437-60.25l0.001-0.060v-325.010c0-33.929-27.499-61.436-61.426-61.448h-0.001zM511.989 867.839c0.006 0 0.014 0 0.021 0 231.876 0 419.849-187.973 419.849-419.849s-187.973-419.849-419.849-419.849c-231.876 0-419.849 187.973-419.849 419.849 0 0.007 0 0.015 0 0.022v-0.001c0.276 231.754 188.075 419.552 419.802 419.828h0.026zM511.989 960c-282.755-0.012-511.968-229.233-511.968-511.989 0-282.764 229.225-511.989 511.989-511.989s511.989 229.225 511.989 511.989v0c-0.012 282.767-229.242 511.989-512.011 511.989v0z" />
<glyph unicode="&#xe92a;" glyph-name="pencil-outline" d="M599.904 576l40.096-40.096-387.424-386.56h-39.264v39.264l386.56 387.424zM753.504 832c-10.656 0-21.76-4.256-29.856-12.384l-78.080-78.080 160-160 78.080 78.080c16.64 16.64 16.64 44.384 0 60.16l-99.84 99.84c-8.544 8.544-19.2 12.384-30.304 12.384zM599.904 695.904l-471.904-471.904v-160h160l471.904 471.904-160 160z" />
<glyph unicode="&#xe92b;" glyph-name="plus" d="M810.656 405.344h-256v-256h-85.344v256h-256v85.344h256v256h85.344v-256h256v-85.344z" />
<glyph unicode="&#xe92c;" glyph-name="rechazado" d="M512.468 960c-0.151 0-0.331 0-0.51 0-282.77 0-512-229.23-512-512s229.23-512 512-512c282.77 0 512 229.23 512 512 0 0.149 0 0.298 0 0.448v-0.023c-2.877 281.341-230.157 508.651-511.212 511.572l-0.278 0.002zM740.316 104.229c-63.805-42.871-142.361-68.426-226.885-68.426-0.563 0-1.125 0.001-1.688 0.003h0.087c-227.551 0.965-411.644 185.653-411.644 413.339 0 85.551 25.991 165.031 70.506 230.976l-0.933-1.466c11.609 18.668 20.412 22.538 38.272 4.635q268.502-270.288 538.876-538.748c20.497-20.412 11.524-28.959-6.591-40.314zM856.239 220.279c-13.438-21.603-23.049-25.047-42.993-4.933q-265.653 267.907-533.518 533.56c-19.519 19.391-18.031 29.342 4.252 43.078 63.924 42.559 142.482 67.911 226.961 67.911 227.434 0 411.953-183.743 413.208-410.882l0.001-0.119c0.004-0.669 0.006-1.46 0.006-2.252 0-84.282-25.358-162.641-68.861-227.864l0.943 1.502z" />
<glyph unicode="&#xe92d;" glyph-name="reload" d="M85.344 448c0-212.064 171.936-384 384-384 101.984 0 199.68 40.096 273.056 110.944l-64 64c-54.176-57.6-129.696-89.6-209.056-89.6-266.24 0-399.36 321.696-211.2 509.856s509.856 54.624 509.856-211.2h-128l170.656-170.656h4.256l166.4 170.656h-128c0 212.064-171.936 384-384 384s-384-171.936-384-384z" />
<glyph unicode="&#xe92e;" glyph-name="search" d="M405.344 832c153.152 0 277.344-124.16 277.344-277.344v0c0-68.704-25.184-131.84-66.56-180.48l11.52-11.52h33.696l213.344-213.344-64-64-213.344 213.344v33.696l-11.52 11.52c-48.64-41.376-111.776-66.56-180.48-66.56-153.152 0-277.344 124.16-277.344 277.344v0c0 153.152 124.16 277.344 277.344 277.344v0zM405.344 746.656c-106.656 0-192-85.344-192-192s85.344-192 192-192c106.656 0 192 85.344 192 192s-85.344 192-192 192z" />
<glyph unicode="&#xe92f;" glyph-name="settings" d="M512 298.656c-82.464 0-149.344 66.848-149.344 149.344v0c0 82.464 66.848 149.344 149.344 149.344v0c82.464 0 149.344-66.848 149.344-149.344v0c0-82.464-66.848-149.344-149.344-149.344v0zM829.024 406.624c1.696 13.664 2.976 27.296 2.976 41.376s-1.28 28.16-2.976 42.656l90.016 69.536c8.096 6.4 10.24 17.92 5.12 27.296l-85.344 147.616c-5.12 9.376-16.64 13.216-26.016 9.376l-106.24-42.656c-22.176 16.64-45.216 31.136-72.096 41.824l-15.776 113.056c-1.696 10.24-10.656 17.92-21.344 17.92h-170.656c-10.656 0-19.616-7.68-21.344-17.92l-15.776-113.056c-26.88-10.656-49.92-25.184-72.096-41.824l-106.24 42.656c-9.376 3.84-20.896 0-26.016-9.376l-85.344-147.616c-5.536-9.376-2.976-20.896 5.12-27.296l90.016-69.536c-1.696-14.496-2.976-28.576-2.976-42.656s1.28-27.744 2.976-41.376l-90.016-70.816c-8.096-6.4-10.656-17.92-5.12-27.296l85.344-147.616c5.12-9.376 16.64-12.8 26.016-9.376l106.24 43.104c22.176-17.056 45.216-31.584 72.096-42.24l15.776-113.056c1.696-10.24 10.656-17.92 21.344-17.92h170.656c10.656 0 19.616 7.68 21.344 17.92l15.776 113.056c26.88 11.104 49.92 25.184 72.096 42.24l106.24-43.104c9.376-3.424 20.896 0 26.016 9.376l85.344 147.616c5.12 9.376 2.976 20.896-5.12 27.296l-90.016 70.816z" />
<glyph unicode="&#xe930;" glyph-name="star-full" d="M512 192l-300.96-158.208 57.504 335.104-243.52 237.312 336.48 48.896 150.464 304.896 150.464-304.896 336.48-48.896-243.52-237.312 57.504-335.104z" />
<glyph unicode="&#xe931;" glyph-name="trash-can-outline" d="M384 832v-42.656h-213.344v-85.344h42.656v-554.656c0-47.136 38.208-85.344 85.344-85.344v0h426.656c47.136 0 85.344 38.208 85.344 85.344v0 554.656h42.656v85.344h-213.344v42.656h-256zM298.656 704h426.656v-554.656h-426.656v554.656zM384 618.656v-384h85.344v384h-85.344zM554.656 618.656v-384h85.344v384h-85.344z" />
<glyph unicode="&#xe932;" glyph-name="trash-can" d="M384 832v-42.656h-213.344v-85.344h42.656v-554.656c0-47.136 38.208-85.344 85.344-85.344v0h426.656c47.136 0 85.344 38.208 85.344 85.344v0 554.656h42.656v85.344h-213.344v42.656h-256zM384 618.656h85.344v-384h-85.344v384zM554.656 618.656h85.344v-384h-85.344v384z" />
<glyph unicode="&#xe933;" glyph-name="upload" d="M1006.446 291.328c0.193 2.145 0.302 4.64 0.302 7.16 0 46.913-38.030 84.943-84.943 84.943-2.647 0-5.266-0.121-7.851-0.358l0.332 0.025q-101.815 0-203.63 0c-41.74 0-41.301 0-39.936 41.545 0.39 11.605 4.389 14.629 15.262 14.629q47.884-0.78 95.817 0c0.949-0.040 2.062-0.063 3.18-0.063 33.275 0 61.83 20.212 74.055 49.029l0.199 0.527c5.218 10.126 8.276 22.098 8.276 34.785 0 22.534-9.65 42.814-25.042 56.933l-0.057 0.051q-141.41 142.141-283.892 283.453c-14.097 13.99-33.515 22.636-54.952 22.636-20.772 0-39.647-8.117-53.628-21.353l0.036 0.034q-145.115-142.726-288.28-287.695c-14.214-13.691-23.043-32.889-23.043-54.148 0-12.622 3.112-24.518 8.611-34.961l-0.197 0.411c12.146-29.716 40.831-50.273 74.317-50.273 0.976 0 1.948 0.017 2.915 0.052l-0.14-0.004c25.307-0.293 50.566 0 75.874 0 35.645 0 34.572 0 35.791-35.889 0.585-17.603-5.998-20.48-21.748-20.334-73.874 0.78-147.749 0.439-221.623 0.341-2.415 0.243-5.219 0.382-8.055 0.382-46.967 0-85.041-38.074-85.041-85.041 0-3.072 0.163-6.105 0.48-9.092l-0.032 0.372q0-100.742 0-201.533c-0.49-3.438-0.77-7.409-0.77-11.446 0-47.209 38.271-85.48 85.48-85.48 3.899 0 7.737 0.261 11.498 0.767l-0.439-0.048h407.698q205.629 0 411.258 0c2.254-0.213 4.875-0.334 7.523-0.334 46.886 0 84.894 38.009 84.894 84.894 0 2.538-0.111 5.050-0.329 7.531l0.023-0.322q0 104.107-0.195 207.872zM222.647 522.898l156.282 156.038c37.644 37.595 75.483 75.045 112.786 113.030 7.997 8.143 12.824 10.435 22.187 0.975q130.048-131.072 260.925-261.266c1.755-1.755 3.072-3.95 6.973-8.826h-109.519c-22.626 0-45.3-0.878-67.877 0.293-14.629 0.731-17.652-4.876-17.554-18.334 0.536-79.823 0-159.646 0.683-239.421 0-17.067-3.462-23.064-21.748-22.43-42.569 1.463-85.187 1.122-127.756 0-15.019-0.341-19.066 4.145-18.968 19.017 0.731 79.823-0.293 159.646 0.829 239.47 0.244 18.286-5.461 21.992-22.479 21.699-56.466-0.926-112.933-0.244-174.763-0.244zM906.825 75.605c-31.89 0.683-63.878 0.244-95.817 0.244h-309.394c-132.389 0-264.826 0.293-397.214-0.39-16.823 0-21.163 4.876-20.87 21.163 0.975 61.147 0.78 122.344 0 183.491 0 14.141 2.536 19.797 18.383 19.505q107.764-1.317 215.528 0c15.994 0 18.578-5.754 18.334-19.505-0.64-5.685-1.005-12.274-1.005-18.949 0-14.326 1.681-28.258 4.858-41.612l-0.244 1.218c9.733-35.306 41.558-60.806 79.339-60.806 0.084 0 0.169 0 0.253 0h-0.013q83.822-1.024 167.692 0c0.073 0 0.159 0 0.245 0 46.21 0 83.697 37.35 83.918 83.508v0.021c0.439 13.946 0.536 27.941 0 41.886-0.39 9.752 2.487 14.287 13.361 14.238q112.786-0.536 225.573 0c11.313 0 12.922-5.266 12.922-14.629 0-64.512-0.39-129.024 0-193.536 0.293-12.288-3.803-16.14-15.848-15.896zM810.667 228.035c-22.336-0.057-40.422-18.177-40.422-40.521 0-22.379 18.142-40.521 40.521-40.521 22.242 0 40.299 17.92 40.519 40.11v0.021c0.104 1.050 0.164 2.27 0.164 3.504 0 20.736-16.81 37.547-37.547 37.547-1.139 0-2.266-0.051-3.38-0.15l0.144 0.010z" />
<glyph unicode="&#xe934;" glyph-name="view-dashboard" d="M554.656 832v-256h341.344v256zM554.656 64h341.344v426.656h-341.344zM128 64h341.344v256h-341.344zM128 405.344h341.344v426.656h-341.344v-426.656z" />
<glyph unicode="&#xe935;" glyph-name="volume-control-phone" horiz-adv-x="800" d="M352.576-5.152c0 13.728-30.272 110.848-36.576 133.696-3.424 14.304-4.576 37.696-15.424 48.032-7.424 6.848-19.424 8-29.152 8-26.848 0-53.728-6.304-80.576-6.304-8 0-20 0.576-26.848 6.304-9.152 7.424-13.728 33.12-17.152 44.576-13.728 47.424-21.152 96-21.152 145.696s7.424 98.304 21.152 145.696c3.424 11.456 8 37.152 17.152 44.576 6.848 5.696 18.88 6.304 26.848 6.304 26.848 0 53.728-6.304 80.576-6.304 9.728 0 21.728 1.12 29.152 8 10.848 10.272 12 33.728 15.424 48.032 6.304 22.848 36.576 120 36.576 133.696 0 19.424-51.424 48.032-68 54.272-8.544 3.424-17.152 4.576-25.696 4.576-18.88 0-37.696-5.152-56-10.272-93.696-28-116-85.152-153.152-165.696-40-86.272-49.696-168.544-49.696-262.848s9.728-176.576 49.696-262.848c37.152-80.576 59.424-137.728 153.152-165.696 18.272-5.152 37.152-10.272 56-10.272 8.544 0 17.152 1.12 25.696 4.576 16.576 6.304 68 34.848 68 54.272zM443.424 516.576c-9.728 0-18.88 4-25.696 10.848-14.304 14.304-14.848 37.696 0 52 13.728 13.728 21.152 32 21.152 51.424s-7.424 37.696-21.152 52c-14.848 14.304-14.304 37.152 0 51.424s37.152 14.304 51.424 0c27.424-27.424 42.848-64.576 42.848-103.424s-15.424-76-42.848-103.424c-7.424-6.848-16.576-10.848-25.696-10.848zM546.848 413.152c-9.728 0-18.88 3.424-25.696 10.848-14.304 14.304-14.304 37.152 0 51.424 41.152 41.728 64 96.576 64 155.424s-22.848 113.696-64 155.424c-14.304 14.304-14.304 37.152 0 51.424s37.152 14.304 51.424 0c55.456-55.456 85.728-128.576 85.728-206.848s-30.272-151.456-85.728-206.848c-6.848-7.424-16.576-10.848-25.696-10.848zM650.272 309.728c-9.728 0-18.88 3.424-25.696 10.848-14.304 14.304-14.304 37.152 0 51.424 68.576 69.152 106.848 161.12 106.848 258.848s-38.304 189.696-106.848 258.848c-14.304 14.304-14.304 37.152 0 51.424s37.152 14.304 51.424 0c82.88-82.88 128.576-193.12 128.576-310.272s-45.728-227.424-128.576-310.272c-6.848-7.424-16.576-10.848-25.696-10.848z" />
<glyph unicode="&#xe936;" glyph-name="youtube" d="M426.656 320l221.44 128-221.44 128v-256zM919.904 654.080c5.536-20.064 9.376-46.944 11.936-81.056 2.976-34.144 4.256-63.584 4.256-89.184l2.56-35.84c0-93.44-6.816-162.144-18.784-206.080-10.656-38.4-35.424-63.136-73.824-73.824-20.064-5.536-56.736-9.376-113.056-11.936-55.456-2.976-106.24-4.256-153.184-4.256l-67.84-2.56c-178.784 0-290.144 6.816-334.080 18.784-38.4 10.656-63.136 35.424-73.824 73.824-5.536 20.064-9.376 46.944-11.936 81.056-2.976 34.144-4.256 63.584-4.256 89.184l-2.56 35.84c0 93.44 6.816 162.144 18.784 206.080 10.656 38.4 35.424 63.136 73.824 73.824 20.064 5.536 56.736 9.376 113.056 11.936 55.456 2.976 106.24 4.256 153.184 4.256l67.84 2.56c178.784 0 290.144-6.816 334.080-18.784 38.4-10.656 63.136-35.424 73.824-73.824z" />
</font>
</defs>
</svg>
