<svg width="59" height="49" viewBox="0 0 59 49" fill="none" xmlns="http://www.w3.org/2000/svg">
<g clip-path="url(#clip0_12350_32161)">
<path d="M43.1043 0.00715934C42.9172 0.0296216 42.7449 0.119851 42.62 0.26074C42.4951 0.401628 42.4263 0.583382 42.4267 0.771536V9.90067H22.6718C22.4691 9.90196 22.2752 9.98288 22.1319 10.126C21.9886 10.269 21.9075 10.4627 21.9062 10.665V21.2184C21.9075 21.4207 21.9886 21.6144 22.1319 21.7574C22.2752 21.9005 22.4691 21.9815 22.6718 21.9827H42.4267V31.1128C42.4306 31.263 42.4785 31.4087 42.5645 31.5319C42.6505 31.6551 42.7707 31.7505 42.9104 31.8062C43.05 31.8619 43.203 31.8756 43.3503 31.8454C43.4977 31.8153 43.6329 31.7427 43.7394 31.6366L58.7887 16.4792C58.9278 16.3357 59.0056 16.1439 59.0056 15.9442C59.0056 15.7445 58.9278 15.5526 58.7887 15.4091L43.7355 0.225126C43.6534 0.143717 43.5541 0.0818376 43.4448 0.0440972C43.3355 0.00635674 43.2191 -0.0062673 43.1043 0.00715934Z" fill="#00CA75"/>
<path d="M15.7372 17.1515C15.5633 17.1702 15.401 17.2474 15.2769 17.3705L0.22857 32.5278C0.0843564 32.6713 0.0028865 32.866 0.00196109 33.0693C0.00103569 33.2726 0.0807313 33.4679 0.223633 33.6127L0.22857 33.6177L15.2769 48.774C15.3847 48.8814 15.522 48.9544 15.6714 48.9838C15.8209 49.0131 15.9756 48.9976 16.1162 48.9391C16.2567 48.8806 16.3768 48.7818 16.461 48.6551C16.5453 48.5285 16.59 48.3797 16.5896 48.2276V39.1202H36.3445C36.5471 39.1189 36.7411 39.038 36.8843 38.8949C37.0276 38.7518 37.1087 38.5582 37.11 38.3558V27.8025C37.1126 27.7013 37.0952 27.6006 37.0588 27.5061C37.0224 27.4116 36.9676 27.3253 36.8977 27.252C36.8278 27.1787 36.744 27.1199 36.6513 27.0789C36.5586 27.038 36.4587 27.0158 36.3573 27.0135H16.5896V17.905C16.5893 17.7012 16.508 17.5058 16.3636 17.3617C16.2191 17.2176 16.0233 17.1367 15.8191 17.1367C15.7916 17.1401 15.7642 17.1451 15.7372 17.1515Z" fill="#0A7560"/>
</g>
<defs>
<clipPath id="clip0_12350_32161">
<rect width="59" height="49" fill="white"/>
</clipPath>
</defs>
</svg>
