<svg width="25" height="19" viewBox="0 0 25 19" fill="none" xmlns="http://www.w3.org/2000/svg">
<path d="M23.0009 0.587891H2.00043L0 3.83056C0.00092201 4.23546 0.125371 4.63048 0.356795 4.96308C0.588219 5.29569 0.91565 5.55012 1.29554 5.69253C1.67542 5.83493 2.08976 5.85857 2.48344 5.7603C2.87713 5.66203 3.23149 5.4465 3.49941 5.14238C3.68665 5.35542 3.91733 5.52612 4.176 5.64306C4.43468 5.76 4.7154 5.8205 4.9994 5.8205C5.28339 5.8205 5.56411 5.76 5.82279 5.64306C6.08146 5.52612 6.31214 5.35542 6.49938 5.14238C6.68663 5.35542 6.9173 5.52612 7.17598 5.64306C7.43466 5.76 7.71537 5.8205 7.99937 5.8205C8.28336 5.8205 8.56408 5.76 8.82276 5.64306C9.08144 5.52612 9.31211 5.35542 9.49935 5.14238C9.68666 5.35544 9.91739 5.52614 10.1761 5.64309C10.4349 5.76004 10.7156 5.82053 10.9997 5.82053C11.2837 5.82053 11.5645 5.76004 11.8232 5.64309C12.082 5.52614 12.3127 5.35544 12.5 5.14238C12.6872 5.35542 12.9179 5.52612 13.1766 5.64306C13.4353 5.76 13.716 5.8205 14 5.8205C14.284 5.8205 14.5647 5.76 14.8234 5.64306C15.0821 5.52612 15.3127 5.35542 15.5 5.14238C15.6872 5.35542 15.9179 5.52612 16.1766 5.64306C16.4352 5.76 16.716 5.8205 17 5.8205C17.284 5.8205 17.5647 5.76 17.8234 5.64306C18.082 5.52612 18.3127 5.35542 18.4999 5.14238C18.6872 5.35542 18.9179 5.52612 19.1765 5.64306C19.4352 5.76 19.7159 5.8205 19.9999 5.8205C20.2839 5.8205 20.5646 5.76 20.8233 5.64306C21.082 5.52612 21.3127 5.35542 21.4999 5.14238C21.7678 5.44675 22.1222 5.6625 22.516 5.76092C22.9098 5.85934 23.3243 5.83577 23.7043 5.69333C24.0844 5.55089 24.4119 5.29635 24.6434 4.96358C24.8748 4.63082 24.9992 4.23561 25 3.83056L23.0009 0.587891Z" fill="#00CA75"/>
<path d="M21.5002 6.41602C21.0584 6.71787 20.5356 6.8794 20.0002 6.8794C19.4648 6.8794 18.9419 6.71787 18.5002 6.41602C18.0585 6.71787 17.5356 6.8794 17.0002 6.8794C16.4648 6.8794 15.9419 6.71787 15.5002 6.41602C15.0585 6.71787 14.5356 6.8794 14.0002 6.8794C13.4648 6.8794 12.942 6.71787 12.5002 6.41602C12.0584 6.71793 11.5354 6.87949 10.9999 6.87949C10.4644 6.87949 9.94142 6.71793 9.4996 6.41602C9.05788 6.71787 8.535 6.8794 7.99961 6.8794C7.46422 6.8794 6.94134 6.71787 6.49962 6.41602C6.05791 6.71787 5.53503 6.8794 4.99964 6.8794C4.46425 6.8794 3.94137 6.71787 3.49965 6.41602C3.05687 6.71542 2.53488 6.87673 2 6.87945V18.0487H4.24981V9.0685H8.75347V18.0487H23.0038V6.87945C22.4676 6.87741 21.9441 6.71607 21.5002 6.41602ZM20.75 14.8061H11.0033V9.0685H20.75V14.8061Z" fill="#00CA75"/>
</svg>
