<svg width="144" height="175" viewBox="0 0 144 175" fill="none" xmlns="http://www.w3.org/2000/svg">
<path d="M65.4191 70.001L61.3184 76.0755L47.2363 94.0446L74.6694 127.82L97.239 94.9351L83.4747 76.2027L74.6694 70.6371L65.4191 70.001Z" fill="white"/>
<path d="M72.3177 169.706L71.2051 148.525H90.8501C90.8501 148.525 96.1905 154.854 100.673 169.706H72.3177Z" fill="#1B3F31"/>
<path d="M79.5006 148.525L78.388 169.706H44.502C48.3165 154.695 53.1801 148.525 53.1801 148.525H79.5006Z" fill="#1B3F31"/>
<path d="M39.9249 139.81L38.8759 143.594L31.6282 169.705H23.3633L28.0997 142.259L28.6083 139.269C28.6401 139.269 34.4891 136.311 39.9249 139.81Z" fill="#D3966C"/>
<path d="M43.2302 80.9727C43.2302 80.9727 38.5574 80.909 35.7282 94.8709C32.9309 108.833 29.0527 130.841 29.0527 130.841L25.9375 141.972L40.6236 143.785L41.1004 140.541L49.0792 123.431L43.2302 80.9727Z" fill="#B3FFB3"/>
<path d="M50.2879 82.1491L52.7356 77.951L61.7316 74.1028L81.7581 73.7529L93.2336 78.6189L92.4389 107.91H49.7793L50.2879 82.1491Z" fill="#D3966C"/>
<path d="M82.7106 75.4081C80.1358 85.6489 72.5384 96.6212 72.5384 96.6212C65.8629 90.0378 61.7305 74.0723 61.7305 74.0723L63.0974 57.2799C64.3689 58.2658 64.8139 58.9973 65.8629 59.6334C69.8682 62.0505 74.9225 61.8914 78.7689 59.2517C79.9768 58.4566 80.0722 57.4071 81.4073 56.0396L82.7106 75.4081Z" fill="#D3966C"/>
<path d="M82.7106 75.4081C80.1358 85.6489 72.5384 96.6212 72.5384 96.6212C65.8629 90.0378 61.7305 74.0723 61.7305 74.0723L62.9066 59.3471L63.0656 57.2799C64.3371 58.2658 64.7821 58.9973 65.8311 59.6334C69.8364 62.0505 74.8907 61.8914 78.7689 59.2517C79.9768 58.4566 80.0722 57.4071 81.4073 56.0396L82.1702 67.2027L82.7106 75.4081Z" fill="#D3966C"/>
<g opacity="0.03">
<path opacity="0.03" d="M39.8594 132.558L48.2196 100.118L49.7773 104.793L46.3759 129.6L43.5786 135.611L39.8594 132.558Z" fill="#1B3F31"/>
</g>
<path d="M120.668 169.705H112.307L105.346 144.612L104.297 140.827C109.733 137.329 115.582 140.287 115.582 140.287L116.09 143.276L120.668 169.705Z" fill="#D3966C"/>
<path d="M100.988 81.9902C100.988 81.9902 105.661 81.9266 108.49 95.8885C111.287 109.85 115.165 131.859 115.165 131.859L118.28 142.99L103.594 144.803L103.117 141.559L95.1387 124.448L100.988 81.9902Z" fill="#B3FFB3"/>
<g opacity="0.03">
<path opacity="0.03" d="M104.36 133.577L95.9678 101.137L94.4102 105.812L97.8115 130.587L100.609 136.598L104.36 133.577Z" fill="#1B3F31"/>
</g>
<path d="M98.6063 137.329L105.028 169.705H40.4023L46.8235 137.329L48.0315 131.159L47.2368 127.406L46.8871 125.816L44.4712 114.589L41.0699 98.751L43.1997 81.0045V80.9409L55.6288 76.0113C55.6288 76.0113 55.6924 76.2339 55.7878 76.6155C56.0103 77.4742 56.4553 79.1598 57.1547 81.3225C59.6659 89.019 65.3242 102.377 74.2884 101.931C81.3454 101.041 85.5096 89.0826 87.4487 81.6405C88.0209 79.4461 88.4024 77.6651 88.5931 76.6473C88.6884 76.0749 88.752 75.7568 88.752 75.7568L102.262 82.4038L102.294 82.531L106.522 97.3516L100.545 118.978L97.6209 129.473L97.5891 129.76L97.303 130.777L98.6063 137.329Z" fill="#B3FFB3"/>
<path d="M90.0205 13.3258C90.7198 15.6475 90.5609 18.2872 91.9596 20.259C92.9768 21.6584 94.6298 22.4535 95.8695 23.6303C98.4443 26.1109 98.9847 30.1182 98.4443 33.6484C98.0311 36.2882 97.2046 39.2777 98.8576 41.3768C99.3344 42.0128 100.002 42.4581 100.606 42.9669C102.99 45.0342 104.293 48.1192 104.802 51.2359C105.311 54.3527 105.12 57.5331 104.897 60.6816C104.866 61.0633 104.834 61.4449 104.675 61.7948C104.293 62.4945 103.403 62.6535 102.64 62.7489C95.7741 63.5758 88.1768 67.7421 81.2788 67.1696C80.9291 67.1378 80.2616 61.3495 80.1026 60.8407C78.3225 54.5117 78.545 47.8011 78.0046 41.2177C77.5278 35.4295 76.4788 29.7048 76.1927 23.9165C75.9702 19.2413 76.2881 14.439 77.8139 9.98643C78.4179 8.23722 78.8311 6.83786 80.8338 6.74245C82.7092 6.64704 84.6165 7.31491 86.1741 8.33264C87.9543 9.50938 89.3847 11.2586 90.0205 13.3258Z" fill="#351809"/>
<g opacity="0.41">
<path opacity="0.41" d="M82.14 67.2648C78.8976 69.3002 74.7652 69.3638 71.491 67.3602C70.6009 66.8195 69.5837 66.1834 68.4711 65.3565C66.691 63.989 64.7201 62.1443 62.9082 59.3774L63.0671 57.3102C64.3387 58.2961 64.7837 59.0276 65.8327 59.6637C69.838 62.0807 74.8923 61.9217 78.7705 59.282C79.9784 58.4869 80.0738 57.4374 81.4089 56.0698L82.14 67.2648Z" fill="#AF6C4B"/>
</g>
<path d="M90.0205 13.3258C90.7198 15.6475 90.5609 18.2872 91.9596 20.259C92.9768 21.6584 94.6298 22.4535 95.8695 23.6303C98.4443 26.1109 98.9847 30.1182 98.4443 33.6484C98.0311 36.2882 97.2046 39.2777 98.8576 41.3768C99.3344 42.0128 100.002 42.4581 100.606 42.9669C102.99 45.0342 104.293 48.1192 104.802 51.2359C105.311 54.3527 105.12 57.5331 104.897 60.6816C104.866 61.0633 104.834 61.4449 104.675 61.7948C104.293 62.4945 103.403 62.6535 102.64 62.7489C95.7741 63.5758 88.1768 67.7421 81.2788 67.1696C80.9291 67.1378 80.2616 61.3495 80.1026 60.8407C78.3225 54.5117 78.545 47.8011 78.0046 41.2177C77.5278 35.4295 76.4788 29.7048 76.1927 23.9165C75.9702 19.2413 76.2881 14.439 77.8139 9.98643C78.4179 8.23722 78.8311 6.83786 80.8338 6.74245C82.7092 6.64704 84.6165 7.31491 86.1741 8.33264C87.9543 9.50938 89.3847 11.2586 90.0205 13.3258Z" fill="#351809"/>
<path d="M53.1181 13.3258C52.4188 15.6475 52.5777 18.2872 51.1791 20.2591C50.1618 21.6584 48.5089 22.4535 47.2691 23.6303C44.6943 26.1109 44.1539 30.1182 44.6943 33.6484C45.1075 36.2882 45.934 39.2777 44.281 41.3768C43.8042 42.0128 43.1367 42.4581 42.5327 42.9669C40.1486 45.0342 38.8453 48.1192 38.3367 51.2359C37.8281 54.3527 38.0188 57.5331 38.2413 60.6816C38.2731 61.0633 38.3049 61.4449 38.4638 61.7948C38.8453 62.4945 39.7353 62.6535 40.4983 62.7489C47.3645 63.5758 55.3115 66.1837 62.2095 65.6112C62.5592 65.5794 62.9088 61.3495 63.0678 60.8407C64.8479 54.5117 64.6254 47.8011 65.1658 41.2177C65.6426 35.4295 66.6916 29.7048 66.9777 23.9165C67.2002 19.2413 66.8824 14.439 65.3565 9.98643C64.7526 8.23722 64.3393 6.83786 62.3367 6.74245C60.4612 6.64704 58.5539 7.31491 56.9963 8.33264C55.2161 9.50938 53.7539 11.2586 53.1181 13.3258Z" fill="#351809"/>
<path d="M53.0848 40.8355C55.2464 52.094 59.8557 57.3098 63.6703 60.204C64.751 61.0309 65.8001 61.6669 66.6901 62.2076C70.0914 64.2749 74.3828 64.1158 77.6888 61.8896C78.706 61.1899 79.7868 60.2994 80.8994 59.1544C84.1418 55.8469 87.5749 50.3448 89.7683 41.2807L91.8345 31.7396C91.8345 31.7396 91.3577 15.5833 80.2318 12.2439C69.106 8.90449 61.6358 12.4347 61.6358 12.4347C61.6358 12.4347 49.3656 21.4352 53.0848 40.8355Z" fill="#D3966C"/>
<path d="M62.5887 36.0026C63.0628 36.0026 63.447 35.6181 63.447 35.1439C63.447 34.6696 63.0628 34.2852 62.5887 34.2852C62.1147 34.2852 61.7305 34.6696 61.7305 35.1439C61.7305 35.6181 62.1147 36.0026 62.5887 36.0026Z" fill="#0B0C0C"/>
<path d="M80.1688 36.0021C80.6428 36.0021 81.0271 35.6176 81.0271 35.1434C81.0271 34.6691 80.6428 34.2847 80.1688 34.2847C79.6948 34.2847 79.3105 34.6691 79.3105 35.1434C79.3105 35.6176 79.6948 36.0021 80.1688 36.0021Z" fill="#0B0C0C"/>
<g opacity="0.57">
<path opacity="0.57" d="M68.248 53.4939C68.248 53.4939 68.9474 55.7838 72.9209 55.2749C76.9262 54.766 79.3103 50.0591 79.3103 50.0591L68.248 53.4939Z" fill="#AF6C4B"/>
</g>
<path d="M69.519 53.9713C68.025 53.9713 67.1349 53.7486 67.1031 53.7486C66.976 53.7168 66.8806 53.5896 66.9124 53.4306C66.9442 53.3034 67.0714 53.208 67.2303 53.2398C67.2939 53.2716 73.5243 54.83 80.0091 49.4233C80.1045 49.3279 80.2634 49.3597 80.3588 49.4551C80.4541 49.5505 80.4223 49.7096 80.327 49.805C76.1309 53.3034 71.9985 53.9713 69.519 53.9713Z" fill="#AF6C4B"/>
<path d="M80.8353 50.4086C80.74 50.4086 80.6446 50.345 80.6128 50.2496C80.4539 49.7725 79.8181 49.2637 79.5956 49.1047C79.4684 49.0411 79.4366 48.882 79.532 48.7548C79.5956 48.6276 79.7545 48.5958 79.8817 48.6912C79.9135 48.723 80.8353 49.3273 81.0896 50.0906C81.1214 50.2178 81.0579 50.345 80.9307 50.4086C80.8671 50.4086 80.8671 50.4086 80.8353 50.4086Z" fill="#CE875F"/>
<path d="M78.4217 29.2915C77.9448 29.4823 77.4044 29.8639 77.468 30.182C77.5316 30.4046 77.8177 30.5 78.1038 30.5C78.3899 30.5 78.7077 30.4364 78.9938 30.3728C81.3462 29.9593 83.6349 30.4682 85.5422 31.7085C85.6375 31.7721 85.7329 31.8358 85.8283 31.804C85.9236 31.7721 85.9236 31.6767 85.8919 31.5813C85.8283 29.1006 80.4879 27.9875 78.4217 29.2915Z" fill="#351809"/>
<path d="M64.7509 29.2915C65.2277 29.4823 65.7681 29.8639 65.7046 30.182C65.641 30.4046 65.3549 30.5 65.0688 30.5C64.7827 30.5 64.4648 30.4364 64.1787 30.3728C61.8264 29.9593 59.5377 30.4682 57.6304 31.7085C57.535 31.7721 57.4397 31.8358 57.3443 31.804C57.2489 31.7721 57.2489 31.6767 57.2807 31.5813C57.3443 29.1006 62.7165 27.9875 64.7509 29.2915Z" fill="#351809"/>
<path d="M81.2816 18.5419C81.2816 18.5419 78.1663 23.5987 73.112 21.6587C68.0577 19.7187 65.324 25.5387 62.622 25.1571C59.8882 24.7755 55.6286 23.5987 55.6286 29.0372C55.6286 34.4756 54.0074 35.1117 54.0074 35.1117L51.369 34.094C51.369 34.094 49.1756 13.1671 60.2061 7.28338C59.2842 7.18797 68.5028 1.5269 79.7557 6.71091C91.0087 11.8949 88.3067 16.9517 88.3067 16.9517L81.2816 18.5419Z" fill="#351809"/>
<path d="M81.6627 16.9835L81.2812 18.5419C81.2812 18.5419 81.2812 21.277 84.015 23.9803C86.7488 26.7154 87.5117 25.1571 87.8932 27.8604C88.2746 30.5637 89.4826 35.2071 91.2309 35.4297C92.9475 35.6523 93.7422 34.0939 93.7422 34.0939L92.1846 27.0971L89.864 19.3052L87.0985 15.0435L81.6627 16.9835Z" fill="#351809"/>
<path d="M89.9581 40.2325C91.1661 40.2961 91.5158 39.2466 92.1515 37.1475C92.7873 35.0485 91.4522 34.2852 90.0535 34.476C88.6548 34.6668 88.623 36.6705 88.623 36.6705L89.9581 40.2325Z" fill="#D3966C"/>
<path d="M89.8644 38.6741C89.6737 38.6741 89.5147 38.5787 89.4194 38.3879C89.2922 38.1334 89.3876 37.8472 89.6419 37.72C89.8008 37.6564 89.928 37.5928 90.0551 37.4973C90.1187 37.4337 90.1823 37.3701 90.1823 37.3065C90.1823 37.2747 90.1823 37.2111 90.1505 37.1793C90.1187 37.1475 90.0551 37.1475 90.0233 37.1475C89.769 37.2111 89.4829 37.0839 89.4194 36.8295C89.3558 36.575 89.4829 36.2888 89.7372 36.2252C90.1187 36.098 90.5319 36.2252 90.8498 36.4796C91.1359 36.7659 91.2631 37.1793 91.1677 37.561C91.1041 37.8472 90.9452 38.1016 90.6909 38.2924C90.5001 38.4515 90.2776 38.5469 90.1187 38.6423C89.9915 38.6423 89.928 38.6741 89.8644 38.6741Z" fill="#AF6C4B"/>
<path d="M70.2174 45.5747C70.1857 45.5747 70.1221 45.5747 70.0903 45.5429C69.9314 45.4793 68.4055 45.0341 67.8333 43.9209C67.6108 43.4439 67.579 42.9032 67.7698 42.3944C68.0559 41.6629 68.5645 41.2812 69.0413 40.9314C69.8678 40.2953 70.8214 39.5956 71.2029 36.5425C71.2347 36.2562 71.489 36.0654 71.7433 36.0972C72.0294 36.129 72.2201 36.3834 72.1883 36.6379C71.7751 40.0727 70.5989 40.9632 69.6453 41.6947C69.2002 42.0127 68.8824 42.2671 68.6916 42.7442C68.5963 43.0304 68.5963 43.2531 68.6916 43.4757C69.0095 44.08 69.9631 44.4934 70.3446 44.5888C70.5989 44.6524 70.7578 44.9387 70.6943 45.1931C70.6307 45.4475 70.4082 45.5747 70.2174 45.5747Z" fill="#AF6C4B"/>
<path d="M53.9769 36.6705C53.9769 36.6705 53.9451 34.6351 52.5465 34.476C51.116 34.317 49.7809 35.0485 50.4485 37.1476C51.116 39.2466 51.4657 40.2961 52.6418 40.2325L53.2776 40.1371L53.9769 36.6705Z" fill="#D3966C"/>
<path d="M52.7345 38.6742C52.6709 38.6742 52.5755 38.6424 52.512 38.6106C52.3212 38.5151 52.1305 38.4197 51.9398 38.2607C51.6855 38.0699 51.5265 37.8155 51.4629 37.5292C51.3676 37.1476 51.4947 36.7341 51.7808 36.4479C52.0669 36.1617 52.512 36.0663 52.8934 36.1935C53.1477 36.2571 53.3066 36.5433 53.2113 36.7977C53.1159 37.0522 52.8616 37.2112 52.6073 37.1158C52.5755 37.1158 52.512 37.1158 52.4802 37.1476C52.4484 37.1794 52.4166 37.243 52.4484 37.2748C52.4484 37.3384 52.512 37.402 52.5755 37.4656C52.6709 37.561 52.8298 37.6246 52.9888 37.6882C53.2431 37.8155 53.3384 38.1017 53.2113 38.3561C53.0841 38.5788 52.9252 38.6742 52.7345 38.6742Z" fill="#AF6C4B"/>
<path d="M144 137.328H0L25.5894 95.8242H119.905L144 137.328Z" fill="#00CC75"/>
<path d="M68.8199 127.534C67.6437 128.043 66.2451 128.298 64.7192 128.298C62.1762 128.298 60.2053 127.693 58.7749 126.485C57.3444 125.244 56.6451 123.591 56.6133 121.428H62.9391C62.8755 122.191 63.0027 122.764 63.3524 123.114C63.702 123.463 64.1788 123.654 64.8146 123.654C65.3232 123.654 65.7365 123.527 66.0543 123.273C66.3722 123.018 66.5947 122.668 66.6583 122.191C66.6901 122.128 66.6901 122 66.6901 121.873C66.6901 121.269 66.4358 120.792 65.9272 120.442C65.4186 120.092 64.5603 119.647 63.4159 119.138C62.2716 118.661 61.3497 118.216 60.6186 117.802C59.8875 117.357 59.2517 116.785 58.7431 116.021C58.2027 115.258 57.9484 114.272 57.9484 113.127C57.9484 112.714 58.012 112.205 58.1073 111.601C58.4252 109.979 59.3153 108.675 60.8411 107.752C62.3669 106.83 64.1788 106.353 66.2769 106.353C68.9153 106.353 70.8861 106.925 72.2212 108.102C73.5245 109.279 74.2239 110.901 74.2875 112.968H67.8981C67.9298 112.3 67.8027 111.823 67.5166 111.473C67.2305 111.155 66.7855 110.996 66.2451 110.996C65.7365 110.996 65.3232 111.124 65.0053 111.41C64.6875 111.696 64.5285 112.11 64.5285 112.682C64.5285 113.223 64.7828 113.668 65.2596 114.018C65.7682 114.368 66.5629 114.749 67.6755 115.194C68.8199 115.64 69.7735 116.085 70.5047 116.53C71.2358 116.944 71.8716 117.548 72.412 118.311C72.9524 119.075 73.2067 120.06 73.2067 121.237C73.2067 121.651 73.1749 122.128 73.0477 122.732C72.857 123.75 72.412 124.704 71.7126 125.563C70.9815 126.389 70.0279 127.057 68.8199 127.534Z" fill="#B8FFB8"/>
<path d="M85.0946 99.2285H90.7529L76.5754 133.926H70.8535L85.0946 99.2285Z" fill="#B8FFB8"/>
<path d="M140.821 169.705H3.17881L0 137.329H144L140.821 169.705Z" fill="#00CC75"/>
<path d="M144 137.329L140.821 169.705H3.17881L0 137.329H144Z" fill="#00CC75"/>
<path d="M144 137.329L140.821 169.705H3.17881L0 137.329H144Z" fill="#00CC75"/>
<g opacity="0.35">
<path opacity="0.35" d="M143.585 141.527C137.609 141.908 131.633 142.004 125.657 142.036C122.669 142.036 119.681 142.004 116.693 141.972C113.705 141.94 110.717 141.845 107.729 141.749L98.7643 141.463C95.7762 141.368 92.7881 141.272 89.8 141.241C83.8239 141.145 77.8477 141.113 71.8716 141.145C65.8954 141.177 59.9192 141.209 53.9431 141.177C47.9669 141.145 41.9908 141.145 36.0146 141.113C24.0623 140.986 12.1418 140.795 0.189453 140.445V140.35C12.1418 140.096 24.0623 140.064 36.0146 140.096C41.9908 140.127 47.9669 140.223 53.9431 140.286C59.9192 140.35 65.8954 140.477 71.8398 140.636C77.8159 140.764 83.7921 140.891 89.7682 140.954L94.2504 140.986H98.7325C101.721 140.986 104.709 140.986 107.697 141.018C119.649 141.241 131.57 141.559 143.522 141.495L143.585 141.527Z" fill="#1B3F31"/>
</g>
<g opacity="0.35">
<path opacity="0.35" d="M143.238 145.089C137.294 145.471 131.349 145.566 125.405 145.566C119.461 145.566 113.516 145.471 107.572 145.28L98.6712 144.993C95.7149 144.898 92.7268 144.803 89.7705 144.771C86.8142 144.707 83.8261 144.707 80.8698 144.675C77.9135 144.644 74.9255 144.675 71.9692 144.675C66.0248 144.707 60.0804 144.739 54.1361 144.707C48.1917 144.707 42.2473 144.675 36.3029 144.644C24.4142 144.516 12.5255 144.326 0.636719 143.976V143.88C12.5255 143.626 24.4142 143.594 36.3029 143.626C42.2473 143.658 48.1917 143.753 54.1361 143.817C60.0804 143.88 66.0248 144.008 71.9692 144.167C77.9135 144.294 83.8579 144.421 89.8023 144.485L94.2526 144.516H98.7029C101.659 144.516 104.647 144.516 107.635 144.548C119.524 144.771 131.381 145.089 143.27 145.057L143.238 145.089Z" fill="#1B3F31"/>
</g>
<g opacity="0.35">
<path opacity="0.35" d="M142.919 148.619C137.006 148.969 131.094 149.064 125.181 149.096C119.268 149.096 113.356 149 107.443 148.809L98.5425 148.523C95.5862 148.428 92.63 148.332 89.6737 148.301C88.1796 148.269 86.7174 148.237 85.2233 148.237L80.773 148.205C77.8167 148.173 74.8604 148.205 71.9041 148.205C65.9915 148.237 60.079 148.269 54.1664 148.237C48.2538 148.237 42.3412 148.205 36.4286 148.173C24.6035 148.046 12.7783 147.855 0.953125 147.506V147.41C12.7783 147.156 24.6035 147.124 36.4286 147.156C42.3412 147.187 48.2538 147.283 54.1664 147.347C60.079 147.41 65.9915 147.537 71.9041 147.696C77.8167 147.824 83.7293 147.951 89.6419 147.983C92.5982 148.014 95.5545 148.014 98.5107 147.983C101.467 147.983 104.423 147.983 107.38 148.014C119.205 148.237 131.03 148.555 142.855 148.523L142.919 148.619Z" fill="#1B3F31"/>
</g>
<g opacity="0.35">
<path opacity="0.35" d="M142.568 152.182C136.687 152.531 130.806 152.627 124.925 152.659C119.045 152.659 113.132 152.563 107.283 152.372L98.4778 152.086L94.0593 151.959L89.6407 151.864C86.6844 151.8 83.7599 151.8 80.8036 151.768C77.8474 151.736 74.9228 151.768 71.9666 151.768C66.0858 151.8 60.205 151.832 54.3242 151.8C48.4434 151.8 42.5626 151.768 36.6818 151.736C24.9202 151.609 13.1586 151.418 1.36523 151.069V150.973C13.1268 150.719 24.9202 150.687 36.6818 150.719C42.5626 150.75 48.4434 150.846 54.3242 150.909C60.205 150.973 66.0858 151.1 71.9666 151.259C77.8473 151.387 83.7281 151.514 89.6089 151.546C92.5652 151.577 95.4897 151.577 98.446 151.546C101.402 151.546 104.327 151.546 107.283 151.577C119.045 151.8 130.806 152.118 142.568 152.118V152.182Z" fill="#1B3F31"/>
</g>
<g opacity="0.35">
<path opacity="0.35" d="M142.221 155.712C136.372 156.061 130.523 156.157 124.642 156.157C118.793 156.157 112.913 156.061 107.064 155.871L98.2901 155.584L93.9033 155.457L89.5165 155.362C83.6675 155.266 77.8185 155.266 71.9377 155.266C66.0887 155.298 60.2397 155.33 54.3589 155.298C48.5099 155.298 42.6609 155.266 36.7801 155.234C25.0821 155.107 13.3523 154.916 1.6543 154.567V154.471C13.3523 154.217 25.0821 154.185 36.7801 154.217C42.6291 154.249 48.4781 154.344 54.3589 154.408C60.2079 154.471 66.0569 154.598 71.9377 154.757C77.7867 154.885 83.6357 155.012 89.5165 155.044C92.441 155.075 95.3655 155.044 98.2901 155.044C101.215 155.044 104.139 155.044 107.064 155.075C118.762 155.298 130.46 155.616 142.189 155.616L142.221 155.712Z" fill="#1B3F31"/>
</g>
<g opacity="0.35">
<path opacity="0.35" d="M141.871 159.274C136.054 159.592 130.205 159.687 124.387 159.719C118.57 159.719 112.721 159.592 106.904 159.401L98.1623 159.115L93.8073 158.987L89.4524 158.892C83.6352 158.797 77.7861 158.797 71.9689 158.797C66.1517 158.828 60.3027 158.86 54.4855 158.828C48.6683 158.828 42.8193 158.797 37.002 158.765C25.3358 158.638 13.7014 158.447 2.03516 158.097V158.001C13.7014 157.747 25.3358 157.715 37.002 157.747C42.8193 157.779 48.6683 157.874 54.4855 157.938C60.3027 158.001 66.1517 158.129 71.9689 158.288C77.7861 158.415 83.6352 158.542 89.4524 158.574C92.3769 158.606 95.2696 158.574 98.1941 158.574C101.119 158.574 104.011 158.574 106.936 158.606C109.86 158.638 112.753 158.701 115.678 158.765L124.419 158.956C130.236 159.083 136.054 159.146 141.903 159.178L141.871 159.274Z" fill="#1B3F31"/>
</g>
<g opacity="0.35">
<path opacity="0.35" d="M141.523 162.835C135.737 163.153 129.92 163.249 124.135 163.249C118.349 163.249 112.532 163.121 106.746 162.931L98.0683 162.644L93.7133 162.517L89.3584 162.422C83.5729 162.326 77.7557 162.326 71.9703 162.326C66.1849 162.358 60.3676 162.39 54.5822 162.358C48.7968 162.358 42.9796 162.326 37.1941 162.294C25.5915 162.167 14.0206 161.976 2.41797 161.627V161.531C14.0206 161.277 25.6233 161.245 37.1941 161.277C42.9796 161.309 48.7968 161.404 54.5822 161.468C60.3676 161.531 66.1849 161.658 71.9703 161.817C77.7557 161.945 83.5729 162.072 89.3584 162.104C92.2511 162.135 95.1438 162.104 98.0683 162.104C100.961 162.104 103.854 162.104 106.778 162.135C109.671 162.167 112.564 162.231 115.456 162.294L124.135 162.485C129.92 162.613 135.737 162.676 141.523 162.708V162.835Z" fill="#1B3F31"/>
</g>
<g opacity="0.35">
<path opacity="0.35" d="M141.17 166.365C135.417 166.683 129.631 166.778 123.878 166.778C118.092 166.778 112.339 166.651 106.585 166.46L97.9386 166.174L93.6154 166.047L89.2922 165.951C83.5386 165.856 77.7532 165.856 71.9995 165.856C66.2459 165.888 60.4604 165.92 54.7068 165.888C48.9532 165.888 43.1677 165.856 37.4141 165.824C25.875 165.697 14.3359 165.506 2.79688 165.156V165.061C14.3359 164.807 25.875 164.775 37.4141 164.807C43.1677 164.838 48.9532 164.902 54.7068 164.997C60.4604 165.061 66.2459 165.188 71.9995 165.347C77.7532 165.474 83.5386 165.602 89.2922 165.633C92.185 165.665 95.0459 165.633 97.9386 165.633C100.831 165.633 103.724 165.633 106.585 165.665C109.478 165.697 112.339 165.761 115.231 165.824L123.878 166.015C129.631 166.142 135.417 166.206 141.17 166.238V166.365Z" fill="#1B3F31"/>
</g>
<g opacity="0.35">
<path opacity="0.35" d="M110.049 169.737C105.599 169.8 101.117 169.832 96.6667 169.8C92.2164 169.8 87.766 169.768 83.2839 169.641L76.6084 169.45C74.3832 169.387 72.1581 169.323 69.9329 169.26C65.4826 169.196 61.0322 169.196 56.5501 169.26C52.0998 169.323 47.6495 169.355 43.1673 169.355C38.717 169.355 34.2667 169.355 29.7846 169.323C20.8839 169.228 11.9514 169.037 3.05078 168.687V168.592C11.9832 168.337 20.8839 168.274 29.7846 168.305C34.2349 168.337 38.6852 168.401 43.1673 168.464C47.6177 168.528 52.068 168.623 56.5501 168.751C61.0005 168.878 65.4508 168.973 69.9329 168.973C72.1581 168.973 74.3832 168.941 76.6084 168.941L83.2839 168.878C85.5091 168.878 87.7342 168.878 89.9594 168.941L93.2971 169.005L96.6349 169.101C101.085 169.228 105.536 169.387 109.986 169.673L110.049 169.737Z" fill="#1B3F31"/>
</g>
<path d="M124.959 163.281C124.895 162.104 122.924 147.888 119.65 149.86C116.376 151.863 116.694 160.927 116.694 160.927C116.694 160.927 114.342 149.987 112.085 151.641C109.828 153.295 109.097 159.274 110.94 164.489C111.735 167.67 104.742 150.305 104.297 157.27C103.852 164.235 102.898 173.331 111.226 174.539C119.555 175.812 125.531 173.204 124.959 163.281Z" fill="#D3966C"/>
<path d="M124.261 163.122C124.261 163.122 126.518 159.783 129.697 159.369C131.858 159.083 130.11 162.232 128.711 164.744C127.535 166.811 126.105 168.72 124.388 170.373L121.845 172.822L117.967 171.964L124.261 163.122Z" fill="#D3966C"/>
<path d="M19.1062 163.281C19.1698 162.104 21.1407 147.888 24.4149 149.86C27.689 151.832 27.3711 160.927 27.3711 160.927C27.3711 160.927 29.7235 149.987 31.9804 151.641C34.2374 153.295 34.9685 159.274 33.1248 164.489C32.3301 167.67 39.3235 150.305 39.7685 157.27C40.2135 164.235 41.1672 173.331 32.8387 174.539C24.5102 175.812 18.5023 173.204 19.1062 163.281Z" fill="#D3966C"/>
<path d="M19.8036 163.122C19.8036 163.122 17.5467 159.783 14.3678 159.369C12.2063 159.083 13.9546 162.232 15.3533 164.744C16.5294 166.811 17.9599 168.72 19.6765 170.373L22.2195 172.822L26.0976 171.964L19.8036 163.122Z" fill="#D3966C"/>
</svg>
