<svg width="28" height="14" viewBox="0 0 28 14" fill="none" xmlns="http://www.w3.org/2000/svg">
<g clip-path="url(#clip0_16999_42964)">
<path d="M26.5136 1.35782e-06H2.88982C2.52037 -0.000335342 2.16397 0.113593 1.88999 0.319636C1.616 0.525678 1.44403 0.809095 1.40751 1.11473L0.00999993 12.6383C-0.0109529 12.8107 0.011774 12.9847 0.0767156 13.1493C0.141657 13.3139 0.247421 13.4653 0.387088 13.5938C0.526756 13.7223 0.697219 13.8251 0.887594 13.8955C1.07797 13.9658 1.28397 14.0022 1.49232 14.0023H25.1189C25.4879 14.0021 25.8436 13.8879 26.117 13.6819C26.3903 13.4759 26.5619 13.1929 26.5984 12.8876L27.9959 1.36402C28.0173 1.19162 27.9949 1.01741 27.9301 0.852671C27.8653 0.687935 27.7596 0.536343 27.6199 0.40774C27.4801 0.279138 27.3094 0.176392 27.1189 0.106149C26.9283 0.0359061 26.7221 -0.000255406 26.5136 1.35782e-06V1.35782e-06ZM12.788 9.86091C12.3856 9.99283 11.9559 10.0576 11.5235 10.0514C10.8641 10.0844 10.2127 9.91724 9.69033 9.58105C9.47096 9.41989 9.29732 9.22028 9.18188 8.99662C9.06644 8.77295 9.01211 8.53081 9.02276 8.28759H10.9718C10.9525 8.36266 10.954 8.44038 10.976 8.51492C10.9981 8.58947 11.0402 8.65887 11.0992 8.71795C11.2158 8.8013 11.3625 8.85 11.5162 8.85639C11.6698 8.86278 11.8217 8.82649 11.9478 8.75323C12.0525 8.6841 12.1205 8.58365 12.1373 8.47337C12.1429 8.44534 12.1429 8.41674 12.1373 8.38871C12.1391 8.3154 12.1182 8.24293 12.0766 8.17828C12.0349 8.11363 11.974 8.05895 11.8997 8.01948C11.6514 7.89112 11.3902 7.78095 11.1189 7.69023C10.8213 7.59317 10.5329 7.47761 10.2561 7.34453C10.0215 7.22653 9.82223 7.06568 9.67341 6.87418C9.50377 6.65524 9.41883 6.39834 9.4301 6.13808C9.4326 6.00793 9.44778 5.87816 9.4754 5.75003C9.52106 5.54403 9.62072 5.34893 9.76741 5.17861C9.91409 5.0083 10.1042 4.86695 10.3241 4.76465C10.8314 4.51825 11.4114 4.39447 11.9987 4.40719C12.8134 4.40719 13.4235 4.55691 13.829 4.85637C14.0355 5.01547 14.1989 5.20937 14.3081 5.42512C14.4174 5.64086 14.4701 5.87349 14.4626 6.1075H12.4824C12.4952 6.04078 12.4915 5.9726 12.4715 5.90711C12.4516 5.84162 12.4159 5.78018 12.3665 5.72652C12.3164 5.68389 12.2559 5.6507 12.189 5.6292C12.1221 5.6077 12.0505 5.59837 11.9789 5.60187C11.8399 5.59769 11.704 5.63621 11.597 5.71006C11.5442 5.75174 11.5033 5.80276 11.4774 5.85934C11.4514 5.91592 11.4411 5.97661 11.4471 6.03695C11.447 6.10534 11.468 6.17259 11.5082 6.2323C11.5483 6.292 11.6061 6.34216 11.6762 6.37796C11.9105 6.49927 12.1588 6.6009 12.4174 6.68133C12.7176 6.7787 13.0096 6.89262 13.2915 7.02234C13.525 7.13647 13.7249 7.29231 13.877 7.47858C14.0515 7.69944 14.1385 7.96009 14.126 8.22408C14.1224 8.35429 14.1062 8.48405 14.0779 8.61213C14.022 8.88007 13.8781 9.12994 13.6621 9.33412C13.4261 9.56577 13.1262 9.74651 12.788 9.86091ZM15.2604 10.5406H13.8912L17.2858 3.64051H18.6465L15.2604 10.5406Z" fill="#00CA75"/>
</g>
<defs>
<clipPath id="clip0_16999_42964">
<rect width="28" height="14" fill="white"/>
</clipPath>
</defs>
</svg>
