<svg width="47" height="28" viewBox="0 0 47 28" fill="none" xmlns="http://www.w3.org/2000/svg">
<path d="M44.5065 3.63197e-05H4.84971C4.23072 -0.00325179 3.63263 0.221575 3.17175 0.630803C2.71086 1.04003 2.42014 1.6044 2.35611 2.21415L0.0172885 25.2579C-0.0189599 25.6031 0.0186323 25.9519 0.127612 26.2816C0.236591 26.6114 0.414514 26.9147 0.649782 27.1718C0.885051 27.4289 1.17238 27.6341 1.49306 27.7738C1.81373 27.9136 2.16054 27.9849 2.51089 27.983H42.1677C42.7875 27.9855 43.3857 27.7577 43.8442 27.3446C44.3027 26.9316 44.5881 26.3632 44.6441 25.7519L46.9829 2.70806C47.0192 2.36518 46.982 2.01859 46.8739 1.69089C46.7658 1.36318 46.5892 1.06173 46.3555 0.806203C46.1218 0.550673 45.8364 0.346799 45.5178 0.20789C45.1992 0.0689812 44.8546 -0.00183971 44.5065 3.63197e-05ZM21.4622 19.7056C20.7904 19.9741 20.0713 20.1073 19.347 20.0974C18.2409 20.1588 17.1491 19.8266 16.2687 19.1606C15.8984 18.8396 15.6058 18.4403 15.4123 17.9922C15.2188 17.5441 15.1295 17.0587 15.1508 16.5718H18.4183C18.3892 16.7201 18.3926 16.8729 18.4282 17.0198C18.4638 17.1667 18.5308 17.3043 18.6247 17.4234C18.7259 17.5167 18.8451 17.5889 18.9751 17.6357C19.1051 17.6826 19.2432 17.703 19.3814 17.6959C19.6167 17.7063 19.8482 17.6339 20.0349 17.4915C20.1246 17.4282 20.2001 17.3471 20.2564 17.2532C20.3126 17.1593 20.3485 17.0549 20.3616 16.9465C20.3709 16.8901 20.3709 16.8326 20.3616 16.7762C20.364 16.6285 20.3291 16.4826 20.26 16.3517C20.1909 16.2208 20.0899 16.1091 19.9661 16.0268C19.5469 15.7798 19.1101 15.5635 18.6591 15.3796C18.1562 15.1804 17.6678 14.9471 17.1973 14.6813C16.8072 14.4486 16.4728 14.1348 16.2171 13.7616C15.9434 13.3222 15.8059 12.8129 15.8215 12.2969C15.7996 12.0362 15.7996 11.7741 15.8215 11.5134C15.8985 11.1006 16.0663 10.7095 16.313 10.3681C16.5597 10.0267 16.8792 9.74318 17.2489 9.53775C18.0952 9.03926 19.0679 8.79104 20.052 8.82241C21.1549 8.74198 22.2495 9.06296 23.1304 9.72509C23.472 10.0476 23.743 10.4363 23.9264 10.8671C24.1099 11.2978 24.2018 11.7613 24.1966 12.2287H20.9635C20.9879 12.095 20.9837 11.9577 20.9511 11.8256C20.9185 11.6936 20.8583 11.5698 20.7743 11.4623C20.6876 11.3805 20.5849 11.3171 20.4725 11.2761C20.3601 11.2351 20.2404 11.2173 20.1208 11.2239C19.8911 11.216 19.6659 11.2883 19.4845 11.4283C19.3957 11.514 19.3267 11.6178 19.2821 11.7324C19.2376 11.8471 19.2187 11.9699 19.2266 12.0925C19.2278 12.2301 19.2648 12.3652 19.3341 12.4845C19.4034 12.6038 19.5026 12.7035 19.6221 12.7738C20.0137 13.013 20.4285 13.2127 20.8603 13.3699C21.3609 13.5677 21.8491 13.7952 22.3221 14.0511C22.7174 14.2832 23.0576 14.5969 23.3195 14.9708C23.6085 15.4106 23.7527 15.9283 23.7323 16.4526C23.7246 16.7156 23.6959 16.9776 23.6463 17.236C23.5504 17.7704 23.313 18.27 22.9584 18.6837C22.5453 19.1334 22.0334 19.483 21.4622 19.7056ZM25.6068 21.0682H23.3195L29.029 7.27254H31.3162L25.6068 21.0682Z" fill="#00CA75"/>
</svg>
