<svg width="53" height="74" viewBox="0 0 53 74" fill="none" xmlns="http://www.w3.org/2000/svg">
<g clip-path="url(#clip0)">
<path d="M51.8441 0H1.21374C0.520174 0 0 0.516279 0 1.20465V70.2713C0 71.7054 0.635769 72.9674 1.61832 73.5411C2.77426 74.2295 4.27699 73.8853 5.02835 72.738L6.24209 71.0171L7.45583 72.738C7.97601 73.4837 8.78517 73.9426 9.65213 73.9426C10.5191 73.9426 11.2704 73.4837 11.8484 72.738L13.0622 71.0171L14.1025 72.5659C14.6227 73.3116 15.4318 73.7705 16.2988 73.7705C17.1658 73.7705 17.9171 73.3116 18.4951 72.5659L19.7088 70.845L20.9804 72.6806C21.5005 73.4837 22.3097 73.8853 23.1767 73.8853C24.0436 73.8853 24.795 73.4264 25.373 72.6806L26.5867 70.9597L27.8004 72.6806C28.3206 73.4837 29.1298 73.8853 29.9967 73.8853C30.8637 73.8853 31.6151 73.4264 32.193 72.6806L33.4068 70.9597L34.6205 72.6806C35.1407 73.4837 35.9498 73.8853 36.8168 73.8853C37.6838 73.8853 38.4351 73.4264 39.0131 72.6806L40.2268 70.9597L41.4406 72.6806C41.9607 73.4837 42.7699 73.8853 43.6369 73.8853C44.5038 73.8853 45.2552 73.4264 45.8332 72.6806L47.0469 70.9597L48.2606 72.6806C49.1276 73.8853 50.5725 74.2295 51.7285 73.5411C52.133 73.3116 52.3642 73.0248 53.0578 71.0744C53.2312 70.6155 53.289 70.0992 53.289 69.5829V1.20465C53 0.516279 52.4798 0 51.8441 0ZM32.4242 18.8155H43.8103C44.5038 18.8155 45.024 19.3318 45.024 20.0202C45.024 20.6512 44.5038 21.2248 43.8103 21.2248H32.4242C31.7884 21.2248 31.2105 20.7085 31.2105 20.0202C31.2683 19.3318 31.7884 18.8155 32.4242 18.8155ZM30.4013 26.445H43.8681C44.5616 26.445 45.0818 26.9612 45.0818 27.6496C45.0818 28.2806 44.5616 28.8543 43.8681 28.8543H30.4013C29.7655 28.8543 29.1876 28.338 29.1876 27.6496C29.1876 26.9612 29.7655 26.445 30.4013 26.445ZM27.6848 34.0171H43.8681C44.5616 34.0171 45.0818 34.5333 45.0818 35.2217C45.0818 35.8527 44.5616 36.4264 43.8681 36.4264H27.6848C27.0491 36.4264 26.4711 35.9101 26.4711 35.2217C26.4711 34.5333 26.9913 34.0171 27.6848 34.0171ZM29.8233 13.3085L20.807 35.1643H17.1658L26.1821 13.3659H29.8233V13.3085ZM12.4264 28.338C12.6576 28.5674 12.9466 28.6822 13.3511 28.6822C13.6979 28.6822 13.9291 28.6248 14.1603 28.4527C14.3915 28.2806 14.5071 28.0512 14.5649 27.7643C14.5649 27.707 14.5649 27.6496 14.5649 27.5349C14.5649 27.1333 14.3915 26.8465 14.0447 26.6171C13.6979 26.3876 13.1778 26.1008 12.4264 25.814C11.7328 25.5271 11.0971 25.2403 10.6347 24.9535C10.1723 24.6667 9.76772 24.3225 9.42094 23.8062C9.07415 23.3473 8.90076 22.7163 8.90076 21.9705C8.90076 21.7411 8.95856 21.3969 9.01636 20.9953C9.18975 19.9628 9.76772 19.1597 10.7503 18.586C11.7328 18.0124 12.8888 17.7256 14.2181 17.7256C15.8942 17.7256 17.1658 18.0698 17.9749 18.8155C18.7841 19.5612 19.2465 20.5938 19.3043 21.8558H15.2585C15.2585 21.4543 15.2007 21.1101 15.0273 20.938C14.8539 20.7085 14.5649 20.6512 14.2181 20.6512C13.8713 20.6512 13.6401 20.7659 13.4089 20.938C13.1778 21.1101 13.12 21.3969 13.12 21.7411C13.12 22.0853 13.2933 22.3721 13.5823 22.6016C13.8713 22.831 14.3915 23.0605 15.0851 23.3473C15.8364 23.6341 16.4144 23.9209 16.8768 24.2078C17.3392 24.4946 17.7437 24.8388 18.0905 25.355C18.4373 25.814 18.6107 26.445 18.6107 27.1907C18.6107 27.4202 18.5529 27.7643 18.4951 28.1659C18.3795 28.7969 18.0905 29.4279 17.6281 29.9442C17.1658 30.4605 16.5878 30.9194 15.7786 31.2062C15.0273 31.493 14.1603 31.6651 13.1778 31.6651C11.5594 31.6651 10.2879 31.2636 9.42094 30.5178C8.49618 29.7721 8.03381 28.6822 8.03381 27.3628H12.1374C12.0796 27.7643 12.1952 28.1085 12.4264 28.338ZM43.9258 54.7829H9.13195C8.49618 54.7829 7.91821 54.2667 7.91821 53.5783C7.91821 52.9473 8.43839 52.3736 9.13195 52.3736H43.9258C44.5616 52.3736 45.1396 52.8899 45.1396 53.5783C45.1396 54.2093 44.5616 54.7829 43.9258 54.7829ZM43.9258 47.1535H9.13195C8.49618 47.1535 7.91821 46.6372 7.91821 45.9488C7.91821 45.3178 8.43839 44.7442 9.13195 44.7442H43.9258C44.5616 44.7442 45.1396 45.2605 45.1396 45.9488C45.1396 46.6372 44.5616 47.1535 43.9258 47.1535Z" fill="#20D186"/>
</g>
<defs>
<clipPath id="clip0">
<rect width="53" height="74" fill="white"/>
</clipPath>
</defs>
</svg>
