<svg width="58" height="37" viewBox="0 0 58 37" fill="none" xmlns="http://www.w3.org/2000/svg">
<path d="M11.5818 36.0866L45.4566 2.71571L45.485 2.6877C45.7572 2.38167 45.9 1.98453 45.884 1.57796C45.8681 1.1714 45.6946 0.786337 45.3992 0.50194C45.1038 0.217543 44.7091 0.0554623 44.2961 0.0490273C43.8832 0.0425924 43.4834 0.192268 43.179 0.46732L39.8171 3.77921C38.5866 3.18697 37.3217 2.66675 36.029 2.22123C31.4999 0.566748 26.5187 0.566748 21.9896 2.22123C17.728 3.66727 13.9399 5.95298 10.3791 8.54652C6.14597 11.6439 0.946832 16.8356 0.946832 16.8356C0.366398 17.4344 0.0327936 18.2244 0.0109141 19.0521C-0.0109654 19.8798 0.280444 20.6859 0.828455 21.3137C0.828455 21.3137 1.35405 21.9014 2.72249 23.2728C5.57524 26.1819 8.72314 28.7953 12.1169 31.0721L9.309 33.8382C9.01712 34.1357 8.85436 34.5335 8.85532 34.9473C8.85628 35.361 9.02088 35.7582 9.31415 36.0543C9.60741 36.3505 10.0063 36.5225 10.4261 36.5337C10.846 36.545 11.2537 36.3946 11.5629 36.1146L11.5818 36.0866ZM16.1133 19.0046V18.9767C16.1133 18.8787 16.1133 18.7854 16.1133 18.6921V18.6548C16.0971 16.9819 16.4159 15.3224 17.0517 13.7711C17.6874 12.2199 18.6275 10.8074 19.8181 9.61452C21.0088 8.42167 22.4265 7.47192 23.9903 6.8196C25.554 6.16728 27.233 5.82518 28.9311 5.81299H29.0685C31.4483 5.83029 33.7769 6.49546 35.797 7.73488L31.2987 12.1709C30.1357 11.7814 28.8904 11.6939 27.683 11.9168C26.4756 12.1397 25.3469 12.6654 24.4059 13.4433C23.465 14.2212 22.7435 15.2249 22.3111 16.3576C21.8787 17.4903 21.75 18.7137 21.9374 19.9096C21.9356 19.9407 21.9356 19.9718 21.9374 20.0029C21.9374 20.0682 21.9375 20.1335 21.9706 20.1988C22.031 20.5038 22.1116 20.8045 22.2121 21.0991L17.6853 25.5585C16.6594 23.7346 16.1125 21.6869 16.0944 19.6017C16.0944 19.5271 16.0944 19.4525 16.0944 19.3778V19.2099C16.1133 19.1306 16.1133 19.0373 16.1133 19.0046ZM26.8572 25.5351L35.816 16.7097C35.816 16.747 35.8159 16.7796 35.8491 16.8123C35.8775 16.9009 35.9012 16.9942 35.9249 17.0828C36.3462 18.6785 36.1784 20.3697 35.4514 21.8547V21.8967L35.3282 22.1347L35.2336 22.2979L35.1673 22.4098C34.3393 23.7693 33.0723 24.8157 31.569 25.3815C30.0658 25.9473 28.4133 25.9997 26.8761 25.5305L26.8572 25.5351ZM57.1617 21.309C57.1617 21.309 56.6314 21.8967 55.2677 23.2681C51.422 27.2377 46.9965 30.6195 42.1373 33.3018C38.3208 35.3542 34.296 36.7723 29.9066 36.9729C29.5941 36.9729 29.2863 36.9729 28.9596 36.9729C28.6329 36.9729 28.344 36.9729 28.0126 36.9729C24.4833 36.7685 21.0306 35.8742 17.8558 34.342L22.07 30.1905C24.1212 31.4812 26.5068 32.1615 28.9406 32.1496C32.3306 32.1414 35.5814 30.8206 37.9918 28.4723C40.4021 26.124 41.7788 22.9363 41.8248 19.5971C41.8248 19.5224 41.8248 19.4478 41.8248 19.3732V19.2052C41.8248 19.1259 41.8248 19.0326 41.8248 19V18.972C41.8248 18.874 41.8248 18.7808 41.8248 18.6875V18.6501C41.8492 16.441 41.2878 14.2639 40.1959 12.3342L45.5087 7.09577C46.2063 7.56845 46.8929 8.05051 47.5684 8.54185C51.8016 11.6392 57.0007 16.8309 57.0007 16.8309C57.5902 17.4228 57.9352 18.2096 57.9684 19.0381C58.0017 19.8667 57.7209 20.6778 57.1807 21.3137L57.1617 21.309Z" fill="#00CA75"/>
</svg>
