<svg width="14" height="22" viewBox="0 0 14 22" fill="none" xmlns="http://www.w3.org/2000/svg">
<g clip-path="url(#clip0_16999_42966)">
<path d="M12.3175 0H1.68254C0.752643 0 0 0.752643 0 1.68254V2.93123H13.9995V1.68254C13.9995 0.752643 13.2469 0 12.317 0L12.3175 0ZM7.48282 2.28809C7.35474 2.41616 7.18027 2.48994 7.00023 2.48994C6.82019 2.48994 6.64572 2.41616 6.51765 2.28809C6.39236 2.16281 6.31858 1.98555 6.31858 1.80551C6.31858 1.62547 6.39236 1.451 6.51765 1.32571C6.77101 1.07235 7.22668 1.07235 7.48282 1.32293C7.6081 1.451 7.68188 1.62825 7.68188 1.80551C7.68188 1.98277 7.6081 2.16281 7.48282 2.28809Z" fill="#056857"/>
<path d="M0 3.79834H14V16.1562H0V3.79834Z" fill="#009175"/>
<path d="M0 19.9278C0 20.8577 0.752643 21.6104 1.68254 21.6104H12.3175C13.2474 21.6104 14 20.8577 14 19.9278V17.52H0.000464022V19.9278H0ZM5.24855 18.5427H8.74959C9.12592 18.5427 9.43124 18.848 9.43124 19.2244C9.43124 19.6007 9.12592 19.906 8.74959 19.906H5.24948C4.87316 19.906 4.56783 19.6007 4.56783 19.2244C4.56783 18.848 4.87316 18.5427 5.24948 18.5427H5.24855Z" fill="#056857"/>
</g>
<defs>
<clipPath id="clip0_16999_42966">
<rect width="14" height="21.6104" fill="white"/>
</clipPath>
</defs>
</svg>
