<svg width="70" height="57" viewBox="0 0 70 57" fill="none" xmlns="http://www.w3.org/2000/svg">
<path d="M9.53694 39.4688H0V47.4471H9.53694V39.4688Z" fill="#0A7560"/>
<path d="M22.2522 30.1699H0V38.1483H22.2522V30.1699Z" fill="#009175"/>
<path d="M22.2522 49.0215H0V56.9999H22.2522V49.0215Z" fill="#075949"/>
<path d="M33.3772 39.4688H11.125V47.4471H33.3772V39.4688Z" fill="#0A7560"/>
<path d="M46.094 49.0215H23.8418V56.9999H46.094V49.0215Z" fill="#056857"/>
<path d="M70.0003 49.0215H47.748V56.9999H70.0003V49.0215Z" fill="#056857"/>
<path d="M57.5103 4.4131L51.6868 10.2597C51.5874 10.364 51.468 10.447 51.3358 10.5037C51.2036 10.5604 51.0613 10.5897 50.9175 10.5897C50.7738 10.5897 50.6315 10.5604 50.4993 10.5037C50.3671 10.447 50.2477 10.364 50.1483 10.2597L49.8195 9.92774L47.6217 12.1344V21.6229C47.6159 21.8486 47.5387 22.0666 47.4012 22.2453C47.2638 22.424 47.0732 22.5541 46.8572 22.6168L31.4738 28.2427C31.4302 28.2844 31.3779 28.3158 31.3208 28.3347C31.2636 28.3536 31.2029 28.3596 31.1432 28.3521C30.9996 28.3557 30.8569 28.3281 30.725 28.2711C30.593 28.2141 30.4749 28.1292 30.3787 28.0221C30.2554 27.87 30.171 27.69 30.1327 27.4978C30.0944 27.3055 30.1034 27.1067 30.1589 26.9188L35.6517 11.3649C35.7139 11.1479 35.8435 10.9564 36.0215 10.8183C36.1996 10.6803 36.4169 10.6029 36.6418 10.5974H46.0908L48.2753 8.38311L47.9447 8.05116C47.8425 7.95138 47.7613 7.83205 47.7058 7.70022C47.6503 7.56839 47.6218 7.42674 47.6218 7.28363C47.6218 7.14053 47.6503 6.99887 47.7058 6.86705C47.7613 6.73522 47.8425 6.61589 47.9447 6.51611L53.7681 0.66951C53.9666 0.460406 54.2053 0.293946 54.4698 0.180205C54.7342 0.0664639 55.0189 0.0078125 55.3066 0.0078125C55.5943 0.0078125 55.8791 0.0664639 56.1435 0.180205C56.408 0.293946 56.6467 0.460406 56.8452 0.66951L57.5045 1.3315C57.712 1.53028 57.8772 1.76915 57.9903 2.03374C58.1034 2.29833 58.1619 2.58316 58.1625 2.87108C58.163 3.15899 58.1055 3.44403 57.9934 3.70904C57.8813 3.97405 57.717 4.21354 57.5103 4.4131Z" fill="#00CA75"/>
</svg>
