<?xml version="1.0" encoding="utf-8"?>
<!-- Generator: Adobe Illustrator 23.0.3, SVG Export Plug-In . SVG Version: 6.00 Build 0)  -->
<svg version="1.1" id="Layer_1" xmlns="http://www.w3.org/2000/svg" xmlns:xlink="http://www.w3.org/1999/xlink" x="0px" y="0px"
	 viewBox="0 0 185 40.8" style="enable-background:new 0 0 185 40.8;" xml:space="preserve">
<style type="text/css">
	.st0{fill:#FFFFFF;}
</style>
<g>
	<path class="st0" d="M49.6,9.5h7.7c1.8,0,3.2,0.5,4.2,1.6c0.9,1,1.4,2.4,1.4,4.1c0,1.1-0.2,2.1-0.7,2.9s-1.1,1.5-2,2
		s-1.9,0.7-3,0.7H53v5.1h-3.4V9.5L49.6,9.5z M56.4,18c1,0,1.7-0.3,2.2-0.8s0.8-1.2,0.8-2.1s-0.2-1.7-0.7-2.2s-1.2-0.8-2.1-0.8H53V18
		H56.4L56.4,18z"/>
	<path class="st0" d="M64.8,13.8H68l0.2,1.2c0.6-0.4,1.2-0.7,2-0.9c0.8-0.3,1.6-0.5,2.4-0.6v2.6c-0.7,0.1-1.5,0.3-2.3,0.5
		s-1.5,0.5-2,0.8v8.4h-3.4L64.8,13.8L64.8,13.8z"/>
	<path class="st0" d="M74.9,24.5c-1.2-1.1-1.8-2.6-1.8-4.7c0-2,0.5-3.5,1.6-4.6s2.6-1.7,4.6-1.7c1.8,0,3.2,0.5,4.3,1.4
		c1,1,1.5,2.2,1.5,3.9V21h-8.7c0.2,0.9,0.6,1.6,1.3,2c0.7,0.4,1.7,0.6,3,0.6c0.6,0,1.3-0.1,2-0.2s1.2-0.3,1.7-0.5v2.4
		c-1.1,0.5-2.6,0.8-4.4,0.8C77.7,26.1,76.1,25.6,74.9,24.5z M82,18.9v-0.7c0-1.5-0.9-2.2-2.7-2.2c-1.1,0-1.9,0.2-2.4,0.7
		s-0.7,1.2-0.7,2.2H82L82,18.9z"/>
	<path class="st0" d="M89.1,25.9c-0.8-0.1-1.5-0.3-2-0.5v-2.8c0.6,0.2,1.2,0.4,2,0.5c0.7,0.1,1.5,0.2,2.1,0.2c0.9,0,1.5-0.1,1.8-0.2
		s0.5-0.3,0.5-0.7c0-0.3-0.2-0.5-0.5-0.7s-0.9-0.4-1.8-0.7c-0.3-0.1-0.6-0.2-1-0.3c-1.2-0.4-2.1-0.9-2.6-1.4
		C87,18.8,86.8,18,86.8,17c0-1.2,0.4-2.1,1.3-2.7c0.9-0.6,2.2-0.9,4-0.9c0.7,0,1.4,0.1,2,0.2c0.7,0.1,1.2,0.2,1.7,0.4v2.8
		c-0.4-0.2-1-0.4-1.6-0.5s-1.2-0.2-1.7-0.2c-0.8,0-1.4,0.1-1.8,0.2s-0.6,0.3-0.6,0.6c0,0.3,0.1,0.5,0.4,0.6s0.8,0.3,1.6,0.6l0.8,0.3
		c1,0.3,1.7,0.6,2.3,1c0.5,0.3,0.9,0.7,1.1,1.2s0.3,1,0.3,1.8c0,1.2-0.5,2.1-1.3,2.7c-0.9,0.6-2.2,0.9-4,0.9
		C90.7,26.1,89.9,26,89.1,25.9z"/>
	<path class="st0" d="M100.3,25c-0.7-0.7-1-1.7-1-3v-5.6v-2.6v-2.6l3.4-1v3.6h3l-0.2,2.6h-2.8v5.4c0,0.6,0.1,1.1,0.4,1.3
		c0.3,0.3,0.8,0.4,1.4,0.4c0.5,0,1-0.1,1.5-0.3v2.4c-0.8,0.3-1.7,0.5-2.7,0.5C102,26.1,101,25.7,100.3,25z"/>
	<path class="st0" d="M108.8,25.1c-0.8-0.6-1.2-1.6-1.2-2.8c0-1.2,0.4-2.2,1.3-2.9c0.9-0.7,2.1-1.1,3.7-1.1h3.6V18
		c0-0.5-0.1-0.9-0.3-1.2c-0.2-0.3-0.5-0.5-0.9-0.6c-0.5-0.1-1.1-0.2-1.9-0.2c-1.4,0-2.7,0.2-4,0.6v-2.4c0.6-0.2,1.3-0.4,2.1-0.6
		c0.8-0.1,1.7-0.2,2.6-0.2c3.8,0,5.7,1.6,5.7,4.7v7.7h-3l-0.2-1.1c-1,0.9-2.4,1.3-4.4,1.3C110.7,26.1,109.7,25.8,108.8,25.1z
		 M114.8,23.5c0.6-0.2,1-0.6,1.4-1v-1.9h-3.5c-1.3,0-2,0.6-2,1.7s0.7,1.6,2.2,1.6C113.6,23.8,114.2,23.7,114.8,23.5z"/>
	<path class="st0" d="M122.2,13.8h3.2l0.1,1.2c1.3-0.9,2.6-1.4,4.1-1.4c0.8,0,1.5,0.1,1.9,0.4c0.5,0.2,0.8,0.6,1.1,1.1
		c0.6-0.5,1.3-0.8,2-1.1s1.5-0.4,2.5-0.4c1.4,0,2.4,0.4,3.1,1.1c0.7,0.7,1,1.8,1,3.3v7.9h-3.4v-7.5c0-0.8-0.2-1.3-0.5-1.7
		c-0.3-0.4-0.9-0.5-1.6-0.5c-0.5,0-0.9,0.1-1.4,0.3c-0.5,0.2-0.8,0.5-1.2,0.8c0.1,0.3,0.1,0.6,0.1,1V26H130v-7.6
		c0-0.8-0.1-1.3-0.4-1.7c-0.3-0.4-0.8-0.5-1.5-0.5c-0.9,0-1.7,0.4-2.6,1.3V26h-3.4L122.2,13.8L122.2,13.8z"/>
	<path class="st0" d="M143.8,29.9v-2.4c0.5,0.2,1,0.3,1.6,0.3c0.7,0,1.2-0.2,1.6-0.5c0.4-0.3,0.9-0.6,1.3-1.5l-5.5-12h3.6l3.5,8.2
		l3.5-8.2h3.6L152.2,25c-0.7,1.8-1.6,3.1-2.4,4c-0.9,0.9-2,1.3-3.4,1.3C145.3,30.3,144.5,30.2,143.8,29.9z"/>
	<path class="st0" d="M158.6,13.8h3l0.2,1.1c0.5-0.5,1.1-0.8,1.8-1c0.6-0.2,1.4-0.3,2.2-0.3c1.8,0,3.2,0.5,4.1,1.5s1.4,2.5,1.4,4.7
		c0,2.1-0.5,3.7-1.5,4.8c-1,1.1-2.4,1.6-4.2,1.6c-1.4,0-2.5-0.3-3.5-0.9v6.1h-3.4L158.6,13.8L158.6,13.8z M167,22.6
		c0.5-0.6,0.8-1.6,0.8-2.9s-0.2-2.2-0.7-2.8c-0.5-0.6-1.2-0.9-2.3-0.9s-1.9,0.4-2.7,1.1v5.5c0.4,0.3,0.8,0.5,1.2,0.7
		s0.9,0.2,1.4,0.2C165.7,23.6,166.5,23.3,167,22.6z"/>
	<path class="st0" d="M174.9,24.5c-1.2-1.1-1.8-2.6-1.8-4.7c0-2,0.5-3.5,1.6-4.6c1-1.1,2.6-1.7,4.6-1.7c1.8,0,3.2,0.5,4.3,1.4
		c1,1,1.5,2.2,1.5,3.9V21h-8.7c0.2,0.9,0.6,1.6,1.3,2s1.7,0.6,3,0.6c0.6,0,1.3-0.1,2-0.2s1.2-0.3,1.7-0.5v2.4
		c-1.1,0.5-2.6,0.8-4.4,0.8C177.8,26.1,176.1,25.6,174.9,24.5z M182,18.9v-0.7c0-1.5-0.9-2.2-2.7-2.2c-1.1,0-1.9,0.2-2.4,0.7
		s-0.7,1.2-0.7,2.2H182L182,18.9z"/>
	<g>
		<path class="st0" d="M34.4,12.7L22.5,0.9l-0.1-0.1l-0.1-0.1l-0.1-0.1c-1.1-0.8-2.6-0.8-3.6,0c0,0,0,0-0.1,0l-0.1,0.1l-0.1,0.1
			L0.9,18.3c-1.2,1.2-1.2,3,0,4.2l2.8,2.8c0.1-1,0.6-2,1.4-2.8C6.6,21,11,16.6,11,16.6c1.9-1.9,5-1.9,7,0l6.3,6.3
			c1.2,1.2,3,1.2,4.2,0l5.9-5.9C35.5,15.8,35.5,13.9,34.4,12.7z M27,15.5c-0.5,0.5-1.1,0.7-1.7,0.7s-1.2-0.2-1.7-0.7l-3.4-3.4
			c-0.9-0.9-0.9-2.4,0-3.4C20.7,8.3,21.3,8,22,8c0.6,0,1.2,0.2,1.7,0.7l3.4,3.4C28,13,28,14.6,27,15.5z"/>
		<path class="st0" d="M40,18.3l-2.8-2.8c-0.1,1-0.6,2-1.4,2.8c-1.5,1.5-5.9,5.9-5.9,5.9c-1.9,1.9-5,1.9-7,0L16.6,18
			c-1.2-1.2-3-1.2-4.2,0l-5.9,5.9c-1.2,1.2-1.2,3,0,4.2L18.3,40l0.1,0.1l0.1,0.1l0.1,0.1c1.1,0.8,2.6,0.8,3.6,0c0,0,0,0,0.1,0
			l0.1-0.1l0.1-0.1L40,22.5C41.1,21.4,41.1,19.5,40,18.3z M20.8,32.4c-0.5,0.5-1.1,0.7-1.7,0.7s-1.2-0.2-1.7-0.7L14.1,29
			c-0.9-0.9-0.9-2.4,0-3.4c0.5-0.5,1.1-0.7,1.7-0.7s1.2,0.2,1.7,0.7l3.4,3.4C21.8,29.9,21.8,31.4,20.8,32.4z"/>
	</g>
</g>
</svg>
